<svg xmlns="http://www.w3.org/2000/svg" width="124" height="154" viewBox="0 0 124 154"><defs><linearGradient id="a" x1="50%" x2="50%" y1="0%" y2="100%"><stop offset="0%" stop-color="#159345"/><stop offset="57.343%" stop-color="#9CCA50"/><stop offset="100%" stop-color="#159345"/></linearGradient></defs><g fill="none" fill-rule="evenodd"><path fill="url(#a)" fill-rule="nonzero" d="M106.511053,32.6428138 C106.477651,32.5910331 106.444739,32.5389068 106.412322,32.4864414 C106.260853,32.4869866 106.10943,32.4868084 105.958052,32.4859069 L106.511053,32.6428138 Z M70.9005261,10.8797918 C82.1630085,20.9796646 93.5226356,26.1354162 105.05531,26.4688915 C105.569251,21.7071794 109.601696,18 114.5,18 C119.746705,18 124,22.2532949 124,27.5 C124,31.8848741 121.029248,35.5758918 116.990633,36.6701633 C115.799608,83.0587516 111.204117,112.189353 102.876804,124.57384 L102.680272,124.866124 L102.421387,125.10494 C96.1369352,130.902218 85.9085591,136.533835 71.6912425,142.088524 C71.8927285,142.85859 72,143.666768 72,144.5 C72,149.746705 67.7467051,154 62.5,154 C57.2532949,154 53,149.746705 53,144.5 C53,143.850079 53.0652639,143.215401 53.1895956,142.602163 C38.2802345,136.880992 27.611089,131.080983 21.1328486,125.10494 L20.8739637,124.866124 L20.6774324,124.57384 C12.3421167,112.177452 7.74579966,83.0027491 6.56017864,36.5363821 C2.75238871,35.2984346 0,31.7206447 0,27.5 C0,22.2532949 4.25329488,18 9.5,18 C14.4505255,18 18.5166323,21.7866467 18.9599249,26.6215446 C30.0647819,27.2957805 41.2646492,22.79455 52.6483382,12.9563732 C52.2297551,11.8851958 52,10.719429 52,9.5 C52,4.25329488 56.2532949,0 61.5,0 C66.7467051,0 71,4.25329488 71,9.5 C71,9.96863022 70.9660677,10.4293351 70.9005261,10.8797918 Z M9.5,31 C11.4329966,31 13,29.4329966 13,27.5 C13,25.5670034 11.4329966,24 9.5,24 C7.56700338,24 6,25.5670034 6,27.5 C6,29.4329966 7.56700338,31 9.5,31 Z M61.5,13 C63.4329966,13 65,11.4329966 65,9.5 C65,7.56700338 63.4329966,6 61.5,6 C59.5670034,6 58,7.56700338 58,9.5 C58,11.4329966 59.5670034,13 61.5,13 Z M114.5,31 C116.432997,31 118,29.4329966 118,27.5 C118,25.5670034 116.432997,24 114.5,24 C112.567003,24 111,25.5670034 111,27.5 C111,29.4329966 112.567003,31 114.5,31 Z M62.5,148 C64.4329966,148 66,146.432997 66,144.5 C66,142.567003 64.4329966,141 62.5,141 C60.5670034,141 59,142.567003 59,144.5 C59,146.432997 60.5670034,148 62.5,148 Z"/><text fill="#FFF" font-family="SourceSansPro-Black, Source Sans Pro" font-size="120" font-weight="800">
            <tspan x="29" y="118">P</tspan>
        </text></g></svg>