<svg width="69" height="61" viewBox="0 0 69 61" fill="none" xmlns="http://www.w3.org/2000/svg">
<path d="M48.7569 12.7266C51.2536 12.4681 53.7576 12.1433 56.269 11.7523M48.7569 12.7266C45.4596 5.98337 40.3014 1.63844 34.4988 1.63844M48.7569 12.7266C50.5025 16.3904 51.6459 20.3118 52.1431 24.3396M48.7569 12.7266C46.0249 13.0082 43.2982 13.2078 40.5771 13.3248M48.7569 12.7266C46.0262 13.0057 43.2995 13.2053 40.5771 13.3248M56.269 11.7523C53.5969 8.58138 50.2638 6.03311 46.5032 4.28603C42.7426 2.53895 38.6454 1.63531 34.4988 1.63844M56.269 11.7523C59.2501 15.2717 61.3294 19.4642 62.3272 23.9673M34.4988 1.63844C30.3521 1.635 26.2548 2.5385 22.4941 4.2856C18.7335 6.03271 15.4004 8.58114 12.7285 11.7523M34.4988 1.63844C28.6962 1.63844 23.5369 5.98337 20.2406 12.7266M34.4988 1.63844C32.0012 1.63844 29.79 6.24206 28.4201 13.3248M34.4988 1.63844C36.9954 1.63844 39.2064 6.24206 40.5771 13.3248M12.7285 11.7523C15.2387 12.1439 17.7427 12.4686 20.2406 12.7266M12.7285 11.7523C9.74764 15.2716 7.66982 19.4643 6.6731 23.9673M12.7285 11.7523C15.2348 12.1458 17.739 12.4701 20.2396 12.7248C18.4954 16.3897 17.3528 20.3115 16.8554 24.3397M20.2406 12.7266C22.9713 13.0057 25.6977 13.2053 28.4201 13.3248M20.2406 12.7266C18.4946 16.3903 17.3521 20.3118 16.8554 24.3397M20.2406 12.7266C22.9727 13.0082 25.6991 13.2078 28.4201 13.3248M16.8554 24.3397C13.4607 24.2394 10.0666 24.1153 6.6731 23.9673M16.8554 24.3397C20.2752 24.4362 23.6941 24.5037 27.1139 24.5423M16.8554 24.3397C16.3512 28.202 16.3512 32.1134 16.8554 35.9757M16.8554 24.3397C13.4609 24.2439 10.0668 24.1198 6.6731 23.9673M16.8554 24.3397C16.6026 26.2697 16.4765 28.2141 16.4774 30.1606C16.4766 32.1051 16.6027 34.0476 16.8554 35.9757M6.6731 23.9673C6.21835 26.0004 5.98821 28.0772 5.98633 30.1606C5.98633 30.448 5.99216 30.7298 6.00184 31.0134M52.1431 35.9777C52.3946 34.0482 52.5203 32.1045 52.5192 30.1587C52.5201 28.2129 52.3945 26.2691 52.1431 24.3396M52.1431 35.9777C55.5368 36.0741 58.9315 36.1982 62.3272 36.35M52.1431 35.9777C48.7222 35.8837 45.3021 35.8156 41.8833 35.7732M52.1431 35.9777C52.6446 32.1145 52.6446 28.2028 52.1431 24.3396M62.3272 36.35C63.2367 32.2725 63.2367 28.0448 62.3272 23.9673M62.3272 36.35C61.3285 40.8526 59.2495 45.0449 56.2698 48.5651M62.3272 36.35C58.9329 36.2009 55.5386 36.0762 52.1448 35.9758M62.3272 23.9673C58.9315 24.1197 55.5368 24.2438 52.1431 24.3396M62.3272 23.9673C58.9315 24.1171 55.5368 24.2412 52.1431 24.3396M52.1431 24.3396C48.7222 24.4362 45.3022 24.5038 41.8834 24.5423M35.0371 58.6672C34.9763 58.6711 34.9166 58.6769 34.8558 58.6769M35.0371 58.6672C34.8605 58.6769 34.6792 58.6808 34.4978 58.6808M35.0371 58.6672C35.204 58.6615 35.37 58.6519 35.5358 58.6365C35.668 58.6211 35.7935 58.6114 35.9246 58.5902C36.0202 58.5805 36.1166 58.5651 36.2121 58.5555C36.353 58.5304 36.4947 58.5092 36.6404 58.4802C36.817 58.4493 36.9886 58.4088 37.1652 58.3683C37.3775 58.3181 37.5888 58.2622 37.8058 58.1966C37.937 58.1619 38.0682 58.1213 38.1994 58.075C38.3605 58.0248 38.5167 57.9709 38.674 57.9091C39.1244 57.7382 39.5653 57.5431 39.9947 57.3245C40.2165 57.2126 40.4335 57.0968 40.6507 56.9714M34.8558 58.6769C34.7342 58.6808 34.6184 58.6808 34.4978 58.6808M34.8558 58.6769C37.1275 58.6524 39.3878 58.3544 41.5883 57.7894H41.5988M34.4978 58.6808C30.3512 58.6845 26.2539 57.7808 22.4934 56.0334C18.733 54.2859 15.4004 51.7368 12.7295 48.565M34.4978 58.6808C34.4467 58.6808 34.3916 58.6807 34.3406 58.6768M34.4978 58.6808C34.5768 58.6811 34.6556 58.6765 34.734 58.6672C34.8103 58.6556 34.8854 58.646 34.9617 58.6266C35.0389 58.6109 35.1147 58.589 35.1884 58.5611C35.2636 58.5341 35.334 58.509 35.4103 58.4742C35.5546 58.4069 35.693 58.3275 35.8241 58.237C35.8637 58.2119 35.9042 58.1829 35.9447 58.1521C35.9941 58.1176 36.0414 58.0802 36.0865 58.0402C36.139 58.0012 36.1892 57.9593 36.237 57.9147C36.2823 57.8742 36.3277 57.8337 36.373 57.7894C36.4945 57.6716 36.6151 57.5424 36.7367 57.3996M34.4978 58.6808C34.4201 58.6811 34.3425 58.6764 34.2653 58.667M56.2698 48.5651C53.7577 48.1753 51.2527 47.8505 48.7549 47.5907M56.2698 48.5651C52.4541 53.0866 47.3273 56.31 41.5988 57.7894M56.2698 48.5651C53.7613 48.1722 51.2563 47.8473 48.7549 47.5907M48.7549 47.5907C50.5046 43.9275 51.6494 40.0051 52.1448 35.9758M48.7549 47.5907C46.0267 47.3091 43.2998 47.1089 40.5742 46.9906M48.7549 47.5907C48.6189 47.8724 48.4771 48.1464 48.3315 48.4184C47.6456 49.7409 46.8457 51.001 45.941 52.1846M48.7549 47.5907C46.0254 47.3123 43.2985 47.1121 40.5742 46.9906M52.1448 35.9758C48.7217 35.8813 45.3003 35.8137 41.8804 35.7732M12.7295 48.565C15.2358 48.1752 17.7391 47.8504 20.2397 47.5906M12.7295 48.565C15.2396 48.172 17.743 47.8472 20.2397 47.5906M12.7295 48.565C9.74788 45.0461 7.66916 40.8534 6.67328 36.35M20.2397 47.5906C23.508 54.274 28.6064 58.5997 34.3406 58.6768M20.2397 47.5906C20.5773 47.5559 20.9102 47.5192 21.2478 47.4941M20.2397 47.5906C20.0225 47.1468 19.8102 46.6876 19.6144 46.2187C19.4476 45.8406 19.2864 45.4527 19.1398 45.0591C19.0646 44.8623 18.9884 44.6655 18.9131 44.4629C18.8629 44.3433 18.8176 44.2121 18.7723 44.0809C18.7164 43.915 18.6555 43.7471 18.6006 43.5755C18.5195 43.3439 18.4443 43.1066 18.368 42.8654C18.288 42.6281 18.2166 42.385 18.1462 42.1439C18.0757 41.9027 18.0053 41.6539 17.9397 41.4069C17.9349 41.3933 17.9301 41.3779 17.9243 41.3567C17.8635 41.129 17.8037 40.8975 17.7429 40.6601C17.6724 40.3939 17.6117 40.1219 17.5519 39.8498C17.4959 39.6164 17.4448 39.381 17.3947 39.1379C17.3396 38.8755 17.2837 38.6131 17.2384 38.3507C17.193 38.1095 17.1477 37.8664 17.1072 37.6253C17.0117 37.0792 16.9259 36.5295 16.8554 35.9757M34.3406 58.6768C34.3155 58.6711 34.2905 58.671 34.2653 58.667M40.5742 46.9906C41.2661 43.2858 41.7025 39.5378 41.8804 35.7732M40.5742 46.9906C36.5196 46.815 32.4685 46.8149 28.4203 46.9905M40.5742 46.9906C40.5337 47.2124 40.4884 47.4285 40.443 47.6465C40.3977 47.8625 40.3523 48.0806 40.307 48.287C40.2617 48.4993 40.2163 48.7097 40.1662 48.918C40.0755 49.3309 39.9742 49.7283 39.8739 50.1219M40.5742 46.9906C36.5261 46.815 32.4749 46.8149 28.4203 46.9905M41.8804 35.7732C36.958 35.7133 32.0358 35.7133 27.1139 35.7732M40.5771 13.3248C41.267 17.0299 41.7034 20.7778 41.8834 24.5423M40.5771 13.3248C36.5261 13.5043 32.4738 13.5043 28.4201 13.3248M40.5771 13.3248C36.5216 13.5043 32.4693 13.5043 28.4201 13.3248M41.8834 24.5423C41.9789 26.3578 42.029 28.237 42.029 30.1587C42.029 32.0822 41.9788 33.9595 41.8833 35.7732M41.8834 24.5423C36.9605 24.604 32.0374 24.6041 27.1139 24.5423M28.4201 13.3248C27.7303 17.0299 27.2939 20.7778 27.1139 24.5423M27.1139 24.5423C27.0175 26.3579 26.9686 28.2305 26.9673 30.1606C26.9673 32.0822 27.0175 33.9576 27.1139 35.7732M27.1139 24.5423C27.0185 26.3579 26.9683 28.2371 26.9683 30.1587C26.9683 32.0822 27.0185 33.9595 27.1139 35.7732M27.1139 35.7732C23.6941 35.8137 20.2746 35.8812 16.8554 35.9757M27.1139 35.7732C32.0367 35.7153 36.9598 35.7153 41.8833 35.7732M27.1139 35.7732C27.2924 39.5378 27.729 43.2856 28.4203 46.9905M27.1139 35.7732C23.6938 35.8118 20.2743 35.8793 16.8554 35.9757M16.8554 35.9757C14.4494 36.0471 12.0389 36.1263 9.63296 36.2285C8.64512 36.2633 7.66112 36.3038 6.67328 36.35M21.2478 47.4941C21.8189 47.4401 22.3928 47.3899 22.963 47.3378M21.2478 47.4941C21.8238 47.4342 22.3929 47.3841 22.963 47.3378M22.963 47.3378C23.0894 47.3281 23.2197 47.3185 23.346 47.3089C23.7849 47.2722 24.2191 47.2374 24.658 47.2123C25.9131 47.1159 27.1643 47.0465 28.4203 46.9905M28.4203 46.9905C28.4753 47.2838 28.5361 47.5712 28.5969 47.853C28.7126 48.4279 28.839 48.9874 28.975 49.5277C29.0359 49.7843 29.1005 50.0408 29.166 50.2898C29.2374 50.556 29.3078 50.8184 29.3782 51.0712C29.4486 51.3066 29.5191 51.5458 29.5895 51.7715C29.7314 52.2461 29.8828 52.6995 30.0391 53.1279C30.4557 54.3632 31.0141 55.5461 31.7031 56.6529C31.7938 56.784 31.8797 56.9114 31.9704 57.0329C32.0157 57.0927 32.0658 57.1525 32.1121 57.2123C32.2028 57.3339 32.2983 57.4458 32.3939 57.5519C32.4401 57.6021 32.4903 57.6522 32.5356 57.7024C32.6152 57.7861 32.6992 57.8653 32.7874 57.9397C32.8672 58.0127 32.9516 58.0804 33.0402 58.1423C33.2065 58.2693 33.3857 58.3786 33.5746 58.4684C33.6497 58.5042 33.7271 58.5351 33.8062 58.561C33.8801 58.589 33.9562 58.611 34.0338 58.6265C34.1097 58.6466 34.1871 58.6602 34.2653 58.667M6.67328 36.35C6.28238 34.5962 6.05757 32.8094 6.00184 31.0134M6.00184 31.0134C5.82531 30.7298 5.65933 30.4481 5.49238 30.1606C-3.75695 14.1371 1.73497 1.15039 17.7528 1.15039C21.019 1.18422 24.2665 1.64873 27.4113 2.53189C27.941 2.67463 28.4705 2.82508 29.005 2.99104H29.0108C29.8673 3.25924 30.7201 3.5467 31.5826 3.86504C34.1168 4.8066 36.5837 5.91985 38.9664 7.19704C42.0351 8.84001 44.9706 10.7205 47.746 12.8212C48.3017 13.2399 48.8458 13.6644 49.385 14.1024L49.3908 14.1081C53.079 17.0513 56.4253 20.3991 59.3667 24.0888C60.682 25.7486 61.8931 27.4884 62.993 29.2982V29.3078C62.993 29.3078 62.993 29.3136 62.9977 29.3136C63.1695 29.6011 63.3402 29.8731 63.5072 30.1606C72.7575 46.1784 67.2646 59.165 51.2468 59.165C47.9846 59.1301 44.7409 58.6676 41.5988 57.7894M39.8739 50.1219C39.7726 50.5097 39.6665 50.8937 39.5613 51.2621M39.8739 50.1219C39.7774 50.5155 39.6713 50.8937 39.5613 51.2621M39.5613 51.2621C39.1792 52.6351 38.6813 53.9731 38.0728 55.2618C38.012 55.3872 37.9464 55.5146 37.8866 55.6342C37.8113 55.7809 37.7351 55.9178 37.6541 56.0529C37.5789 56.1898 37.4979 56.3249 37.4177 56.4523C37.3068 56.6336 37.19 56.7995 37.0743 56.9616M37.0743 56.9616C36.9633 57.1179 36.8477 57.2645 36.7367 57.3996M37.0743 56.9616C36.9633 57.1179 36.8524 57.2646 36.7367 57.3996M45.941 52.1846C45.7693 52.4123 45.5927 52.6348 45.4114 52.8522M45.941 52.1846C45.7693 52.4123 45.5879 52.6342 45.4114 52.8522M45.4114 52.8522C45.2705 53.0278 45.1239 53.1995 44.9725 53.3654C44.6242 53.759 44.2663 54.1372 43.8978 54.4902C43.7569 54.6272 43.6161 54.7623 43.4695 54.8934C43.4646 54.905 43.4541 54.909 43.4492 54.9147C43.3083 55.0401 43.1617 55.1713 43.0151 55.2928C42.8144 55.4626 42.6176 55.6305 42.4102 55.7868C42.279 55.8928 42.1478 55.9874 42.0128 56.0839C41.926 56.1495 41.8458 56.2094 41.76 56.2653C41.5632 56.4023 41.3664 56.5335 41.1697 56.6588M41.1697 56.6588C40.9979 56.765 40.8223 56.8711 40.6507 56.9714M41.1697 56.6588C40.9979 56.7689 40.8272 56.8711 40.6507 56.9714" stroke="white" stroke-width="1.75" stroke-linecap="round" stroke-linejoin="round"/>
</svg>
