<svg width="118" height="80" viewBox="0 0 118 80" fill="none" xmlns="http://www.w3.org/2000/svg">
<path d="M2 39.8878L7.20024e-05 39.8709L-7.20024e-05 39.8878L7.20024e-05 39.9048L2 39.8878ZM6.47934 25.1402L4.81151 24.0364L4.8078 24.042L6.47934 25.1402ZM18.6949 13.0971L19.7749 14.7805L19.7854 14.7736L18.6949 13.0971ZM36.8131 4.97742L37.3387 6.90712L37.3403 6.90666L36.8131 4.97742ZM81.187 4.97742L80.6597 6.90666L80.6614 6.90712L81.187 4.97742ZM99.3051 13.0971L98.2145 14.7736L98.2251 14.7804L99.3051 13.0971ZM111.521 25.1402L109.853 26.244L109.858 26.2525L111.521 25.1402ZM111.521 54.6355L109.858 53.5232L109.853 53.5317L111.521 54.6355ZM99.3051 66.6786L98.2251 64.9952L98.2145 65.002L99.3051 66.6786ZM81.187 74.7983L80.6614 72.8686L80.6597 72.869L81.187 74.7983ZM36.8131 74.7983L37.3403 72.869L37.3387 72.8686L36.8131 74.7983ZM18.6949 66.6786L19.7855 65.002L19.7749 64.9953L18.6949 66.6786ZM6.47934 54.6355L4.80779 55.7337L4.81152 55.7393L6.47934 54.6355ZM88.722 44.9834L90.6697 44.5288L89.7099 40.4169L87.1364 43.7645L88.722 44.9834ZM86.6341 54.6355L84.7365 54.0035L84.734 54.0112L86.6341 54.6355ZM80.2068 66.6786L78.6305 65.4476L78.6271 65.452L80.2068 66.6786ZM70.6738 74.7983L71.6317 76.554L71.6335 76.553L70.6738 74.7983ZM59 77.7757V75.7757V77.7757ZM47.3262 74.7983L46.3666 76.553L46.3683 76.554L47.3262 74.7983ZM37.7932 66.6786L39.3729 65.452L39.3695 65.4476L37.7932 66.6786ZM31.3659 54.6355L29.4655 55.2588L29.4659 55.2599L31.3659 54.6355ZM31.3659 25.1402L29.4659 24.5158L29.4655 24.5169L31.3659 25.1402ZM37.7932 13.0971L39.3696 14.328L39.3729 14.3237L37.7932 13.0971ZM47.3262 4.97742L46.373 3.21917L46.3666 3.22269L47.3262 4.97742ZM75.941 39.8878C75.941 49.2439 68.3563 56.8286 59.0002 56.8286V60.8286C70.5655 60.8286 79.941 51.4531 79.941 39.8878H75.941ZM59.0002 56.8286C49.6441 56.8286 42.0595 49.2439 42.0595 39.8878H38.0595C38.0595 51.4531 47.435 60.8286 59.0002 60.8286V56.8286ZM42.0595 39.8878C42.0595 30.5317 49.6441 22.9471 59.0002 22.9471V18.9471C47.435 18.9471 38.0595 28.3226 38.0595 39.8878H42.0595ZM59.0002 22.9471C68.3563 22.9471 75.941 30.5317 75.941 39.8878H79.941C79.941 28.3226 70.5655 18.9471 59.0002 18.9471V22.9471ZM59.0002 22.9471C61.4597 22.9471 63.4535 24.9409 63.4535 27.4003H67.4535C67.4535 22.7318 63.6688 18.9471 59.0002 18.9471V22.9471ZM63.4535 27.4003V52.3753H67.4535V27.4003H63.4535ZM63.4535 52.3753C63.4535 54.8348 61.4597 56.8286 59.0002 56.8286V60.8286C63.6688 60.8286 67.4535 57.0439 67.4535 52.3753H63.4535ZM59.0002 56.8286C56.5408 56.8286 54.547 54.8348 54.547 52.3753H50.547C50.547 57.0439 54.3316 60.8286 59.0002 60.8286V56.8286ZM54.547 52.3753V27.4003H50.547V52.3753H54.547ZM54.547 27.4003C54.547 24.9409 56.5408 22.9471 59.0002 22.9471V18.9471C54.3316 18.9471 50.547 22.7317 50.547 27.4003H54.547ZM41.7308 33.0975C53.081 35.8329 64.9186 35.8329 76.2688 33.0975L75.3316 29.2089C64.5974 31.7958 53.4022 31.7958 42.668 29.2089L41.7308 33.0975ZM76.2688 46.6722C64.9186 43.9368 53.081 43.9368 41.7308 46.6722L42.6679 50.5609C53.4022 47.9739 64.5974 47.9739 75.3316 50.5609L76.2688 46.6722ZM77.9405 37.8849H40.0591V41.8849H77.9405V37.8849ZM3.99993 39.9048C4.04117 35.045 5.48235 30.3001 8.15087 26.2384L4.8078 24.042C1.71705 28.7465 0.0478394 34.2421 7.20024e-05 39.8709L3.99993 39.9048ZM8.14716 26.244C11.1837 21.6558 15.144 17.7515 19.7749 14.7804L17.6149 11.4137C12.5158 14.6852 8.15512 18.9843 4.81152 24.0364L8.14716 26.244ZM19.7854 14.7736C25.1928 11.2563 31.1148 8.6024 37.3387 6.90712L36.2874 3.04773C29.663 4.85212 23.3598 7.67689 17.6044 11.4205L19.7854 14.7736ZM37.3403 6.90666C51.5201 3.03111 66.48 3.03111 80.6597 6.90666L81.7143 3.04819C66.8442 -1.01606 51.1559 -1.01606 36.2858 3.04819L37.3403 6.90666ZM80.6614 6.90712C86.8853 8.60241 92.8072 11.2564 98.2146 14.7736L100.396 11.4205C94.6402 7.6769 88.3371 4.85214 81.7127 3.04773L80.6614 6.90712ZM98.2251 14.7804C102.856 17.7514 106.816 21.6558 109.853 26.244L113.188 24.0364C109.845 18.9843 105.484 14.6852 100.385 11.4137L98.2251 14.7804ZM109.858 26.2525C112.559 30.2873 114 35.0329 114 39.8878H118C118 34.2408 116.323 28.7209 113.183 24.0279L109.858 26.2525ZM114 39.8878C114 44.7427 112.559 49.4884 109.858 53.5232L113.183 55.7478C116.323 51.0547 118 45.5348 118 39.8878H114ZM109.853 53.5317C106.816 58.1199 102.856 62.0242 98.2251 64.9952L100.385 68.3619C105.484 65.0905 109.845 60.7914 113.188 55.7393L109.853 53.5317ZM98.2145 65.002C92.8072 68.5193 86.8853 71.1733 80.6614 72.8686L81.7127 76.728C88.3371 74.9235 94.6402 72.0988 100.396 68.3551L98.2145 65.002ZM80.6597 72.869C66.48 76.7446 51.5201 76.7446 37.3403 72.869L36.2858 76.7275C51.1559 80.7918 66.8442 80.7918 81.7143 76.7275L80.6597 72.869ZM37.3387 72.8686C31.1148 71.1733 25.1928 68.5193 19.7855 65.0021L17.6044 68.3551C23.3598 72.0988 29.663 74.9236 36.2874 76.728L37.3387 72.8686ZM19.7749 64.9953C15.144 62.0242 11.1837 58.1199 8.14715 53.5317L4.81152 55.7393C8.15513 60.7914 12.5158 65.0905 17.615 68.3619L19.7749 64.9953ZM8.15087 53.5373C5.48235 49.4756 4.04117 44.7307 3.99993 39.8709L7.20024e-05 39.9048C0.0478394 45.5335 1.71705 51.0292 4.8078 55.7337L8.15087 53.5373ZM86.7329 44.7746C86.4034 47.9141 85.734 51.0085 84.7366 54.0036L88.5316 55.2675C89.6206 51.9978 90.3513 48.6196 90.7111 45.1922L86.7329 44.7746ZM84.734 54.0112C83.375 58.1471 81.31 62.0164 78.6305 65.4476L81.7831 67.9095C84.7468 64.1143 87.0309 59.8345 88.5341 55.2599L84.734 54.0112ZM78.6271 65.452C76.2083 68.5671 73.1744 71.1512 69.7142 73.0435L71.6335 76.553C75.5752 74.3973 79.0312 71.4537 81.7865 67.9052L78.6271 65.452ZM69.7159 73.0426C66.4289 74.8359 62.7444 75.7757 59 75.7757V79.7757C63.4138 79.7757 67.7571 78.6679 71.6317 76.554L69.7159 73.0426ZM59 75.7757C55.2556 75.7757 51.5711 74.8359 48.2841 73.0426L46.3683 76.554C50.243 78.6679 54.5862 79.7757 59 79.7757V75.7757ZM48.2858 73.0435C44.8256 71.1512 41.7917 68.5671 39.3729 65.452L36.2135 67.9052C38.9689 71.4537 42.4249 74.3973 46.3666 76.553L48.2858 73.0435ZM39.3695 65.4476C36.6901 62.0164 34.625 58.1471 33.266 54.0112L29.4659 55.2599C30.9691 59.8345 33.2532 64.1143 36.2169 67.9095L39.3695 65.4476ZM33.2663 54.0122C30.2567 44.8364 30.2567 34.9392 33.2663 25.7635L29.4655 24.5169C26.1903 34.5025 26.1903 45.2732 29.4655 55.2588L33.2663 54.0122ZM33.266 25.7645C34.625 21.6286 36.6901 17.7593 39.3695 14.328L36.2169 11.8661C33.2532 15.6613 30.9691 19.9412 29.4659 24.5158L33.266 25.7645ZM39.3729 14.3237C41.7917 11.2086 44.8256 8.62452 48.2859 6.73215L46.3666 3.22269C42.4249 5.37834 38.9689 8.32196 36.2135 11.8705L39.3729 14.3237ZM48.2794 6.73566C51.5732 4.95001 55.2588 4.01 59.0054 3.99999L58.9947 7.15256e-06C54.5859 0.0117882 50.249 1.11793 46.373 3.21918L48.2794 6.73566ZM80.1822 59.3736L90.3076 46.2024L87.1364 43.7645L77.0109 56.9358L80.1822 59.3736ZM86.7744 45.438L90.5507 61.6166L94.446 60.7074L90.6697 44.5288L86.7744 45.438Z" fill="white"/>
</svg>
