<svg width="150" height="150" viewBox="0 0 150 150" fill="none" xmlns="http://www.w3.org/2000/svg">
<path fill-rule="evenodd" clip-rule="evenodd" d="M70.1903 25.5234L71.0359 25.8518L98.4084 36.4795L100.254 37.1961L98.5159 38.144L72.7878 52.1752L71.9941 52.6081L71.5478 51.8218L68.2912 46.0829C64.5881 46.8664 60.971 48.0005 57.4908 49.4695L57.483 49.4728L57.4751 49.4759C54.005 50.8661 50.8487 52.9114 48.1857 55.4944L47.5636 56.0978L46.9245 55.5125L39.2472 48.4829L38.5375 47.833L39.2189 47.1536C43.0126 43.3709 47.5437 40.3772 52.5413 38.3503C57.1169 36.4166 61.8852 34.9565 66.7687 33.9936L69.8505 26.3645L70.1903 25.5234ZM71.2159 27.8945L68.2867 35.1458L68.0987 35.6111L67.6057 35.7048C62.6752 36.6416 57.8625 38.0975 53.2512 40.0469L53.2386 40.0522L53.2386 40.0521C48.764 41.866 44.683 44.4906 41.2079 47.7846L47.5365 53.5794C50.2329 51.1105 53.3659 49.1421 56.7833 47.7719C60.5789 46.1704 64.5321 44.9553 68.5806 44.1458L69.2325 44.0154L69.5606 44.5936L72.7011 50.1278L95.8972 37.4774L71.2159 27.8945ZM37.3828 51.9191L36.4434 50.2635L35.7305 52.0285L24.8901 78.8642L24.541 79.7285L25.4099 80.0658L33.195 83.0886C34.1779 87.8754 35.6672 92.5489 37.639 97.0332C39.7085 101.938 42.764 106.382 46.6222 110.101L47.2882 110.743L47.9262 110.073L55.0964 102.546L55.7183 101.894L55.0779 101.259C52.4433 98.6483 50.3591 95.556 48.9431 92.1587L48.9398 92.1507L48.9363 92.1427C47.4429 88.7421 46.2892 85.2085 45.491 81.5913L51.3352 78.4037L52.1561 77.9559L51.6947 77.1426L37.3828 51.9191ZM26.9444 78.6888L36.7227 54.4823L49.6337 77.2369L44.0077 80.3055L43.4087 80.6322L43.5477 81.3001C44.3742 85.2724 45.6145 89.1508 47.2489 92.8742C48.6439 96.2182 50.6451 99.2829 53.1523 101.921L47.2404 108.127C43.8683 104.714 41.1839 100.706 39.3308 96.312L39.3309 96.312L39.3252 96.2992C37.3379 91.7808 35.854 87.0655 34.8991 82.2353L34.8011 81.7394L34.3299 81.5564L26.9444 78.6888ZM74.9982 59.2008C74.7268 59.2008 74.4654 59.29 74.2555 59.4511C74.0459 59.612 73.9006 59.8344 73.8385 60.0806L73.8357 60.0918L73.8356 60.0918C72.7686 64.1107 71.3725 67.0611 69.1235 69.2661C66.8762 71.4693 63.8718 72.8354 59.7784 73.8799L59.7676 73.8827L59.7676 73.8826C59.505 73.9463 59.2752 74.0935 59.1128 74.2968C58.9507 74.4997 58.8645 74.7474 58.8645 75.0001C58.8645 75.2528 58.9507 75.5004 59.1128 75.7034C59.2752 75.9067 59.505 76.0539 59.7676 76.1175L59.7785 76.1202L59.7784 76.1202C63.8718 77.1649 66.8762 78.531 69.1235 80.7342C71.3725 82.9391 72.7686 85.8894 73.8356 89.9084L73.8386 89.9197L73.8385 89.9197C73.9006 90.1659 74.0459 90.3883 74.2555 90.5492C74.4654 90.7104 74.7268 90.7996 74.9982 90.7996C75.2696 90.7996 75.5311 90.7104 75.741 90.5492C75.9506 90.3883 76.0959 90.1659 76.1579 89.9197L76.1608 89.9084L76.1608 89.9084C77.2279 85.8894 78.624 82.9391 80.873 80.7342C83.1203 78.531 86.1246 77.1649 90.218 76.1202L90.2288 76.1175L90.2289 76.1175C90.4915 76.0539 90.7213 75.9067 90.8837 75.7034C91.0457 75.5004 91.1319 75.2528 91.1319 75.0001C91.1319 74.7474 91.0457 74.4997 90.8837 74.2968C90.7213 74.0935 90.4915 73.9463 90.2289 73.8826L90.218 73.88L90.218 73.8799C86.1246 72.8354 83.1203 71.4693 80.873 69.266C78.624 67.0611 77.2279 64.1107 76.1608 60.0918L76.1579 60.0806L76.158 60.0806C76.0959 59.8344 75.9506 59.612 75.741 59.4511C75.5311 59.29 75.2696 59.2008 74.9982 59.2008ZM73.1357 57.9923C73.6694 57.5826 74.3252 57.3617 74.9982 57.3617C75.6713 57.3617 76.327 57.5826 76.8608 57.9923C77.3931 58.4009 77.7742 58.9747 77.9396 59.6247C78.9657 63.4873 80.2462 66.0761 82.1605 67.9528C84.0765 69.8313 86.722 71.0894 90.6678 72.0967C91.3197 72.256 91.9021 72.625 92.3207 73.1492C92.7409 73.6753 92.971 74.3269 92.971 75.0001C92.971 75.6733 92.7409 76.3249 92.3207 76.851C91.9021 77.3752 91.3196 77.7442 90.6678 77.9035C86.722 78.9109 84.0765 80.169 82.1605 82.0474C80.2463 83.9241 78.9658 86.5127 77.9397 90.3751C77.7744 91.0253 77.3933 91.5993 76.8609 92.008C76.3272 92.4177 75.6713 92.6387 74.9982 92.6387C74.3251 92.6387 73.6693 92.4177 73.1356 92.008C72.6032 91.5993 72.2221 91.0254 72.0568 90.3752C71.0308 86.5128 69.7503 83.9241 67.836 82.0474C65.92 80.169 63.2745 78.9109 59.3286 77.9034C58.6768 77.7441 58.0944 77.3752 57.6758 76.851C57.2556 76.3249 57.0255 75.6733 57.0255 75.0001C57.0255 74.3269 57.2556 73.6753 57.6758 73.1492C58.0943 72.625 58.6768 72.256 59.3286 72.0967C63.2744 71.0894 65.92 69.8313 67.836 67.9528C69.7502 66.0761 71.0308 63.4874 72.0568 59.6248C72.2222 58.9747 72.6033 58.4009 73.1357 57.9923ZM102.432 93.9013L103.071 94.4865L110.748 101.516L111.458 102.166L110.777 102.845C106.983 106.628 102.452 109.622 97.4542 111.649C92.8787 113.582 88.1104 115.042 83.2269 116.005L80.145 123.634L79.8052 124.476L78.9596 124.147L51.5871 113.519L49.7416 112.803L51.4797 111.855L77.2077 97.8238L78.0015 97.3909L78.4477 98.1772L81.7043 103.916C85.4074 103.133 89.0246 101.999 92.5047 100.53L92.5125 100.526L92.5204 100.523C95.9905 99.1329 99.1468 97.0877 101.81 94.5046L102.432 93.9013ZM102.459 96.4196C99.7626 98.8886 96.6296 100.857 93.2122 102.227C89.4165 103.829 85.4634 105.044 81.415 105.853L80.763 105.984L80.4349 105.405L77.2944 99.8713L54.0983 112.522L78.7796 122.105L81.7089 114.853L81.8968 114.388L82.3898 114.294C87.3203 113.357 92.133 111.902 96.7444 109.952L96.7569 109.947L96.757 109.947C101.232 108.133 105.313 105.508 108.788 102.214L102.459 96.4196ZM103.376 39.8982L102.71 39.2563L102.072 39.926L94.9018 47.4527L94.2799 48.1055L94.9203 48.7401C97.5549 51.3509 99.6391 54.4432 101.055 57.8405L101.058 57.8485L101.062 57.8565C102.555 61.257 103.709 64.7907 104.507 68.4079L98.663 71.5955L97.8421 72.0433L98.3035 72.8566L112.615 98.08L113.555 99.7356L114.268 97.9707L125.108 71.1349L125.457 70.2707L124.588 69.9333L116.803 66.9105C115.82 62.1238 114.331 57.4502 112.359 52.9659C110.29 48.0616 107.234 43.6174 103.376 39.8982ZM96.8459 48.0782L102.758 41.8724C106.13 45.285 108.814 49.2934 110.667 53.6871L110.667 53.6871L110.673 53.6999C112.66 58.2184 114.144 62.9337 115.099 67.7639L115.197 68.2598L115.668 68.4427L123.054 71.3103L113.275 95.5169L100.365 72.7623L105.991 69.6937L106.589 69.367L106.45 68.6991C105.624 64.7268 104.384 60.8484 102.749 57.1249C101.354 53.7809 99.3531 50.7163 96.8459 48.0782Z" fill="white"/>
</svg>
