<svg width="246" height="246" viewBox="0 0 246 246" fill="none" xmlns="http://www.w3.org/2000/svg">
<path d="M123 3C99.2661 3 76.0652 10.038 56.3312 23.2239C36.5972 36.4099 21.2165 55.1516 12.1341 77.079C3.05171 99.0063 0.675561 123.135 5.30613 146.412C9.93671 169.69 21.366 191.072 38.1487 207.854C54.9315 224.636 76.3138 236.065 99.5918 240.695C122.87 245.324 146.998 242.947 168.925 233.864C190.852 224.781 209.593 209.4 222.778 189.665C235.964 169.931 243.001 146.73 243 122.996C242.958 91.183 230.302 60.6852 207.806 38.1906C185.311 15.696 154.813 3.04067 123 3ZM123 210.82C105.635 210.825 88.6586 205.68 74.2174 196.037C59.7762 186.394 48.5189 172.684 41.869 156.643C35.2192 140.602 33.4754 122.949 36.8583 105.917C40.2411 88.8846 48.5987 73.2379 60.874 60.9555C73.1494 48.6731 88.7913 40.3066 105.822 36.914C122.852 33.5214 140.506 35.2551 156.551 41.8957C172.596 48.5364 186.311 59.7859 195.963 74.2216C205.615 88.6572 210.769 105.631 210.774 122.996C210.75 146.272 201.496 168.589 185.042 185.053C168.588 201.516 146.276 210.783 123 210.82Z" stroke="white" stroke-width="6" stroke-miterlimit="10" stroke-linecap="round"/>
<path d="M190.546 122.821C190.563 129.775 189.501 136.691 187.398 143.32H143.324V187.39C129.983 191.586 115.676 191.586 102.335 187.39V143.32H58.2605C54.0641 129.979 54.0641 115.671 58.2605 102.331H102.335V58.2519C115.677 54.0668 129.981 54.0668 143.324 58.2519V102.331H187.398C189.5 108.957 190.562 115.869 190.546 122.821Z" stroke="white" stroke-width="6" stroke-miterlimit="10" stroke-linecap="round"/>
</svg>
