<svg width="270" height="183" viewBox="0 0 270 183" fill="none" xmlns="http://www.w3.org/2000/svg">
<path d="M92.5363 3.31417C91.9471 3.27811 91.3934 3.2781 90.8437 3.2781C91.0898 3.27211 91.3359 3.28417 91.5802 3.31417M92.5363 3.31417C92.2186 3.27808 91.8979 3.27808 91.5802 3.31417M92.5363 3.31417L91.6523 3.31414M92.5363 3.31417C92.8321 3.32033 93.1272 3.34433 93.4202 3.38595M91.5802 3.31417C91.0904 3.26609 90.5967 3.2662 90.1068 3.31429C89.6326 3.38623 89.1651 3.49674 88.7088 3.64474C88.4824 3.71489 88.2614 3.80147 88.0475 3.9038C88.0077 3.9038 88.0077 3.90381 87.9721 3.9394C87.7443 4.04779 87.5235 4.1702 87.3108 4.30591C87.057 4.41998 86.821 4.57008 86.6101 4.75156C86.406 4.87421 86.2091 5.00863 86.0206 5.15414C85.9845 5.15414 85.9488 5.19021 85.9128 5.26198C85.6901 5.44892 85.4708 5.63585 85.2478 5.8515C85.0288 6.07418 84.8058 6.29683 84.5869 6.51983C84.3675 6.73548 84.1445 6.99419 83.9256 7.2529C83.1968 8.07661 82.5436 8.96424 81.974 9.90503C81.7546 10.2359 81.5677 10.5663 81.3487 10.8968C80.9425 11.5942 80.5399 12.3272 80.134 13.1394C79.7277 13.9516 79.3255 14.7568 78.9553 15.6407C78.1039 17.5128 77.3553 19.43 76.7127 21.3837C76.3425 22.4115 76.012 23.4824 75.6812 24.582C74.9805 26.7959 74.3193 29.1459 73.73 31.6472C73.3994 32.862 73.1045 34.1559 72.8457 35.4781C72.5546 36.8007 72.2599 38.1303 72.0012 39.4889C78.7252 39.793 85.4349 39.9272 92.1302 39.8915C94.6349 39.8915 97.1362 39.8554 99.6735 39.7837C102.103 39.7502 104.532 39.6758 106.961 39.5607C107.662 38.5689 108.359 37.5767 109.096 36.6211M91.5802 3.31417L91.6523 3.31414M124.147 20.7224C127.034 18.335 130.069 16.1336 133.235 14.1315C121.017 7.40882 107.362 3.72334 93.4202 3.38595M124.147 20.7224C123.928 20.4637 123.705 20.2406 123.486 19.9819C122.785 19.1768 122.048 18.3645 121.275 17.5958C120.542 16.8193 119.766 16.0502 118.994 15.3101C118.782 15.1594 118.586 14.9885 118.408 14.7996M124.147 20.7224C118.522 25.4113 113.47 30.7478 109.096 36.6211M118.408 14.7996C117.56 14.0235 116.715 13.2901 115.831 12.6218M118.408 14.7996C117.56 14.0235 116.715 13.3262 115.831 12.6218M115.831 12.6218C115.353 12.2554 114.874 11.8888 114.394 11.5222L112.96 10.5301C111.214 9.30542 109.381 8.21009 107.475 7.2529C106.85 6.95812 106.225 6.66367 105.564 6.40468C105.01 6.14597 104.46 5.93012 103.871 5.70767C103.317 5.48467 102.768 5.30509 102.214 5.11812C101.7 4.96725 101.223 4.78767 100.705 4.67982C100.263 4.52895 99.7847 4.42115 99.3428 4.30595C98.9451 4.18851 98.539 4.10201 98.128 4.04724C97.9117 3.98227 97.6908 3.93429 97.467 3.90373C96.9529 3.79593 96.3995 3.7168 95.846 3.64466C95.5701 3.57331 95.2864 3.53707 95.0014 3.53682C94.4877 3.46508 93.9703 3.42214 93.4202 3.38595M90.84 3.29246C77.995 3.28133 65.3029 6.07924 53.6531 11.4901C42.0033 16.901 31.6776 24.7939 23.3996 34.6159M90.84 3.29246C72.8603 3.29246 56.8825 16.7476 46.6726 37.6272M90.84 3.29246C83.1025 3.29246 76.2529 17.5454 72.0124 39.4816M23.3996 34.6159C31.1766 35.8234 38.9342 36.8271 46.6726 37.6272M23.3996 34.6159C31.1741 35.833 38.9317 36.8367 46.6726 37.6272M23.3996 34.6159C14.1652 45.5113 7.7239 58.4924 4.63306 72.4363M46.6726 37.6272C41.2615 48.9728 37.7191 61.1181 36.1824 73.5937M46.6726 37.6272C55.1275 38.497 63.5742 39.1151 72.0124 39.4816M46.6726 37.6272C55.1326 38.4968 63.5792 39.1149 72.0124 39.4816M36.1824 73.5937C35.4027 79.5682 35.0126 85.5872 35.0148 91.6124C35.0124 97.6355 35.4024 103.652 36.1824 109.625M36.1824 73.5937C25.6709 73.2916 15.1544 72.9058 4.63306 72.4363M36.1824 73.5937C25.6684 73.2965 15.152 72.9107 4.63306 72.4363M36.1824 73.5937C46.7805 73.8881 57.3749 74.0965 67.9658 74.2189C68.5224 62.5612 69.8744 50.9551 72.0124 39.4816M4.63306 72.4363C1.81567 85.0628 1.81567 98.155 4.63306 110.782M4.63306 110.782C15.152 110.315 25.6684 109.929 36.1824 109.625M4.63306 110.782C7.7256 124.726 14.1652 137.709 23.3961 148.609M36.1824 109.625C37.7192 122.1 41.2618 134.245 46.673 145.591M36.1824 109.625C46.7771 109.337 57.3716 109.128 67.9659 108.999C68.5229 120.659 69.8749 132.268 72.0124 143.744M158.298 148.602C151.268 156.895 142.789 163.841 133.275 169.101C121.267 175.68 107.878 179.334 94.1929 179.767C94.4877 179.732 94.7426 179.695 95.0374 179.659C95.5708 179.627 96.1007 179.552 96.6224 179.437C97.1362 179.365 97.6859 179.257 98.2037 179.142C98.7534 179.034 99.3071 178.89 99.8207 178.775C100.345 178.663 100.861 178.517 101.366 178.337C102.214 178.078 103.062 177.819 103.871 177.489C104.46 177.266 105.01 177.05 105.564 176.792C109.259 175.205 112.715 173.11 115.831 170.567C116.715 169.906 117.524 169.209 118.368 168.44C118.555 168.253 118.774 168.066 118.994 167.85C119.766 167.146 120.542 166.413 121.275 165.636C121.865 165.011 122.454 164.386 123.044 163.724C123.41 163.322 123.78 162.919 124.147 162.474C124.736 161.813 125.286 161.116 125.839 160.375C126.281 159.822 126.724 159.276 127.126 158.686C127.568 158.097 128.01 157.471 128.452 156.846L129.336 155.516C130.623 153.569 131.874 151.542 133.016 149.407C133.714 148.156 134.378 146.906 135.004 145.583M158.298 148.602C150.495 147.402 142.73 146.396 135.004 145.583M158.298 148.602C167.699 137.028 174.272 123.421 177.496 108.862M158.298 148.602C150.496 147.388 142.731 146.381 135.004 145.583M135.004 145.583C140.417 134.244 143.959 122.103 145.49 109.632C156.016 109.926 166.266 109.167 177.496 108.862M23.3961 148.609C31.1767 147.395 38.9357 146.388 46.673 145.591M23.3961 148.609C31.6746 158.432 42.0005 166.325 53.651 171.735C65.3015 177.146 77.9942 179.944 90.8398 179.932M46.673 145.591C56.8828 166.47 72.8603 179.932 90.8398 179.932M46.673 145.591C55.1293 144.721 63.5755 144.105 72.0124 143.744M177.496 108.862C175.147 121.35 170.208 133.208 162.999 143.672C174.664 143.19 186.294 143.233 197.995 143.744C200.115 132.268 201.467 120.663 202.042 109.006M177.496 108.862C185.665 108.862 193.847 108.91 202.042 109.006M90.8398 179.932C83.1023 179.932 76.2529 165.68 72.0124 143.744M90.8398 179.932C98.5734 179.932 105.427 165.68 109.668 143.744M90.8398 179.932C108.819 179.932 124.797 166.47 135.007 145.591C126.547 144.721 118.101 144.105 109.668 143.744M109.675 143.744C118.102 144.11 126.565 144.742 134.993 145.584C140.407 134.244 143.948 122.103 145.479 109.632C143.751 109.596 142.022 109.524 140.294 109.524C140.254 109.488 140.254 109.524 140.218 109.524C136.024 109.373 131.827 109.301 127.633 109.229C122.998 109.116 118.361 109.042 113.722 109.006M109.675 143.744C111.796 132.268 113.148 120.663 113.722 109.006M109.675 143.744C108.791 143.708 107.871 143.672 106.987 143.672C104.561 143.564 102.131 143.485 99.6661 143.449C97.1255 143.377 94.5848 143.341 92.0114 143.341C85.3487 143.305 78.7255 143.449 72.0268 143.744H71.9907C71.254 139.956 70.5927 135.909 70.0392 131.676C69.4539 127.442 68.972 122.993 68.6055 118.393C68.3468 115.339 68.1263 112.21 67.9442 109.006M113.722 109.006C106.656 108.934 99.5546 108.862 92.4894 108.863C84.3208 108.863 76.1848 108.899 67.9802 109.006M72.0124 143.744C84.5594 143.19 97.1111 143.19 109.668 143.744M67.5022 91.5981C67.5022 97.5637 67.6855 103.378 67.9802 109.006M67.5022 91.5981C67.5022 89.6146 67.5022 87.6237 67.574 85.6398C67.6111 83.2103 67.6855 80.8168 67.797 78.4594M67.5022 91.5981C67.5022 97.5638 67.6494 103.379 67.9442 109.006M67.9802 109.006H67.9442M67.9442 109.006C57.3461 109.114 46.7842 109.337 36.1862 109.632C34.6145 97.6752 34.6145 85.5645 36.1862 73.6081C46.7842 73.9025 57.3461 74.0824 67.9442 74.2333M67.9442 74.2333H67.9802M67.9442 74.2333C67.8688 75.6276 67.797 77.029 67.797 78.4594M67.9442 74.2333C68.1274 71.0276 68.3468 67.901 68.6055 64.8101C68.972 60.2462 69.4537 55.7901 70.0392 51.5636C70.5927 47.3302 71.254 43.3197 71.9907 39.4888H72.0268C78.7615 39.7836 85.4242 39.9344 92.1192 39.8984C94.6242 39.8984 97.1255 39.8623 99.6661 39.7837C102.092 39.7476 104.52 39.6758 106.951 39.5681C99.7442 50.0293 94.8172 61.8886 92.4894 74.3767M67.9802 74.2333C67.9048 75.6276 67.8327 77.029 67.797 78.4594M67.9802 74.2333C76.1848 74.3412 84.3209 74.3767 92.4894 74.3767M109.096 36.6211C104.938 17.0423 98.6814 4.19808 91.6523 3.31414M92.4894 74.3767C103.645 74.2188 113.328 73.6079 124.506 73.6079M92.4894 74.3767C95.7417 59.8239 102.316 46.2207 111.698 34.6302M223.327 37.6272C231.065 36.8294 238.822 35.8256 246.6 34.6159M223.327 37.6272C213.117 16.7476 197.136 3.29246 179.16 3.29246M223.327 37.6272C228.737 48.9733 232.279 61.1184 233.817 73.5937M223.327 37.6272C214.867 38.4968 206.421 39.1149 197.988 39.4816M223.327 37.6272C214.872 38.497 206.426 39.1151 197.988 39.4816M246.6 34.6159C238.322 24.7939 227.996 16.901 216.347 11.4901C204.697 6.07925 192.005 3.28134 179.16 3.29246M246.6 34.6159C255.834 45.5115 262.274 58.4926 265.363 72.4363M179.16 3.29246C171.422 3.29246 164.573 17.5454 160.332 39.4816M179.16 3.29246C161.18 3.29246 145.203 16.7476 134.993 37.6272C143.453 38.4968 151.899 39.1149 160.332 39.4816M179.16 3.29246C186.893 3.29246 193.747 17.5454 197.988 39.4816M134.993 37.6128C135.618 36.2903 136.279 35.0398 136.98 33.789C138.182 31.5648 139.497 29.4035 140.919 27.3133C141.174 26.9394 141.397 26.5729 141.652 26.2424C142.169 25.4733 142.719 24.6968 143.273 23.9637C143.639 23.5181 143.974 23.0437 144.34 22.5981C146.321 20.0635 148.498 17.689 150.852 15.4968C151.147 15.2026 151.481 14.9076 151.772 14.6489C151.883 14.5411 151.959 14.469 152.031 14.3902C152.731 13.7646 153.393 13.1824 154.129 12.629C156.661 10.6052 159.399 8.85377 162.298 7.40373C162.74 7.18108 163.218 6.95808 163.696 6.74244C164.281 6.44717 164.884 6.188 165.5 5.96635C166.237 5.67157 166.934 5.37679 167.671 5.15414C168.591 4.8594 169.475 4.60805 170.359 4.38505C170.689 4.31327 171.056 4.19811 171.426 4.12634C172.602 3.85631 173.794 3.65941 174.995 3.53678L175.987 3.42898H175.803C162.126 3.86425 148.746 7.53435 136.761 14.1385C127.22 19.3733 118.724 26.3196 111.698 34.6302M134.993 37.6128C127.227 36.8437 119.5 35.8089 111.698 34.6302M134.993 37.6128C129.578 48.9668 126.037 61.1223 124.506 73.6079M134.993 37.6128C143.456 38.4965 151.847 39.1224 160.311 39.4889M124.506 73.6079C127.338 73.6796 130.134 73.7517 132.934 73.7878C133.226 73.8178 133.52 73.8299 133.814 73.8238H133.889C135.323 73.8594 136.761 73.9024 138.159 73.9385H139.151C144.856 74.0559 150.561 74.1542 156.264 74.2333M233.817 109.625C234.597 103.652 234.988 97.6355 234.985 91.6124C234.987 85.5872 234.597 79.5682 233.817 73.5937M233.817 109.625C244.329 109.926 254.844 110.312 265.363 110.782M233.817 109.625C232.279 122.1 228.736 134.245 223.327 145.591M233.817 109.625C244.333 109.929 254.848 110.315 265.363 110.782M233.817 109.625C223.219 109.33 212.625 109.121 202.034 108.999C201.475 120.659 200.123 132.267 197.988 143.744M265.363 110.782C268.186 98.1556 268.186 85.0623 265.363 72.4363M265.363 110.782C262.274 124.727 255.835 137.71 246.604 148.609M265.363 72.4363C254.848 72.9107 244.333 73.2965 233.817 73.5937M265.363 72.4363C254.844 72.9058 244.329 73.2916 233.817 73.5937M233.817 73.5937C223.223 73.8883 212.629 74.0967 202.034 74.219C201.476 62.5614 200.124 50.9554 197.988 39.4816M179.16 179.932C192.005 179.943 204.698 177.145 216.348 171.734C227.999 166.324 238.325 158.431 246.604 148.609M179.16 179.932C197.139 179.932 213.117 166.47 223.327 145.591M179.16 179.932C186.894 179.932 193.747 165.68 197.988 143.744M246.604 148.609C238.824 147.402 231.065 146.396 223.327 145.591M246.604 148.609C238.827 147.395 231.068 146.388 223.327 145.591M223.327 145.591C214.872 144.726 206.426 144.11 197.988 143.744M223.327 145.591C214.867 144.721 206.421 144.105 197.988 143.744M175.814 179.767C162.129 179.334 148.74 175.68 136.732 169.101C139.91 167.084 142.958 164.871 145.86 162.474M175.814 179.767C175.519 179.731 175.261 179.695 174.966 179.659C174.434 179.626 173.905 179.552 173.384 179.437C172.317 179.257 171.286 179.034 170.222 178.775C169.762 178.678 169.307 178.556 168.86 178.409C168.088 178.186 167.315 177.927 166.578 177.64C166.136 177.489 165.73 177.345 165.288 177.158C163.769 176.564 162.294 175.863 160.875 175.059C159.879 174.506 158.888 173.917 157.928 173.291C156.936 172.63 155.98 171.969 155.06 171.272C154.241 170.677 153.454 170.039 152.703 169.36C152.456 169.181 152.223 168.984 152.006 168.77C150.938 167.85 149.907 166.851 148.875 165.788C148.581 165.493 148.326 165.198 148.031 164.904C147.808 164.681 147.589 164.422 147.366 164.17C146.852 163.617 146.374 163.064 145.86 162.474M175.814 179.767C176.368 179.81 176.917 179.846 177.471 179.882M145.86 162.474C151.5 157.801 156.554 152.463 160.911 146.576M177.471 179.882C178.06 179.918 178.61 179.918 179.164 179.918C178.918 179.924 178.672 179.912 178.427 179.882M177.471 179.882C177.789 179.918 178.109 179.918 178.427 179.882M177.471 179.882L178.355 179.882M178.427 179.882C178.917 179.93 179.41 179.93 179.9 179.882C180.374 179.81 180.842 179.699 181.298 179.551C181.524 179.481 181.745 179.394 181.959 179.293C181.995 179.293 181.995 179.292 182.035 179.256C182.254 179.142 182.473 179.034 182.696 178.89C182.949 178.777 183.184 178.627 183.393 178.444C183.598 178.323 183.795 178.189 183.983 178.042C184.022 178.042 184.058 178.006 184.094 177.927C184.5 177.596 184.903 177.23 185.273 176.863C185.341 176.819 185.393 176.753 185.42 176.676C185.639 176.461 185.862 176.202 186.081 175.943C186.808 175.118 187.461 174.231 188.033 173.291C188.252 172.96 188.435 172.63 188.658 172.299C188.841 171.933 189.061 171.566 189.284 171.2C189.503 170.826 189.686 170.459 189.873 170.057C190.276 169.281 190.681 168.44 191.048 167.556C191.454 166.708 191.821 165.788 192.191 164.832C192.557 163.876 192.928 162.877 193.294 161.849C193.661 160.821 193.995 159.75 194.326 158.65C194.545 157.982 194.768 157.285 194.951 156.588C195.17 155.89 195.353 155.15 195.576 154.417C195.795 153.497 196.054 152.541 196.274 151.585C196.608 150.37 196.902 149.077 197.157 147.754C197.452 146.468 197.747 145.102 198.006 143.744C186.301 143.226 174.675 143.19 163.006 143.671C162.345 144.663 161.648 145.62 160.911 146.576M178.427 179.882L178.355 179.882M197.988 39.4816C185.441 40.035 172.889 40.035 160.332 39.4816M160.311 39.4889C158.19 50.9674 156.838 62.5747 156.264 74.2333M160.311 39.4889H160.347C161.267 39.5245 162.114 39.568 163.035 39.568C165.464 39.6758 167.892 39.7477 170.319 39.7837C172.86 39.8624 175.361 39.8983 177.866 39.8983C184.561 39.9344 191.26 39.7837 197.994 39.4888C200.115 50.9673 201.467 62.5745 202.042 74.2332M156.264 74.2333C163.329 74.305 170.431 74.3768 177.496 74.3768C185.655 74.3889 193.837 74.341 202.042 74.2332M202.042 109.006C212.639 109.114 223.202 109.337 233.799 109.632C234.588 103.653 234.982 97.6286 234.978 91.5981C234.981 85.582 234.587 79.5722 233.799 73.6079C223.202 73.9023 212.639 74.0822 202.042 74.2332M202.042 109.006C202.336 103.378 202.483 97.5637 202.483 91.598C202.483 88.6224 202.447 85.7115 202.372 82.808V82.7645C202.3 79.8967 202.189 77.0288 202.042 74.2332M178.355 179.882C171.326 178.998 165.069 166.154 160.911 146.576M91.5801 179.882C91.8978 179.918 92.2185 179.918 92.5361 179.882C91.9469 179.918 91.3935 179.918 90.8436 179.918C91.0896 179.924 91.3357 179.912 91.5801 179.882ZM179.164 3.2781C178.918 3.27211 178.671 3.28417 178.427 3.31417C178.109 3.27808 177.789 3.27808 177.471 3.31417C178.06 3.27811 178.61 3.2781 179.164 3.2781ZM202.429 90.1754V90.1379C202.483 90.1007 202.429 90.0704 202.429 90.0704V89.8908C199.388 81.8416 161.99 75.2766 141.351 74.0248C140.951 73.9949 140.562 73.9949 140.166 73.95H139.832C137.696 73.9201 135.498 73.8825 133.307 73.8525H133.195C132.74 73.8525 132.29 73.8825 131.847 73.8825C111.713 74.5869 68.7375 81.7367 67.5024 90.52V91.4271C68.9082 99.0938 102.147 105.479 123.745 107.398C130.154 107.473 136.57 107.54 142.978 107.682C143.036 107.682 143.036 107.645 143.091 107.682C164.072 106.146 199.613 99.7307 202.429 91.9141V91.7717C202.483 91.7418 202.429 91.7041 202.429 91.7041V91.5319C202.483 91.5019 202.429 91.4643 202.429 91.4643V91.4271C202.429 91.3895 202.429 91.3895 202.483 91.3596V90.3101C202.484 90.2803 202.429 90.2051 202.429 90.1754ZM144.164 91.5318C144.135 93.9431 143.156 96.2457 141.441 97.9405C139.726 99.6352 137.411 100.586 135 100.586C132.588 100.586 130.274 99.6352 128.559 97.9405C126.843 96.2457 125.865 93.9431 125.836 91.5318C125.806 91.2004 125.794 90.8676 125.8 90.5349C125.794 90.2796 125.806 90.0242 125.836 89.7706C125.962 87.5663 126.876 85.4808 128.412 83.8951C128.948 83.2612 129.581 82.7171 130.289 82.2835C130.641 82.0629 131.01 81.8701 131.392 81.7068C131.955 81.4444 132.549 81.253 133.16 81.1369C134.373 80.8771 135.627 80.8771 136.84 81.1369C137.451 81.2529 138.044 81.4443 138.608 81.7068C138.99 81.87 139.359 82.0628 139.711 82.2835C140.419 82.7171 141.052 83.2612 141.587 83.8951C143.124 85.4807 144.038 87.5662 144.164 89.7706C144.194 90.0242 144.206 90.2796 144.2 90.5349C144.206 90.8676 144.194 91.2004 144.164 91.5318Z" stroke="white" stroke-width="5" stroke-linecap="round" stroke-linejoin="round"/>
</svg>
