<svg width="84" height="141" viewBox="0 0 84 141" fill="none" xmlns="http://www.w3.org/2000/svg">
<path d="M34.0689 117.979C23.611 116.483 12.5594 106.822 7.3698 98.0014C4.19973 92.6237 2.40886 86.5454 2.15668 80.308C1.83679 77.1578 2.0074 73.9771 2.66243 70.8792C6.11784 71.7646 8.81224 75.4023 12.3548 75.863C12.9713 71.7592 9.63188 67.5018 8.3924 63.7847C7.19036 60.1977 6.75068 56.3992 7.10155 52.6325C7.45241 48.8658 8.58608 45.2138 10.4299 41.9106C9.43724 43.676 11.5001 47.975 12.4011 49.5336C13.7083 51.7924 17.9676 55.8844 20.384 52.8196C21.9776 50.799 21.4946 47.0727 20.9048 44.7735C20.1818 42.5165 19.5958 40.2178 19.1497 37.8902C18.2736 31.2554 21.0402 25.4734 22.1371 19.1407C22.4008 17.1044 22.451 15.0461 22.2869 12.9993C22.0326 9.02981 20.6281 5.22022 18.245 2.03557C20.6946 1.667 23.6292 4.24361 24.995 6.0261C27.6821 9.14762 29.4934 12.9258 30.2445 16.9756C30.5003 20.7539 31.146 24.4956 32.1713 28.1411C34.7355 35.3618 42.5336 34.7146 46.8724 29.6735C44.9305 31.9298 44.4637 36.0921 44.3127 38.9447C43.9841 43.0994 45.1757 47.2319 47.6659 50.5737C49.1652 52.4123 51.2913 53.6317 53.6354 53.9973C55.9795 54.3628 58.3759 53.8488 60.3639 52.5541C62.1432 51.2778 63.5846 49.5869 64.5632 47.628C65.5418 45.6691 66.028 43.5011 65.9799 41.3119C68.4206 43.9035 70.0452 47.1557 70.6513 50.6638C71.2552 56.4247 70.6527 62.2484 68.882 67.7637C67.7821 70.7998 67.1546 73.9868 67.0214 77.2132C67.7061 73.52 69.6624 70.1831 72.5509 67.7819C74.2215 66.8378 76.0287 66.1592 77.9078 65.7703C79.4267 65.2654 80.7924 64.3828 81.8768 63.2054C82.6411 65.2366 79.6276 67.9681 78.9552 69.8454C76.9879 75.337 77.9722 81.4303 77.9182 87.1341C77.855 93.7375 76.8506 100.643 72.9655 106.167C68.0077 113.217 59.4604 116.88 51.2542 118.518C55.1444 116.927 56.9385 112.843 58.3472 109.206C60.1671 104.788 61.2775 100.109 61.6373 95.3442C61.7754 92.2008 61.6266 89.0514 61.1926 85.935C60.5292 88.2212 57.3877 92.7429 54.4388 91.6337C52.0653 90.7406 51.881 86.8243 52.53 84.8322C53.1487 82.8855 53.9906 81.017 55.0388 79.2638C56.7059 76.6975 57.6347 73.722 57.7235 70.6631C57.7021 68.1282 55.8116 65.9577 56.7191 63.4384C54.3137 64.4085 54.8358 67.8899 53.7715 69.7842C53.467 70.3604 52.9769 70.817 52.3806 71.0801C51.7843 71.3431 51.1167 71.3972 50.4858 71.2336C49.8549 71.0701 49.2977 70.6984 48.9043 70.1788C48.5109 69.6591 48.3044 69.022 48.3182 68.3704C48.4256 65.4097 50.0375 62.1235 47.209 59.6927C46.8262 64.3095 42.8376 68.0018 42.9183 72.6211C42.9815 76.2614 44.6903 79.7221 45.0125 83.3493C45.3277 86.8854 44.314 91.5334 39.6126 91.1414C35.7726 90.8212 34.0488 85.2436 33.4291 82.0942C32.8224 79.0098 33.4095 75.9477 32.3784 72.8944C32.4129 74.3787 31.1871 78.4188 29.1021 77.4175C28.0769 76.3593 27.3541 75.0456 27.0091 73.6131C26.625 74.4781 26.4432 75.4193 26.4778 76.365C26.5123 77.3108 26.7621 78.2362 27.2082 79.0709C28.2316 80.9562 29.8871 82.4768 30.7535 84.4506C31.6279 86.2224 31.9118 88.2278 31.5634 90.1727C30.9832 91.6452 30.1561 93.0079 29.1177 94.2022C27.843 95.3611 26.4018 94.9248 25.1863 93.7257C23.0402 91.61 23.3722 87.2081 23.861 84.4427C23.0857 88.8265 21.0618 92.6699 21.0801 97.2215C21.0217 103.024 22.9124 108.677 26.4493 113.277C28.2954 115.441 30.7309 117.021 33.459 117.825M4.01067 129.653H80.026V139.188H4.01067V129.653Z" stroke="#5257F7" stroke-width="3" stroke-linejoin="round"/>
</svg>
