<svg width="150" height="150" viewBox="0 0 150 150" fill="none" xmlns="http://www.w3.org/2000/svg">
<path fill-rule="evenodd" clip-rule="evenodd" d="M72.0089 27.4704L71.0998 25.9141L70.4458 27.5936L62.5756 47.8059L64.1982 48.4377L70.6889 31.7683L73.9643 72.9968L41.9481 46.1448L59.4597 50.8092L59.9079 49.1266L38.6126 43.4544L36.8308 42.9798L37.5965 44.6572L46.6099 64.4042L48.1939 63.6811L40.7796 47.4374L72.803 74.2955L30.8256 77.5008L46.5422 68.6758L45.6897 67.1575L26.5406 77.9098L24.9062 78.8275L26.6617 79.4844L47.2784 87.1992L47.8887 85.5684L30.9672 79.2363L72.9424 76.0312L45.5394 107.435L50.3033 90.2474L48.6253 89.7823L42.8386 110.66L42.349 112.426L44.0273 111.69L64.1705 102.853L63.4709 101.258L46.8944 108.53L74.2928 77.132L77.5678 118.355L68.5257 102.878L67.0221 103.756L77.9897 122.53L78.8988 124.086L79.5527 122.406L87.4219 102.194L85.7993 101.562L79.3055 118.242L76.0292 77.0013L108.051 103.858L90.5366 99.1927L90.0884 100.875L111.384 106.548L113.165 107.022L112.4 105.345L103.386 85.5968L101.802 86.3198L109.216 102.562L77.195 75.7065L119.172 72.5012L103.456 81.3251L104.308 82.8435L123.457 72.0921L125.092 71.1745L123.336 70.5175L102.72 62.8017L102.109 64.4325L119.031 70.7656L77.051 73.9711L104.458 42.5634L99.6932 59.7553L101.371 60.2203L107.157 39.3428L107.646 37.5768L105.968 38.313L85.825 47.1496L86.5246 48.7442L103.097 41.474L75.7009 72.8699L72.4251 31.6353L81.4718 47.1231L82.9754 46.2449L72.0089 27.4704Z" fill="white"/>
</svg>
