<svg width="450" height="179" viewBox="0 0 450 179" fill="none" xmlns="http://www.w3.org/2000/svg">
<path d="M101.823 2.91679C87.5312 2.72137 73.3524 5.47464 60.1722 11.0047C46.9919 16.5347 35.0933 24.7228 25.2194 35.0575M101.823 2.91679C81.0703 2.91679 62.7251 17.373 51.5603 39.4958M101.823 2.91679C93.1774 2.91679 85.5749 18.5916 81.1766 42.2884M101.823 2.91679C110.469 2.91679 118.072 18.5916 122.47 42.2884M25.2194 35.0575C34.0192 36.8387 42.7995 38.3182 51.5603 39.4958M25.2194 35.0575C34.0173 36.8456 42.7976 38.325 51.5603 39.4958M25.2194 35.0575C17.8553 42.9777 12.0896 52.2451 8.23877 62.3511M51.5603 39.4958C47.5719 47.4849 44.6286 55.9543 42.803 64.695M51.5603 39.4958C61.443 40.8158 71.3149 41.7467 81.1766 42.2884M8.23877 62.3511C19.7646 63.3068 31.286 64.0881 42.803 64.695M8.23877 62.3511C4.94132 71.0568 3.24781 80.2878 3.24023 89.5971M42.803 64.695C41.0698 72.8821 40.2005 81.2285 40.2095 89.5971M42.803 64.695C54.5747 65.3152 66.343 65.7487 78.108 65.9955M165.741 64.4163L165.683 64.6977M165.741 64.4163C164.905 64.4694 164.108 64.5199 163.291 64.5544M165.741 64.4163C166.237 62.1599 166.776 59.9514 167.395 57.7801M165.683 64.6977C164.884 64.6605 164.087 64.6101 163.291 64.5544M165.683 64.6977C165.481 65.5895 165.303 66.5002 165.144 67.3947C164.963 68.3556 164.804 69.3351 164.645 70.3175M165.683 64.6977C165.303 66.5504 164.945 68.4087 164.645 70.3175M165.683 64.6977C168.629 64.8542 171.554 64.9951 174.504 65.1171C177.171 65.2391 179.839 65.3454 182.531 65.449C183.407 65.4835 184.283 65.5205 185.159 65.5365C187.49 65.624 189.818 65.7143 192.169 65.7648C193.664 65.8151 195.134 65.8524 196.629 65.8896C198.084 65.9242 199.537 65.9578 200.99 65.9905M163.291 64.5544H163.251C162.433 64.5199 161.619 64.4694 160.78 64.4163C158.911 64.3104 157.037 64.2065 155.147 64.0818C152.893 63.9412 150.645 63.8004 148.412 63.6465C145.527 63.4555 142.639 63.2589 139.769 63.0333C136.881 62.8211 134 62.5936 131.126 62.3511M163.649 78.0419C163.631 78.1455 163.631 78.2677 163.609 78.3736C163.551 78.9683 163.509 79.5628 163.471 80.1575M163.649 78.0419C163.57 78.74 163.508 79.4407 163.471 80.1575M163.649 78.0419C163.71 77.373 163.769 76.728 163.848 76.0775M163.471 80.1575C163.429 80.5425 163.393 80.9272 163.371 81.3333C163.331 81.9438 163.291 82.5572 163.27 83.1731M164.265 72.8045C164.207 73.1179 164.167 73.4522 164.127 73.7681C164.029 74.5379 163.928 75.3077 163.848 76.0775M164.265 72.8045C164.108 73.8901 163.968 74.9758 163.848 76.0775M164.265 72.8045C164.387 71.9817 164.507 71.1402 164.645 70.3175M164.265 72.8045C164.345 72.1726 164.425 71.5595 164.528 70.9463C164.565 70.7395 164.607 70.5269 164.645 70.3175M200.414 89.5971H200.056M200.414 89.5971C200.414 87.354 200.313 85.1479 200.135 82.9581M200.414 89.5971C200.414 91.8374 200.313 94.046 200.135 96.2358M200.056 89.5971C200.056 87.354 200.074 85.1479 200.135 82.9581M200.056 89.5971C200.056 91.8374 200.074 94.046 200.135 96.2358M200.056 89.5971H163.429M200.056 89.5971H249.347M200.135 82.9581L200.135 82.8016C200.273 77.0255 200.555 71.403 200.99 65.9905M165.741 114.777C164.963 114.725 164.188 114.674 163.429 114.637M165.741 114.777L165.683 114.496M165.741 114.777C166.237 117.034 166.776 119.242 167.395 121.414C167.692 122.499 168.01 123.569 168.35 124.634C169.009 126.739 169.725 128.788 170.501 130.781C170.899 131.817 171.297 132.831 171.735 133.829L171.756 133.898C172.592 135.897 173.49 137.821 174.443 139.695M163.429 114.637C163.614 114.616 163.8 114.604 163.986 114.602C164.188 114.584 164.366 114.565 164.547 114.565C164.945 114.533 165.303 114.515 165.683 114.496M163.429 114.637H163.232C163.166 114.634 163.098 114.64 163.033 114.655C162.354 114.674 161.658 114.708 160.96 114.759C160.902 114.759 160.841 114.777 160.78 114.777M165.683 114.496C165.242 112.45 164.865 110.366 164.527 108.245C164.387 107.319 164.246 106.373 164.126 105.426C164.028 104.656 163.927 103.886 163.847 103.117C163.768 102.45 163.71 101.821 163.649 101.152C163.63 101.049 163.63 100.926 163.609 100.82C163.551 100.207 163.508 99.5967 163.45 98.9835C163.37 98.0011 163.312 97.0216 163.27 96.0235M165.683 114.496C168.25 114.355 170.819 114.233 173.389 114.114M200.135 96.2358L200.136 96.3048C200.255 102.118 200.555 107.757 200.99 113.185M3.24023 89.5971H40.2095M3.24023 89.5971C3.24823 98.9051 4.94078 108.135 8.23606 116.84M40.2095 89.5971C40.2007 97.9629 41.0699 106.307 42.803 114.491M40.2095 89.5971L77.1789 89.597M163.27 21.814C158.15 25.4089 153.394 29.496 149.071 34.0169M163.27 21.814C145.213 9.36221 123.764 2.76491 101.831 2.91678M163.27 21.814C181.326 9.35968 202.777 2.76217 224.711 2.9168M149.071 34.0169C137.778 15.0184 120.811 2.91678 101.831 2.91678M149.071 34.0169C149.35 34.4736 149.628 34.946 149.886 35.4M149.071 34.0169C148.734 34.3513 148.412 34.7017 148.097 35.0496M101.831 2.91678C110.474 2.91678 118.064 18.5889 122.465 42.283M8.23606 116.84C19.7618 115.879 31.2842 115.096 42.803 114.491M8.23606 116.84C12.0872 126.946 17.853 136.213 25.217 144.134M42.803 114.491C44.6291 123.232 47.5724 131.702 51.5603 139.693M42.803 114.491C54.5722 113.873 66.3406 113.44 78.1083 113.19M163.27 157.364C145.219 169.83 123.767 176.434 101.831 176.277M163.27 157.364C158.143 153.779 153.386 149.691 149.071 145.161M163.27 157.364C181.321 169.83 202.774 176.434 224.711 176.277M101.831 176.277C120.83 176.277 137.8 164.175 149.071 145.161M101.831 176.277C110.474 176.277 118.063 160.605 122.465 136.892M149.071 145.161C148.734 144.827 148.412 144.476 148.097 144.126M51.5603 139.693C42.7976 140.866 34.0165 142.346 25.217 144.134M51.5603 139.693C62.7224 161.821 81.0676 176.277 101.823 176.277M51.5603 139.693C61.4457 138.376 71.3179 137.445 81.1768 136.9M25.217 144.134C35.091 154.469 46.9899 162.658 60.1706 168.188C73.3512 173.719 87.5307 176.472 101.823 176.277M101.823 176.277C93.175 176.277 85.5752 160.6 81.1768 136.9M101.823 176.277C110.472 176.277 118.072 160.6 122.47 136.903M129.892 65.8896C128.064 71.489 126.894 77.2821 126.407 83.1519M129.892 65.8896C128.439 65.9249 126.985 65.9586 125.53 65.9905M129.892 65.8896C130.272 64.6977 130.688 63.5245 131.126 62.3511M126.407 83.1519C126.327 79.2469 126.168 75.4305 125.929 71.7028C125.889 70.8058 125.831 69.9324 125.772 69.0563C125.693 68.0237 125.613 67.0071 125.53 65.9905M126.407 83.1519V83.5208M125.53 65.9905C124.923 58.0399 123.899 50.1266 122.465 42.283M125.53 65.9905C109.733 66.3248 93.9237 66.3298 78.108 65.9955M163.429 89.5971H163.092M163.429 89.5971C163.429 87.4255 163.37 85.2887 163.27 83.1731M163.429 89.5971C163.429 91.7683 163.37 93.9052 163.27 96.0235M163.092 89.5971C163.092 87.4258 163.153 85.2887 163.27 83.1731M163.092 89.5971C163.092 91.7683 163.153 93.9052 163.27 96.0235M163.092 89.5971H126.468M143.435 138.644C142.618 138.557 141.784 138.472 140.967 138.381C139.812 138.259 138.657 138.137 137.481 138.015M143.435 138.644C138.245 132.044 134.088 124.693 131.108 116.843M143.435 138.644C144.909 140.537 146.461 142.358 148.097 144.126M137.481 138.015C132.462 137.543 127.456 137.168 122.465 136.892M137.481 138.015C132.469 137.548 127.463 137.174 122.465 136.892M122.465 136.892C123.902 129.049 124.925 121.136 125.53 113.185M125.53 113.185L129.873 113.288M125.53 113.185C125.613 112.203 125.693 111.205 125.772 110.191C125.831 109.296 125.889 108.404 125.929 107.491C126.168 103.761 126.327 99.945 126.407 96.042M125.53 113.185C109.718 112.853 93.9089 112.858 78.1083 113.19M129.873 113.288C130.253 114.48 130.67 115.669 131.108 116.843M129.873 113.288C128.06 107.692 126.897 101.905 126.407 96.042M131.108 116.843C136.226 116.423 141.343 116.02 146.461 115.67H146.581C148.595 115.529 150.586 115.394 152.596 115.269C153.076 115.234 153.573 115.197 154.048 115.181M143.435 40.5469C138.241 47.1423 134.089 54.496 131.126 62.3511M143.435 40.5469C139.73 40.9532 136.027 41.3194 132.324 41.6168C130.768 41.7388 129.234 41.8452 127.702 41.9511C125.95 42.0734 124.216 42.1767 122.465 42.283M143.435 40.5469C144.907 38.6524 146.461 36.82 148.097 35.0496M78.108 65.9955C77.5079 73.5052 77.1789 81.4104 77.1789 89.597M78.108 65.9955C78.7247 58.0458 79.7487 50.1331 81.1766 42.2884M78.108 65.9955C77.5108 73.5103 77.1789 81.4184 77.1789 89.597M78.108 65.9955C93.9182 66.3302 109.728 66.3302 125.539 65.9955C124.922 58.0459 123.898 50.1332 122.47 42.2884M77.1789 89.597C77.1789 97.778 77.5082 105.689 78.1083 113.19M77.1789 89.597L126.468 89.5971M81.1768 136.9C79.7487 129.055 78.7245 121.141 78.1083 113.19M81.1768 136.9C94.931 136.143 108.716 136.144 122.47 136.903M78.1083 113.19C93.9184 112.856 109.728 112.856 125.539 113.19C124.922 121.142 123.898 129.056 122.47 136.903M81.1766 42.2884C94.9307 43.045 108.716 43.045 122.47 42.2884M148.097 144.126C148.694 144.004 149.291 143.882 149.886 143.775C154.348 142.881 158.809 142.081 163.27 141.376C166.994 140.747 170.719 140.186 174.443 139.695M149.886 35.4C149.291 35.2964 148.694 35.1743 148.097 35.0496M149.886 35.4C154.349 36.2927 158.81 37.0988 163.27 37.8181C166.994 38.4472 170.718 39.0073 174.443 39.4985M126.407 96.042V95.6731M126.468 89.5971C126.468 87.5476 126.447 85.517 126.407 83.5208M126.468 89.5971C126.468 91.6463 126.447 93.6768 126.407 95.6731M126.468 89.5971H126.128M126.407 83.5208C126.229 85.5326 126.128 87.5476 126.128 89.5971M126.407 95.6731C126.229 93.6768 126.128 91.6463 126.128 89.5971M224.711 2.9168C205.71 2.9168 188.742 15.0185 177.45 34.0169C177.171 34.4737 176.893 34.946 176.635 35.4C175.876 36.7297 175.141 38.097 174.443 39.4985M224.711 2.9168C243.829 2.9168 260.897 15.1751 272.189 34.4046C272.349 34.6833 272.508 34.9806 272.688 35.2592C273.464 36.6449 274.223 38.0437 274.958 39.4985M224.711 2.9168C246.771 2.76193 268.339 9.44216 286.449 22.0397M224.711 2.9168C216.047 2.9168 208.46 18.5889 204.059 42.283M224.711 2.9168C233.354 2.9168 240.941 18.5889 245.344 42.283M174.443 39.4985C173.489 41.3724 172.592 43.3157 171.756 45.2959C170.92 47.2734 170.121 49.3069 169.404 51.388C169.027 52.4391 168.688 53.4902 168.35 54.5601M174.443 39.4985C177.331 39.8834 180.198 40.2338 183.086 40.5469C190.078 41.3194 197.069 41.8981 204.059 42.283M168.35 54.5601C168.011 55.6085 167.692 56.6945 167.395 57.7801M168.35 54.5601C168.01 55.6246 167.692 56.6945 167.395 57.7801M301.307 35.0496C300.927 35.1187 300.569 35.2089 300.189 35.2592M301.307 35.0496C301.107 34.8425 300.908 34.6141 300.688 34.4046M301.307 35.0496C302.918 36.7987 304.453 38.6038 305.929 40.4776M300.189 35.2592C295.61 36.1882 291.03 37.0235 286.449 37.7651M300.189 35.2592C295.611 36.1972 291.031 37.0325 286.449 37.7651M286.449 37.7651C282.606 38.4128 278.775 38.9907 274.958 39.4985M274.958 39.4985C272.29 39.849 269.62 40.1807 266.952 40.4778C266.615 40.5124 266.256 40.5469 265.914 40.5842C264.481 40.7434 263.047 40.9 261.614 41.0381H261.513C259.823 41.2141 258.131 41.3725 256.437 41.5132C256.337 41.5132 256.238 41.5292 256.138 41.5292C254.565 41.6689 252.992 41.7918 251.418 41.8981C250.622 41.9511 249.825 42.0018 249.047 42.0547C247.813 42.1422 246.579 42.214 245.344 42.283M274.958 39.4985C275.914 41.3724 276.81 43.2988 277.647 45.2775C278.104 46.3817 278.563 47.5017 278.98 48.622C279.16 49.076 279.338 49.5166 279.479 49.9706C279.5 50.0396 279.54 50.1114 279.558 50.1804C279.797 50.7937 280.015 51.4066 280.216 52.0358L280.235 52.1076C280.296 52.2642 280.333 52.4208 280.394 52.58C280.492 52.8241 280.572 53.0685 280.654 53.3153C281.013 54.417 281.371 55.5211 281.69 56.6601C281.741 56.809 281.78 56.9616 281.809 57.1165C281.846 57.2361 281.867 57.3421 281.907 57.4644C282.247 58.6403 282.565 59.8295 282.865 61.0399C283.141 62.1388 283.402 63.2591 283.64 64.382C283.679 64.4839 283.706 64.5898 283.72 64.6977M286.449 22.0397C291.594 25.679 296.364 29.8211 300.688 34.4046M286.449 22.0397C304.559 9.43917 326.126 2.75863 348.188 2.91679M300.688 34.4046C311.981 15.1751 329.049 2.91679 348.188 2.91679M160.78 114.777C158.552 114.884 156.299 115.022 154.048 115.181M160.78 114.777C158.529 114.9 156.299 115.041 154.048 115.181M300.688 144.774C296.363 149.361 291.593 153.508 286.449 157.154M300.688 144.774C300.508 144.492 300.348 144.195 300.189 143.916M300.688 144.774C300.909 144.561 301.108 144.335 301.307 144.126M300.688 144.774C311.98 164.019 329.049 176.277 348.188 176.277M286.449 157.154C268.744 169.479 247.716 176.141 226.144 176.259M286.449 157.154C304.558 169.755 326.126 176.435 348.188 176.277M226.144 176.259C226.524 176.24 226.882 176.224 227.259 176.187C227.7 176.171 228.135 176.152 228.573 176.102C229.112 176.065 229.648 175.996 230.187 175.943C230.508 175.892 230.827 175.855 231.143 175.805C231.501 175.752 231.859 175.698 232.239 175.627C232.373 175.613 232.506 175.59 232.637 175.558C233.075 175.486 233.513 175.401 233.97 175.295C234.429 175.208 234.91 175.101 235.366 174.979C235.804 174.876 236.242 174.754 236.68 174.629C237.176 174.507 237.675 174.35 238.174 174.191C238.511 174.087 238.849 173.981 239.188 173.859C239.825 173.649 240.484 173.405 241.121 173.158C241.758 172.914 242.395 172.649 243.011 172.37C244.283 171.832 245.527 171.23 246.738 170.567C247.194 170.323 247.632 170.076 248.07 169.832C249.445 169.028 250.799 168.168 252.116 167.239C252.514 166.978 252.891 166.679 253.289 166.402C257.869 162.972 261.986 158.963 265.537 154.476C265.914 154.003 266.293 153.528 266.652 153.04C267.013 152.583 267.35 152.129 267.69 151.654C268.088 151.112 268.483 150.553 268.863 149.992C269.261 149.43 269.641 148.872 269.999 148.294C270.376 147.715 270.756 147.139 271.114 146.56M226.144 176.259C225.666 176.277 225.189 176.277 224.711 176.277M271.114 146.56C271.472 145.966 271.831 145.368 272.189 144.774C272.37 144.492 272.529 144.195 272.688 143.916L272.707 143.898C272.741 143.856 272.768 143.808 272.786 143.757C273.543 142.427 274.26 141.079 274.957 139.696M271.114 146.56C271.472 145.966 274.259 141.079 274.957 139.696M274.957 139.696C276.869 139.958 278.761 140.221 280.672 140.521M274.957 139.696C275.356 138.907 275.736 138.121 276.113 137.314C276.493 136.526 276.851 135.738 277.188 134.933C277.525 134.145 277.865 133.372 278.183 132.568C278.523 131.782 278.842 130.973 279.139 130.168C279.718 128.682 280.235 127.174 280.734 125.635C280.973 124.934 281.172 124.252 281.372 123.548C281.868 122.009 282.287 120.453 282.686 118.874C282.845 118.295 282.983 117.719 283.123 117.124C283.301 116.37 283.482 115.585 283.641 114.815C283.679 114.712 283.705 114.605 283.72 114.496M274.957 139.696C272.29 139.345 269.641 139.013 266.971 138.716H266.952C265.16 138.503 263.369 138.331 261.574 138.155C259.862 137.98 258.15 137.821 256.437 137.664C255.2 137.558 253.966 137.471 252.732 137.386M280.672 140.521C282.584 140.8 284.495 141.113 286.406 141.429M280.672 140.521C282.584 140.781 284.495 141.097 286.406 141.429M286.406 141.429H286.467C288.737 141.779 291.009 142.183 293.298 142.602C294.176 142.761 295.052 142.918 295.947 143.091C297.343 143.356 298.755 143.616 300.17 143.916H300.189M300.189 143.916C300.568 143.967 300.927 144.057 301.307 144.126M301.307 144.126C302.919 142.375 304.452 140.571 305.907 138.716M224.711 176.277C205.71 176.277 188.742 164.175 177.45 145.177C177.171 144.702 176.893 144.251 176.635 143.775C175.876 142.443 175.141 141.078 174.443 139.695M224.711 176.277C216.047 176.277 208.46 160.605 204.059 136.893M224.711 176.277C233.354 176.277 240.94 160.605 245.344 136.892M174.443 139.695C177.331 139.31 180.198 138.96 183.086 138.644C183.903 138.557 184.739 138.472 185.557 138.382L189.024 138.015C190.616 137.858 192.209 137.718 193.802 137.596C195.973 137.418 198.123 137.261 200.295 137.121C201.548 137.033 202.803 136.964 204.059 136.893M283.72 114.496C280.553 114.322 277.387 114.164 274.223 114.023C271.632 113.92 269.041 113.814 266.474 113.729C264.384 113.639 262.293 113.569 260.202 113.519C258.349 113.447 256.496 113.394 254.643 113.341C254.226 113.323 253.788 113.323 253.369 113.307C251.715 113.254 250.061 113.219 248.41 113.185M283.72 114.496C285.447 106.309 286.315 97.9642 286.309 89.5971M283.72 114.496C284.618 114.549 285.494 114.584 286.388 114.655H286.59C287.463 114.69 288.341 114.743 289.236 114.815C291.647 114.953 294.078 115.091 296.507 115.253C298.418 115.356 300.369 115.494 302.283 115.619C302.442 115.635 302.58 115.635 302.74 115.654C305.049 115.81 307.34 115.988 309.649 116.161C312.538 116.37 315.407 116.598 318.296 116.843M252.732 137.386C251.537 137.28 250.321 137.211 249.127 137.12M252.732 137.386C251.537 137.295 250.343 137.211 249.127 137.12M249.127 137.12C247.853 137.033 246.6 136.963 245.344 136.892M245.344 136.892C246.781 129.049 247.805 121.135 248.41 113.185M245.344 136.892C231.593 136.141 217.81 136.141 204.059 136.893M248.41 113.185C232.612 112.853 216.806 112.853 200.99 113.185M248.41 113.185C249.029 105.688 249.347 97.7753 249.347 89.5971M248.41 113.185C232.597 112.853 216.791 112.853 200.99 113.185M283.72 64.6977C280.771 64.8542 277.846 64.9951 274.9 65.1171C272.41 65.2391 269.92 65.3454 267.448 65.433C267.093 65.433 266.732 65.449 266.373 65.4675C266.036 65.4835 265.718 65.5048 265.378 65.5048C265.059 65.5205 264.741 65.5205 264.422 65.5365C262.373 65.6056 260.319 65.677 258.269 65.7303C258.088 65.7303 257.892 65.7461 257.712 65.7461C256.257 65.799 254.824 65.8339 253.369 65.8709C251.715 65.9238 250.061 65.9587 248.41 65.9905M283.72 64.6977C284.618 64.6447 285.494 64.5914 286.388 64.5384H286.59C287.463 64.5039 288.342 64.4509 289.236 64.3818C291.228 64.2755 293.218 64.1535 295.233 64.0127C297.144 63.9094 299.074 63.7846 301.007 63.6465C303.656 63.4712 306.324 63.2774 308.994 63.0863C312.1 62.858 315.187 62.6112 318.296 62.3511M283.72 64.6977C285.447 72.8848 286.315 81.2298 286.309 89.5971M248.41 65.9905C247.802 58.04 246.779 50.1266 245.344 42.283M248.41 65.9905C232.612 66.3248 216.806 66.3248 200.99 65.9905M248.41 65.9905C249.029 73.5053 249.347 81.4185 249.347 89.5971M248.41 65.9905C232.597 66.3248 216.791 66.3248 200.99 65.9905M245.344 42.283C231.593 43.0528 217.81 43.0528 204.059 42.283M200.99 65.9905C201.599 58.0399 202.623 50.1266 204.059 42.283M204.059 136.893C202.621 129.049 201.597 121.136 200.99 113.185M173.389 114.114C181.135 113.761 188.888 113.486 196.65 113.289M173.389 114.114C181.148 113.755 188.902 113.48 196.65 113.289M196.65 113.289L200.99 113.185M249.347 89.5971H286.309M348.188 2.91679C339.523 2.91679 331.937 18.5889 327.536 42.283M318.296 62.3511C315.3 54.478 311.131 47.1034 305.929 40.4776M318.296 62.3511C318.733 63.5057 319.15 64.6792 319.508 65.8709M305.929 40.4776C306.266 40.5122 306.623 40.5469 306.963 40.5842C308.397 40.7434 309.83 40.9 311.264 41.0381H311.365C313.058 41.2131 314.75 41.3715 316.44 41.5132C316.543 41.5132 316.642 41.5292 316.743 41.5292C318.314 41.6698 319.887 41.7928 321.463 41.8981C322.256 41.9511 323.034 42.0017 323.83 42.0547C325.064 42.1422 326.299 42.214 327.536 42.283M407.2 114.491C405.374 123.233 402.431 131.703 398.443 139.693M407.2 114.491C418.717 115.096 430.239 115.879 441.764 116.84M407.2 114.491C408.932 106.306 409.801 97.9629 409.794 89.5971M407.2 114.491C395.427 113.872 383.658 113.439 371.892 113.19M398.443 139.693C407.205 140.866 415.985 142.346 424.783 144.134M398.443 139.693C387.281 161.821 368.935 176.277 348.177 176.277M398.443 139.693C388.561 138.374 378.688 137.444 368.824 136.903M424.783 144.134C432.148 136.214 437.914 126.946 441.764 116.84M424.783 144.134C414.91 154.469 403.011 162.658 389.83 168.189C376.649 173.719 362.47 176.473 348.177 176.277M441.764 116.84C445.06 108.135 446.752 98.9051 446.76 89.5971M409.794 89.5971H446.76M409.794 89.5971C409.802 81.2284 408.932 72.882 407.197 64.695M409.794 89.5971H372.824M446.76 89.5971C446.753 80.2878 445.059 71.0568 441.762 62.3511M441.762 62.3511C430.236 63.3068 418.715 64.0881 407.197 64.695M441.762 62.3511C437.913 52.2447 432.148 42.977 424.783 35.0575M407.197 64.695C405.372 55.9543 402.429 47.4849 398.44 39.4958M407.197 64.695C395.427 65.3109 383.659 65.7445 371.892 65.9957M424.783 35.0575C415.984 36.8387 407.203 38.3182 398.44 39.4958M424.783 35.0575C415.984 36.8456 407.203 38.325 398.44 39.4958M424.783 35.0575C414.909 24.7229 403.01 16.535 389.829 11.005C376.649 5.47497 362.469 2.72162 348.177 2.9168M398.44 39.4958C387.275 17.3706 368.933 2.9168 348.177 2.9168M398.44 39.4958C388.552 40.8176 378.68 41.7485 368.824 42.2884M286.309 89.5971H323.294M348.177 2.9168C356.823 2.9168 364.425 18.5918 368.824 42.2884M348.177 2.9168C339.534 2.9168 331.932 18.5918 327.53 42.2884M348.177 176.277C356.826 176.277 364.426 160.6 368.824 136.903M348.177 176.277C339.532 176.277 331.932 160.6 327.53 136.9M348.188 176.277C339.523 176.277 331.937 160.605 327.536 136.893M372.824 89.5971C372.824 81.4104 372.495 73.5052 371.892 65.9957M372.824 89.5971C372.824 97.7781 372.495 105.689 371.892 113.19M372.824 89.5971H323.533M371.892 65.9957C371.277 58.0459 370.253 50.1329 368.824 42.2884M371.892 65.9957C356.082 66.3303 340.276 66.3251 324.467 65.9905M368.824 136.903C370.253 129.057 371.277 121.142 371.892 113.19M368.824 136.903C355.07 136.144 341.285 136.143 327.53 136.9M371.892 113.19C356.082 112.856 340.276 112.851 324.467 113.185M368.824 42.2884C355.069 43.045 341.285 43.045 327.53 42.2884M323.294 89.5971C323.298 81.5376 322.021 73.5288 319.508 65.8709M323.294 89.5971H323.533M323.294 89.5971C323.294 97.6491 322.023 105.651 319.53 113.307M319.508 65.8709C321.162 65.9242 322.816 65.9587 324.467 65.9905M324.467 65.9905C323.87 73.5053 323.533 81.4185 323.533 89.5971M324.467 65.9905C325.076 58.0399 326.1 50.1266 327.536 42.283M324.467 65.9905C323.865 73.5001 323.533 81.4104 323.533 89.5971M324.467 65.9905C325.083 58.0409 326.104 50.1332 327.53 42.2884M323.533 89.5971C323.533 97.7753 323.87 105.689 324.467 113.185M323.533 89.5971C323.533 97.7781 323.865 105.683 324.467 113.185M318.296 116.843C315.301 124.721 311.123 132.096 305.907 138.716M318.296 116.843C318.733 115.669 319.15 114.496 319.53 113.307M305.907 138.716C306.942 138.594 307.999 138.488 309.034 138.382C311.502 138.122 313.974 137.875 316.44 137.665C317.677 137.559 318.911 137.471 320.146 137.386C321.383 137.28 322.596 137.192 323.83 137.121C325.064 137.033 326.299 136.964 327.536 136.893M327.536 136.893C326.098 129.049 325.073 121.136 324.467 113.185M319.53 113.307C321.181 113.254 322.816 113.219 324.467 113.185M324.467 113.185C325.083 121.136 326.104 129.054 327.53 136.9" stroke="black" stroke-width="4.84615" stroke-miterlimit="10"/>
</svg>
