<svg width="308" height="308" viewBox="0 0 308 308" fill="none" xmlns="http://www.w3.org/2000/svg">
<path d="M72.1704 183.894L73.6882 186.482L73.6886 186.482L72.1704 183.894ZM72.1706 124.105L73.6888 121.518L73.6883 121.517L72.1706 124.105ZM75.5046 116.217L74.6981 119.106L74.6997 119.107L75.5046 116.217ZM116.217 232.511L119.107 233.318L119.107 233.316L116.217 232.511ZM116.217 75.5043L119.107 74.6993L119.107 74.6978L116.217 75.5043ZM124.106 235.849L121.518 234.331L121.517 234.333L124.106 235.849ZM124.106 72.17L121.518 73.6877L121.518 73.6882L124.106 72.17ZM183.895 235.849L186.483 234.333L186.483 234.332L183.895 235.849ZM183.895 72.1701L186.482 73.6884L186.482 73.6878L183.895 72.1701ZM191.783 232.511L188.893 233.316L188.894 233.318L191.783 232.511ZM232.512 191.783L233.318 188.893L233.317 188.893L232.512 191.783ZM232.512 116.217L233.317 119.107L233.318 119.106L232.512 116.217ZM235.85 183.894L234.332 186.482L234.334 186.483L235.85 183.894ZM235.85 124.105L234.334 121.516L234.332 121.517L235.85 124.105ZM260.354 260.353L258.324 262.563C259.508 263.65 261.339 263.611 262.475 262.474C263.612 261.338 263.651 259.508 262.563 258.324L260.354 260.353ZM212.54 292.586L209.829 293.872C210.517 295.323 212.227 295.975 213.707 295.35C215.187 294.724 215.912 293.044 215.351 291.538L212.54 292.586ZM154 304.4L151.003 304.538C151.077 306.139 152.397 307.4 154 307.4C155.604 307.4 156.924 306.139 156.997 304.538L154 304.4ZM95.4611 292.586L92.65 291.539C92.089 293.044 92.8135 294.724 94.2935 295.35C95.7734 295.975 97.4833 295.323 98.1717 293.872L95.4611 292.586ZM47.663 260.353L45.4537 258.324C44.3663 259.507 44.405 261.338 45.5416 262.474C46.6781 263.611 48.5086 263.65 49.6924 262.563L47.663 260.353ZM15.4332 212.539L14.1477 209.828C12.696 210.517 12.0444 212.227 12.6699 213.707C13.2954 215.187 14.9758 215.911 16.4813 215.35L15.4332 212.539ZM3.6001 154L3.46243 151.003C1.86079 151.077 0.600098 152.397 0.600098 154C0.600097 155.603 1.86079 156.923 3.46243 156.997L3.6001 154ZM15.4332 95.4606L16.481 92.6495C14.9755 92.0884 13.2952 92.8129 12.6698 94.2929C12.0444 95.7728 12.696 97.4827 14.1476 98.1712L15.4332 95.4606ZM47.663 47.6624L49.6915 45.4522C48.5076 44.3657 46.6779 44.4049 45.5417 45.5411C44.4055 46.6773 44.3662 48.507 45.4527 49.6909L47.663 47.6624ZM95.4611 15.433L98.1717 14.1474C97.4832 12.6958 95.7733 12.0442 94.2934 12.6696C92.8135 13.295 92.0889 14.9753 92.65 16.4807L95.4611 15.433ZM154 3.59985L156.997 3.46215C156.923 1.86052 155.603 0.599838 154 0.599854C152.397 0.599869 151.077 1.86057 151.003 3.46221L154 3.59985ZM212.539 15.433L215.35 16.4811C215.912 14.9756 215.187 13.2952 213.707 12.6697C212.227 12.0442 210.517 12.6957 209.829 14.1474L212.539 15.433ZM260.354 47.6624L262.563 49.6918C263.65 48.508 263.611 46.6776 262.475 45.541C261.338 44.4045 259.508 44.3657 258.324 45.4532L260.354 47.6624ZM292.586 95.4606L293.872 98.1712C295.323 97.4827 295.975 95.7729 295.35 94.2929C294.724 92.813 293.044 92.0884 291.539 92.6495L292.586 95.4606ZM304.4 154L304.538 156.997C306.139 156.923 307.4 155.603 307.4 154C307.4 152.397 306.139 151.077 304.538 151.003L304.4 154ZM292.586 212.539L291.538 215.35C293.044 215.911 294.724 215.187 295.35 213.707C295.975 212.227 295.324 210.517 293.872 209.828L292.586 212.539ZM74.9882 182.865C72.1077 174.981 70.4289 166.71 70.0081 158.327L64.0157 158.628C64.4666 167.611 66.2657 176.476 69.3526 184.924L74.9882 182.865ZM66.6135 161.451C73.8584 162.422 79.1554 163.534 82.6768 164.822C84.4372 165.465 85.5959 166.097 86.3062 166.66C86.9959 167.207 87.1013 167.555 87.1232 167.663C87.145 167.77 87.1843 168.128 86.7644 168.896C86.3315 169.687 85.5121 170.716 84.1416 171.989C81.4003 174.536 76.9533 177.609 70.6521 181.307L73.6886 186.482C80.0846 182.729 84.9911 179.389 88.2253 176.385C89.8427 174.882 91.1666 173.351 92.0283 171.775C92.9031 170.176 93.3882 168.362 93.0028 166.467C92.6176 164.574 91.4629 163.092 90.0353 161.96C88.6282 160.843 86.8123 159.945 84.7365 159.186C80.5855 157.669 74.7641 156.489 67.4103 155.504L66.6135 161.451ZM70.0083 149.669C70.4293 141.288 72.1081 133.017 74.9883 125.135L69.3528 123.076C66.2661 131.523 64.467 140.386 64.0159 149.368L70.0083 149.669ZM70.6523 126.693C76.9534 130.39 81.4004 133.464 84.1417 136.011C85.5122 137.284 86.3316 138.312 86.7645 139.104C87.1843 139.871 87.145 140.229 87.1233 140.336C87.1014 140.443 86.9962 140.792 86.3065 141.339C85.5962 141.902 84.4376 142.533 82.6772 143.177C79.1558 144.463 73.8589 145.575 66.614 146.545L67.4102 152.492C74.7639 151.508 80.5853 150.329 84.7363 148.812C86.812 148.054 88.628 147.155 90.0351 146.039C91.4628 144.907 92.6176 143.426 93.0029 141.532C93.3883 139.638 92.9031 137.823 92.0283 136.224C91.1666 134.649 89.8427 133.117 88.2254 131.615C84.9912 128.61 80.0848 125.271 73.6888 121.518L70.6523 126.693ZM91.7038 210.525C86.269 204.523 81.7237 197.773 78.2068 190.48L72.8024 193.086C76.5686 200.896 81.4362 208.125 87.2563 214.552L91.7038 210.525ZM76.3095 194.673C83.3402 192.715 88.6297 191.644 92.3455 191.422C94.2049 191.312 95.4985 191.426 96.3483 191.652C97.1752 191.871 97.3517 192.128 97.3723 192.158C97.3926 192.189 97.5641 192.447 97.4564 193.293C97.3456 194.163 96.9653 195.403 96.1626 197.082C94.5585 200.437 91.573 204.931 87.1072 210.703L91.8529 214.374C96.3824 208.52 99.6882 203.618 101.576 199.67C102.519 197.696 103.185 195.806 103.408 194.051C103.635 192.272 103.429 190.41 102.348 188.806C101.268 187.202 99.6193 186.312 97.8858 185.852C96.1752 185.398 94.1729 185.303 91.989 185.433C87.618 185.693 81.8308 186.907 74.6997 188.893L76.3095 194.673ZM78.2068 117.52C81.7238 110.227 86.2691 103.476 91.7038 97.4741L87.2563 93.4467C81.4362 99.8741 76.5686 107.103 72.8024 114.914L78.2068 117.52ZM87.1072 97.2961C91.573 103.069 94.5584 107.562 96.1626 110.917C96.9653 112.597 97.3456 113.836 97.4563 114.706C97.5641 115.552 97.3926 115.811 97.3723 115.841C97.3516 115.872 97.1751 116.129 96.3482 116.348C95.4985 116.573 94.2049 116.688 92.3455 116.577C88.6297 116.356 83.3403 115.285 76.3095 113.327L74.6997 119.107C81.8308 121.093 87.618 122.306 91.989 122.566C94.173 122.696 96.1753 122.601 97.8859 122.147C99.6193 121.688 101.268 120.797 102.348 119.194C103.429 117.59 103.635 115.728 103.408 113.948C103.185 112.193 102.519 110.303 101.576 108.33C99.6882 104.381 96.3824 99.4797 91.8529 93.6247L87.1072 97.2961ZM117.519 229.809C110.222 226.295 103.472 221.745 97.4784 216.299L93.4439 220.74C99.866 226.575 107.098 231.45 114.915 235.214L117.519 229.809ZM97.2968 220.893C103.069 216.427 107.562 213.442 110.918 211.838C112.597 211.035 113.837 210.655 114.706 210.545C115.552 210.437 115.81 210.609 115.841 210.629C115.872 210.65 116.129 210.827 116.348 211.655C116.574 212.506 116.688 213.801 116.578 215.661C116.356 219.38 115.285 224.672 113.327 231.707L119.107 233.316C121.093 226.181 122.307 220.391 122.567 216.018C122.697 213.833 122.601 211.83 122.148 210.118C121.689 208.385 120.799 206.736 119.195 205.655C117.592 204.573 115.729 204.366 113.95 204.592C112.194 204.816 110.304 205.481 108.331 206.424C104.382 208.312 99.4804 211.618 93.6255 216.147L97.2968 220.893ZM97.4749 91.7034C103.476 86.2685 110.227 81.7231 117.52 78.2065L114.914 72.802C107.104 76.568 99.8744 81.4357 93.4474 87.2561L97.4749 91.7034ZM113.327 76.3092C115.285 83.34 116.356 88.6294 116.578 92.3452C116.688 94.2046 116.574 95.4982 116.348 96.3479C116.129 97.1748 115.872 97.3513 115.842 97.3719C115.811 97.3922 115.553 97.5637 114.707 97.456C113.837 97.3452 112.597 96.9649 110.918 96.1622C107.562 94.5581 103.069 91.5727 97.2968 87.1069L93.6255 91.8526C99.4804 96.3821 104.382 99.6878 108.33 101.575C110.304 102.519 112.194 103.184 113.949 103.408C115.728 103.634 117.59 103.429 119.194 102.348C120.798 101.267 121.688 99.6189 122.148 97.8855C122.602 96.1749 122.697 94.1726 122.567 91.9886C122.307 87.6176 121.093 81.8304 119.107 74.6993L113.327 76.3092ZM149.67 238.011C141.289 237.588 133.018 235.91 125.135 233.031L123.077 238.667C131.524 241.751 140.387 243.55 149.368 244.003L149.67 238.011ZM126.694 237.366C130.391 231.06 133.465 226.608 136.012 223.862C137.286 222.49 138.315 221.669 139.106 221.235C139.875 220.814 140.233 220.853 140.338 220.874C140.444 220.896 140.792 221 141.339 221.69C141.902 222.401 142.533 223.56 143.177 225.322C144.463 228.847 145.576 234.15 146.546 241.405L152.493 240.61C151.508 233.246 150.329 227.419 148.813 223.265C148.055 221.187 147.156 219.37 146.04 217.962C144.908 216.534 143.426 215.379 141.531 214.994C139.635 214.61 137.82 215.097 136.222 215.973C134.647 216.837 133.116 218.162 131.614 219.782C128.61 223.02 125.271 227.931 121.518 234.331L126.694 237.366ZM146.546 66.6134C145.576 73.8584 144.464 79.1554 143.177 82.6767C142.534 84.4371 141.902 85.5958 141.339 86.3061C140.792 86.9958 140.444 87.1011 140.336 87.1229C140.23 87.1446 139.872 87.184 139.104 86.7641C138.313 86.3312 137.284 85.5118 136.011 84.1413C133.465 81.4 130.391 76.953 126.693 70.6518L121.518 73.6882C125.271 80.0842 128.611 84.9907 131.615 88.225C133.118 89.8423 134.649 91.1662 136.224 92.0279C137.823 92.9027 139.638 93.3879 141.533 93.0025C143.426 92.6173 144.907 91.4624 146.04 90.0347C147.156 88.6276 148.054 86.8116 148.813 84.7358C150.329 80.5848 151.508 74.7633 152.493 67.4095L146.546 66.6134ZM125.136 74.9877C133.018 72.1075 141.288 70.4287 149.67 70.0077L149.369 64.0152C140.387 64.4664 131.523 66.2655 123.076 69.3522L125.136 74.9877ZM182.866 233.031C174.982 235.91 166.712 237.588 158.33 238.011L158.632 244.003C167.614 243.551 176.476 241.752 184.924 238.667L182.866 233.031ZM161.455 241.405C162.425 234.15 163.537 228.847 164.824 225.322C165.467 223.56 166.098 222.401 166.662 221.69C167.209 221 167.556 220.896 167.662 220.874C167.768 220.853 168.126 220.814 168.894 221.235C169.686 221.669 170.715 222.49 171.988 223.863C174.535 226.608 177.609 231.06 181.307 237.366L186.483 234.332C182.73 227.931 179.391 223.02 176.387 219.782C174.884 218.163 173.353 216.837 171.778 215.974C170.18 215.097 168.365 214.61 166.47 214.994C164.575 215.379 163.093 216.534 161.96 217.962C160.844 219.37 159.946 221.187 159.188 223.265C157.671 227.419 156.492 233.246 155.507 240.609L161.455 241.405ZM181.307 70.6518C177.61 76.953 174.536 81.4 171.989 84.1414C170.716 85.5118 169.688 86.3312 168.896 86.7642C168.129 87.184 167.77 87.1446 167.664 87.123C167.556 87.1011 167.208 86.9958 166.661 86.3061C166.098 85.5959 165.467 84.4372 164.823 82.6768C163.537 79.1554 162.424 73.8585 161.454 66.6135L155.507 67.4097C156.492 74.7635 157.671 80.5849 159.188 84.7359C159.946 86.8117 160.844 88.6276 161.96 90.0348C163.093 91.4624 164.574 92.6173 166.468 93.0025C168.362 93.388 170.177 92.9027 171.776 92.028C173.351 91.1663 174.883 89.8424 176.385 88.225C179.39 84.9908 182.729 80.0843 186.482 73.6884L181.307 70.6518ZM158.33 70.0078C166.712 70.4288 174.983 72.1076 182.865 74.9879L184.924 69.3523C176.477 66.2656 167.614 64.4665 158.631 64.0154L158.33 70.0078ZM210.543 216.298C204.541 221.744 197.785 226.294 190.482 229.808L193.084 235.215C200.907 231.45 208.145 226.575 214.575 220.742L210.543 216.298ZM194.673 231.707C192.715 224.672 191.644 219.38 191.423 215.662C191.313 213.801 191.427 212.506 191.653 211.656C191.873 210.828 192.13 210.651 192.162 210.63C192.193 210.609 192.452 210.437 193.299 210.545C194.17 210.655 195.411 211.035 197.092 211.838C200.45 213.442 204.947 216.428 210.724 220.893L214.394 216.146C208.534 211.617 203.629 208.311 199.677 206.424C197.703 205.481 195.812 204.815 194.055 204.592C192.275 204.366 190.413 204.573 188.808 205.654C187.205 206.735 186.314 208.383 185.854 210.118C185.4 211.829 185.304 213.832 185.434 216.017C185.694 220.391 186.907 226.181 188.893 233.316L194.673 231.707ZM210.704 87.1069C204.932 91.5727 200.438 94.5581 197.083 96.1622C195.403 96.9649 194.164 97.3452 193.294 97.456C192.448 97.5637 192.189 97.3922 192.159 97.3719C192.128 97.3513 191.872 97.1748 191.652 96.3479C191.427 95.4981 191.312 94.2045 191.423 92.3451C191.644 88.6294 192.715 83.3399 194.673 76.3092L188.893 74.6994C186.907 81.8304 185.694 87.6177 185.434 91.9886C185.304 94.1726 185.399 96.1749 185.853 97.8855C186.312 99.619 187.203 101.267 188.806 102.348C190.41 103.429 192.272 103.634 194.052 103.408C195.807 103.184 197.697 102.519 199.67 101.575C203.619 99.6878 208.52 96.3821 214.375 91.8526L210.704 87.1069ZM190.48 78.2066C197.774 81.7231 204.524 86.2685 210.526 91.7035L214.554 87.2561C208.126 81.4356 200.897 76.568 193.086 72.802L190.48 78.2066ZM229.809 190.482C226.294 197.784 221.744 204.541 216.299 210.542L220.742 214.574C226.576 208.145 231.45 200.907 235.215 193.084L229.809 190.482ZM220.894 210.724C216.428 204.946 213.443 200.449 211.839 197.091C211.036 195.41 210.656 194.17 210.545 193.299C210.437 192.452 210.609 192.192 210.63 192.161C210.651 192.13 210.829 191.872 211.656 191.653C212.507 191.427 213.801 191.312 215.662 191.423C219.38 191.644 224.673 192.715 231.708 194.673L233.317 188.893C226.181 186.907 220.391 185.693 216.018 185.433C213.833 185.304 211.83 185.399 210.118 185.853C208.384 186.313 206.735 187.204 205.654 188.808C204.573 190.412 204.367 192.275 204.593 194.055C204.816 195.811 205.481 197.702 206.424 199.677C208.312 203.628 211.617 208.533 216.147 214.393L220.894 210.724ZM231.708 113.327C224.673 115.285 219.38 116.356 215.662 116.577C213.801 116.688 212.506 116.573 211.656 116.348C210.828 116.128 210.65 115.871 210.629 115.84C210.609 115.81 210.437 115.551 210.545 114.706C210.656 113.836 211.036 112.597 211.838 110.917C213.442 107.562 216.427 103.069 220.893 97.2961L216.148 93.6247C211.618 99.4797 208.312 104.381 206.425 108.33C205.482 110.303 204.816 112.193 204.593 113.949C204.367 115.729 204.573 117.591 205.655 119.195C206.736 120.798 208.385 121.688 210.119 122.148C211.83 122.601 213.833 122.696 216.018 122.566C220.391 122.306 226.181 121.093 233.317 119.107L231.708 113.327ZM216.3 97.4776C221.745 103.472 226.296 110.222 229.809 117.518L235.215 114.915C231.45 107.098 226.575 99.8655 220.741 93.4432L216.3 97.4776ZM238.012 158.326C237.59 166.709 235.911 174.981 233.032 182.865L238.668 184.923C241.753 176.475 243.552 167.611 244.004 158.628L238.012 158.326ZM237.367 181.306C231.061 177.609 226.609 174.535 223.863 171.988C222.491 170.714 221.669 169.685 221.235 168.893C220.814 168.125 220.854 167.767 220.875 167.662C220.897 167.555 221.001 167.208 221.691 166.66C222.402 166.097 223.561 165.465 225.323 164.822C228.848 163.535 234.151 162.422 241.406 161.451L240.61 155.504C233.247 156.489 227.419 157.669 223.265 159.186C221.188 159.944 219.371 160.843 217.963 161.959C216.535 163.092 215.379 164.574 214.995 166.469C214.61 168.364 215.098 170.179 215.974 171.778C216.837 173.353 218.163 174.884 219.782 176.386C223.02 179.39 227.931 182.729 234.332 186.482L237.367 181.306ZM241.406 146.545C234.151 145.575 228.848 144.463 225.323 143.176C223.561 142.533 222.401 141.901 221.691 141.338C221.001 140.791 220.897 140.444 220.875 140.337C220.854 140.232 220.814 139.874 221.235 139.106C221.67 138.314 222.491 137.285 223.863 136.012C226.609 133.465 231.061 130.391 237.367 126.693L234.332 121.517C227.931 125.27 223.02 128.609 219.782 131.613C218.163 133.115 216.838 134.647 215.974 136.221C215.098 137.82 214.61 139.635 214.995 141.53C215.379 143.425 216.535 144.907 217.963 146.04C219.371 147.156 221.188 148.054 223.266 148.812C227.42 150.329 233.247 151.508 240.61 152.492L241.406 146.545ZM233.032 125.134C235.911 133.017 237.589 141.288 238.012 149.67L244.004 149.368C243.551 140.386 241.753 131.523 238.668 123.076L233.032 125.134ZM216.146 214.392C225.07 225.948 239.224 241.783 258.144 262.383L262.563 258.324C243.614 237.694 229.637 222.044 220.895 210.725L216.146 214.392ZM262.383 258.144C241.784 239.223 225.949 225.07 214.393 216.145L210.725 220.894C222.045 229.636 237.694 243.614 258.324 262.563L262.383 258.144ZM188.894 233.318C192.823 247.396 199.954 267.414 209.729 293.634L215.351 291.538C205.564 265.286 198.523 245.5 194.673 231.705L188.894 233.318ZM215.25 291.301C203.264 266.029 193.877 246.958 186.483 234.333L181.306 237.365C188.546 249.729 197.827 268.566 209.829 293.872L215.25 291.301ZM155.508 240.608C153.557 255.127 152.287 276.336 151.004 304.262L156.997 304.538C158.283 276.569 159.544 255.622 161.454 241.407L155.508 240.608ZM156.997 304.262C155.713 276.336 154.444 255.127 152.493 240.608L146.546 241.407C148.456 255.622 149.718 276.569 151.003 304.538L156.997 304.262ZM121.517 234.333C114.123 246.958 104.736 266.03 92.7505 291.301L98.1717 293.872C110.174 268.566 119.454 249.729 126.695 237.365L121.517 234.333ZM98.2723 293.634C108.043 267.415 115.177 247.396 119.107 233.318L113.327 231.705C109.477 245.5 102.433 265.286 92.65 291.539L98.2723 293.634ZM93.6262 216.146C82.0842 225.07 66.2341 239.222 45.6336 258.144L49.6924 262.563C70.321 243.615 85.9879 229.636 97.2961 220.893L93.6262 216.146ZM49.8722 262.383C68.797 241.783 82.9475 225.931 91.8564 214.37L87.1038 210.708C78.379 222.03 64.4051 237.695 45.4537 258.324L49.8722 262.383ZM74.7004 188.893C60.636 192.806 40.5998 199.954 14.3852 209.728L16.4813 215.35C42.732 205.563 62.5314 198.507 76.3088 194.673L74.7004 188.893ZM16.7188 215.25C41.9884 203.265 61.0809 193.876 73.6882 186.482L70.6526 181.307C58.3093 188.546 39.4548 197.826 14.1477 209.828L16.7188 215.25ZM67.4107 155.504C52.8917 153.556 31.6834 152.287 3.73777 151.003L3.46243 156.997C31.4506 158.282 52.3971 159.544 66.6131 161.451L67.4107 155.504ZM3.73776 156.997C31.6835 155.713 52.8921 154.443 67.4115 152.492L66.6126 146.546C52.397 148.455 31.4508 149.717 3.46243 151.003L3.73776 156.997ZM73.6883 121.517C61.0811 114.123 41.9884 104.735 16.7188 92.75L14.1476 98.1712C39.4549 110.174 58.3095 119.453 70.6528 126.693L73.6883 121.517ZM14.3855 98.2717C40.6013 108.043 60.6197 115.177 74.6982 119.106L76.3111 113.327C62.5158 109.477 42.7301 102.433 16.481 92.6495L14.3855 98.2717ZM91.8535 93.6255C82.9304 82.0838 68.7784 66.2341 49.8733 45.634L45.4527 49.6909C64.3849 70.3206 78.3639 85.9868 87.1067 97.2953L91.8535 93.6255ZM45.6345 49.8727C66.2344 68.7782 82.0845 82.9298 93.6262 91.8531L97.2961 87.1064C85.9876 78.3633 70.3207 64.3846 49.6915 45.4522L45.6345 49.8727ZM119.107 74.6978C115.177 60.619 108.043 40.6012 98.2722 14.3853L92.65 16.4807C102.434 42.7302 109.477 62.515 113.328 76.3107L119.107 74.6978ZM92.7505 16.7186C104.735 41.9882 114.124 61.0802 121.518 73.6877L126.694 70.6523C119.454 58.3085 110.174 39.4546 98.1717 14.1474L92.7505 16.7186ZM152.493 67.411C154.444 52.8918 155.713 31.6835 156.997 3.7375L151.003 3.46221C149.718 31.4511 148.456 52.3967 146.546 66.6119L152.493 67.411ZM151.003 3.73756C152.287 31.6835 153.557 52.8919 155.508 67.4111L161.454 66.6122C159.544 52.3969 158.283 31.451 156.997 3.46215L151.003 3.73756ZM186.482 73.6878C193.877 61.0803 203.265 41.9882 215.25 16.7186L209.829 14.1474C197.826 39.4546 188.546 58.3087 181.307 70.6524L186.482 73.6878ZM209.728 14.385C199.954 40.5995 192.807 60.6354 188.893 74.7L194.674 76.3085C198.508 62.5308 205.563 42.7315 215.35 16.4811L209.728 14.385ZM214.371 91.856C225.932 82.9469 241.783 68.7965 262.383 49.8717L258.324 45.4532C237.695 64.4046 222.03 78.3784 210.709 87.1035L214.371 91.856ZM258.144 45.6331C239.222 66.2339 225.07 82.0835 216.147 93.6255L220.894 97.2953C229.636 85.9871 243.615 70.3208 262.563 49.6918L258.144 45.6331ZM233.318 119.106C247.4 115.177 267.415 108.043 293.634 98.2718L291.539 92.6495C265.286 102.433 245.504 109.477 231.706 113.327L233.318 119.106ZM291.301 92.75C266.029 104.736 246.959 114.123 234.334 121.516L237.366 126.694C249.73 119.453 268.566 110.173 293.872 98.1712L291.301 92.75ZM240.609 152.492C255.128 154.443 276.336 155.713 304.262 156.997L304.538 151.003C276.568 149.717 255.623 148.456 241.408 146.546L240.609 152.492ZM304.262 151.003C276.336 152.287 255.128 153.557 240.609 155.504L241.407 161.451C255.623 159.544 276.568 158.282 304.538 156.997L304.262 151.003ZM234.334 186.483C246.959 193.876 266.029 203.264 291.301 215.25L293.872 209.828C268.566 197.827 249.73 188.546 237.366 181.306L234.334 186.483ZM293.634 209.728C267.415 199.954 247.4 192.823 233.318 188.893L231.706 194.673C245.504 198.523 265.286 205.563 291.538 215.35L293.634 209.728Z" fill="white"/>
</svg>
