<svg width="150" height="150" viewBox="0 0 150 150" fill="none" xmlns="http://www.w3.org/2000/svg">
<path d="M56.9622 102.476C50.7962 102.337 44.8547 100.144 40.0868 96.2459C35.3189 92.348 31.9997 86.9707 30.6593 80.9728C29.7728 77.0059 29.7804 72.8925 30.6815 68.9289C31.5826 64.9652 33.3548 61.25 35.8705 58.0508C38.3862 54.8517 41.5828 52.2481 45.2299 50.4278C48.8771 48.6075 52.8841 47.6157 56.9622 47.5238M56.9622 102.476C51.5949 102.184 46.8614 98.0749 43.7983 91.8172C42.1051 88.2821 40.9971 84.4974 40.5171 80.6097C40.0294 76.8857 40.0294 73.1144 40.5171 69.3904C40.995 65.5069 42.1032 61.7265 43.7983 58.1972C46.8614 51.937 51.5949 47.8159 56.9622 47.5238M56.9622 102.476C56.9983 102.486 57.0357 102.49 57.073 102.488C57.1499 102.494 57.2272 102.494 57.3042 102.488H57.365M56.9622 47.5238C56.9983 47.5141 57.0357 47.5101 57.073 47.512C57.1499 47.5061 57.2272 47.5061 57.3042 47.512M92.184 102.488H92.1232C92.0419 102.494 91.9603 102.494 91.879 102.488C91.8421 102.49 91.8051 102.486 91.7694 102.476M92.184 102.488C89.8537 102.22 87.8044 97.8446 86.5237 91.2332C85.8482 87.661 85.4241 84.0462 85.2547 80.4151C85.1809 79.1996 85.1452 77.9603 85.1332 76.695C85.1082 76.1371 85.1082 75.5769 85.1082 75.0071C85.1082 74.435 85.1082 73.8628 85.1332 73.305M92.184 102.488C92.3302 102.504 92.4775 102.504 92.6237 102.488M91.7694 102.476C86.5844 102.196 81.9855 98.3433 78.9224 92.4249C78.8127 92.2303 78.7031 92.0237 78.6053 91.8172C76.9113 88.2908 75.8032 84.5137 75.3242 80.6335V80.6097C75.1645 79.3705 75.055 78.0933 75.0061 76.7924C74.9703 76.1966 74.9573 75.6006 74.9573 75.0071C74.9573 74.3994 74.9703 73.8036 75.0061 73.2195C74.9453 71.9068 74.8358 70.6414 74.6773 69.3905V69.3666C74.1938 65.4917 73.0855 61.72 71.395 58.1972C71.2972 57.9906 71.1876 57.7841 71.0661 57.5751C68.016 51.6688 63.4042 47.8159 58.2309 47.5238M91.7694 102.476C85.6421 102.366 79.7316 100.199 74.9943 96.3253M58.2309 47.5238C64.3547 47.6342 70.2616 49.8016 74.9943 53.6747M58.2309 47.5238C58.1953 47.514 58.1583 47.5099 58.1214 47.5119C58.0444 47.506 57.9671 47.506 57.8902 47.5119H57.8414M74.9943 53.6747C76.3269 54.7495 77.5562 55.9456 78.6662 57.2475C78.752 57.3568 78.8497 57.4659 78.9224 57.5751M74.9943 53.6747C79.7333 49.8045 85.6428 47.6377 91.7695 47.5238M78.9224 57.5751C79.1229 57.7991 79.3103 58.0346 79.4836 58.2801C81.9368 61.4508 83.6613 65.1195 84.5352 69.0271C84.5709 69.2076 84.6077 69.3904 84.6447 69.5731C84.8944 70.8043 85.0576 72.0513 85.1332 73.305M78.9224 57.5751C81.9855 51.6687 86.5844 47.8159 91.7695 47.5238M85.1332 73.305C85.1452 72.0396 85.181 70.8004 85.2549 69.5849C85.4243 65.9538 85.8483 62.3389 86.5238 58.7668C86.6214 58.2564 86.7191 57.7697 86.8288 57.2973C86.9013 56.9673 86.9753 56.6397 87.0598 56.324C87.2064 55.6925 87.378 55.0847 87.5483 54.5126C87.6091 54.2942 87.6699 54.0877 87.7438 53.8812C87.8045 53.6747 87.8653 53.48 87.9391 53.2854C88.0487 52.9696 88.1583 52.6657 88.2679 52.3738C88.6873 51.167 89.2835 50.0286 90.0372 48.9956C90.1323 48.8685 90.2341 48.7465 90.3421 48.63C90.3638 48.5921 90.393 48.5589 90.428 48.5326C90.4517 48.509 90.4767 48.4852 90.5005 48.459C90.5514 48.3973 90.6085 48.3408 90.6709 48.2906C90.7254 48.2347 90.7826 48.1816 90.8425 48.1315C90.8762 48.1037 90.9129 48.0798 90.952 48.0602C91.0059 48.0116 91.0628 47.9664 91.1225 47.925C91.3881 47.7407 91.6865 47.6086 92.0017 47.5356C92.0375 47.5237 92.0863 47.5237 92.1232 47.5119M74.9943 96.3253C70.2616 100.198 64.3548 102.366 58.2311 102.476M74.9943 96.3253C73.6655 95.2503 72.4402 94.0542 71.3344 92.7526C71.2486 92.6551 71.1639 92.5459 71.0782 92.4367M58.2311 102.476C63.4043 102.196 68.0162 98.3432 71.0782 92.4367M58.2311 102.476C58.1954 102.486 58.1584 102.49 58.1215 102.488C58.0446 102.494 57.9673 102.494 57.8903 102.488H57.8415M71.0782 92.4367C70.8827 92.2041 70.6873 91.9738 70.5052 91.7317C68.0532 88.5575 66.3329 84.8842 65.4667 80.9728C65.4298 80.7924 65.3928 80.6096 65.3559 80.4268C65.0957 79.2259 64.9288 78.0069 64.8567 76.7804M57.8415 102.488C57.9782 102.467 58.1129 102.434 58.2442 102.391C58.293 102.367 58.3538 102.355 58.4027 102.329C58.571 102.264 58.7306 102.179 58.8781 102.075C58.9521 102.029 59.0215 101.975 59.0853 101.916C59.2589 101.787 59.4183 101.641 59.5608 101.479M57.8415 102.488C57.6831 102.504 57.5234 102.504 57.365 102.488M59.5608 101.479C59.708 101.332 59.8427 101.173 59.9635 101.004M59.5608 101.479C59.7041 101.329 59.8385 101.17 59.9635 101.004M59.9635 101.004C60.0644 100.88 60.1583 100.75 60.2446 100.615C60.3543 100.458 60.4638 100.287 60.5616 100.116C61.0136 99.3406 61.3975 98.5272 61.7089 97.6855C61.8304 97.3816 61.9531 97.054 62.0628 96.7146M62.0628 96.7146C62.2701 96.1188 62.4654 95.4874 62.6477 94.8059M62.0628 96.7146C62.2581 96.1188 62.4524 95.4873 62.6477 94.8059M62.6477 94.8059C62.9527 93.7115 63.2339 92.508 63.4782 91.2332C64.1415 87.6592 64.565 84.0451 64.7459 80.415C64.7827 79.7099 64.8078 79.0048 64.8197 78.288C64.8317 78.0315 64.8437 77.7657 64.8437 77.4974C64.8567 77.2553 64.8567 77.0225 64.8567 76.7804M64.8567 76.7804L64.8566 76.5263C64.8196 76.0278 64.8078 75.5175 64.8078 75.007C64.8078 74.4966 64.8196 73.9838 64.8566 73.4734V73.2313C64.8566 72.9892 64.8566 72.7565 64.8435 72.5144C64.8435 72.2462 64.8435 71.9683 64.8196 71.7C64.8078 70.9832 64.7831 70.2781 64.7457 69.5849C64.5648 65.9548 64.1413 62.3407 63.478 58.7667C63.3184 57.9406 63.136 57.1501 62.9525 56.3975C62.8192 55.8254 62.6845 55.2912 62.526 54.7691C62.3795 54.2468 62.221 53.7482 62.0627 53.2853C61.953 52.9695 61.8422 52.6657 61.7325 52.3737C61.623 52.0817 61.5134 51.8015 61.3907 51.5357C61.318 51.3766 61.2572 51.2318 61.1834 51.0847C60.7295 49.9346 60.0108 48.9067 59.0852 48.084C59.0245 48.0341 58.9506 47.9748 58.8779 47.9249C58.7305 47.8212 58.5709 47.7359 58.4026 47.6709C58.3537 47.6448 58.2929 47.633 58.2441 47.6092C58.1128 47.5657 57.9781 47.5332 57.8414 47.5119M57.365 102.488C55.0477 102.22 52.9972 97.8446 51.7164 91.2332C51.041 87.661 50.617 84.0462 50.4476 80.4151C50.35 78.6654 50.301 76.8542 50.301 75.0071C50.301 73.146 50.35 71.3347 50.4476 69.585C50.617 65.9539 51.041 62.3391 51.7165 58.7669C51.875 57.9407 52.0465 57.1502 52.2407 56.3977C52.4842 55.3458 52.7816 54.307 53.1318 53.2855C53.2414 52.9697 53.3511 52.6659 53.4607 52.3739C53.5715 52.0818 53.6811 51.8017 53.8026 51.5358C53.9123 51.2557 54.035 51.0016 54.1565 50.7572C54.2542 50.5625 54.3518 50.3797 54.4377 50.2112C54.4703 50.1648 54.4986 50.1155 54.5223 50.064C54.645 49.8456 54.7785 49.6391 54.9011 49.4444C55.0346 49.2496 55.1573 49.0812 55.2908 48.9102C55.4015 48.763 55.523 48.6301 55.6326 48.5091C55.6527 48.4965 55.6694 48.4794 55.6815 48.4591C55.7894 48.3512 55.9036 48.2498 56.0235 48.1552C56.0518 48.1106 56.0947 48.077 56.145 48.0603C56.1965 48.0085 56.2541 47.9631 56.3165 47.925C56.3653 47.8894 56.4261 47.8514 56.4868 47.8159C56.6066 47.7431 56.7331 47.6819 56.8646 47.6331C56.8895 47.6212 56.9134 47.6212 56.9384 47.6092C57.0567 47.5644 57.1792 47.5318 57.3042 47.512M57.3042 47.512L57.3648 47.5119C57.5233 47.496 57.6829 47.496 57.8414 47.5119M93.0383 102.476C100.243 102.314 107.099 99.3489 112.138 94.2153C117.176 89.0817 119.998 82.1872 120 75.007C119.999 72.9958 119.778 70.9906 119.341 69.0271C118.001 63.0292 114.682 57.6519 109.914 53.7541C105.146 49.8562 99.2043 47.6626 93.0382 47.5237M93.0383 102.476C98.3938 102.184 103.128 98.0749 106.202 91.8171C107.89 88.28 108.999 84.4962 109.485 80.6096M93.0383 102.476C93.0026 102.486 92.9656 102.49 92.9287 102.488C92.8474 102.494 92.7657 102.494 92.6844 102.488H92.6237M109.485 80.6096C109.972 76.8857 109.972 73.1143 109.485 69.3904M109.485 80.6096C109.725 78.7517 109.847 76.8804 109.85 75.007C109.848 73.129 109.726 71.253 109.485 69.3904M109.485 69.3904C109.001 65.5079 107.892 61.7284 106.202 58.1971C103.128 51.937 98.3937 47.8158 93.0382 47.5237M93.0382 47.5237C93.0026 47.514 92.9656 47.5101 92.9286 47.512C92.8473 47.5061 92.7657 47.5061 92.6844 47.512M91.7695 47.5238C91.8051 47.5141 91.8423 47.51 91.8792 47.5119C91.9604 47.5059 92.042 47.506 92.1232 47.5119M92.1232 47.5119L92.1839 47.512C92.33 47.4961 92.4775 47.4961 92.6236 47.512L92.6844 47.512M92.6237 102.488C92.7735 102.473 92.921 102.44 93.0632 102.391C93.2188 102.334 93.3694 102.265 93.5137 102.184C93.5736 102.152 93.631 102.116 93.6852 102.075C93.7448 102.034 93.8017 101.988 93.8555 101.94C94.2134 101.667 94.5299 101.344 94.7955 100.981C94.9052 100.848 95.0029 100.7 95.1005 100.556C95.3355 100.191 95.5511 99.8134 95.7463 99.4257C95.869 99.1811 95.9905 98.9271 96.1133 98.6471C96.1978 98.4523 96.2837 98.2577 96.3695 98.0511C96.4302 97.8944 96.5028 97.7235 96.5637 97.5526C96.6375 97.3816 96.6983 97.2012 96.759 97.0184C96.8078 96.8974 96.8448 96.7882 96.8817 96.6647C96.903 96.6265 96.9194 96.5859 96.9305 96.5437C96.9913 96.3253 97.064 96.1068 97.1379 95.8766C97.2225 95.6084 97.3083 95.3282 97.381 95.048C97.4298 94.8914 97.4787 94.7205 97.5155 94.5519C97.6013 94.2719 97.674 93.9798 97.7479 93.6759C97.7967 93.4813 97.8455 93.2866 97.8944 93.0801C98.0278 92.4843 98.1625 91.8646 98.284 91.2332C98.9478 87.6592 99.3716 84.0452 99.5528 80.415C99.6387 78.6654 99.6875 76.8541 99.6875 75.0071C99.6875 73.1459 99.6387 71.3346 99.5528 69.585C99.3716 65.9548 98.9478 62.3408 98.284 58.7668C98.1625 58.1354 98.0278 57.5157 97.8944 56.9199C97.7347 56.2267 97.5636 55.5707 97.3809 54.9518C97.3082 54.6718 97.2224 54.3916 97.1379 54.1234C97.052 53.8338 96.9544 53.5537 96.8687 53.2855C96.759 52.9697 96.6494 52.6659 96.5398 52.3739C96.479 52.229 96.4302 52.0818 96.3694 51.9488C96.2837 51.7423 96.1978 51.5477 96.1132 51.353M96.1132 51.353C96.0054 51.087 95.8829 50.827 95.7463 50.5744M96.1132 51.353C95.9905 51.0729 95.869 50.8189 95.7463 50.5744M95.7463 50.5744C95.5511 50.1867 95.3355 49.8095 95.1005 49.4444C95.0029 49.2996 94.8932 49.1524 94.7955 49.0194C94.5299 48.6565 94.2133 48.3335 93.8555 48.0603C93.7476 47.9708 93.6333 47.8891 93.5136 47.8159C93.3694 47.7348 93.2188 47.6657 93.0632 47.6093C92.991 47.5843 92.9174 47.5637 92.8428 47.5475L92.6844 47.512" stroke="white" stroke-width="1.92045" stroke-linecap="round" stroke-linejoin="round"/>
</svg>
