<svg width="175" height="181" viewBox="0 0 175 181" fill="none" xmlns="http://www.w3.org/2000/svg">
<path fill-rule="evenodd" clip-rule="evenodd" d="M134.623 14.8714C127.613 2.84512 113.787 -1.15936 97.6606 1.58952C81.5266 4.33977 62.754 13.8601 45.0859 29.3727C27.4092 44.893 14.0654 63.5764 6.79392 81.283C-0.448482 98.919 -1.79046 115.924 5.1322 127.8C7.31481 131.545 10.1598 134.513 13.5299 136.741C13.6617 136.982 13.7968 137.222 13.9353 137.459C16.1179 141.204 18.9628 144.171 22.3329 146.399C22.4647 146.641 22.5998 146.88 22.7381 147.118C24.9208 150.862 27.7658 153.83 31.136 156.058C31.2678 156.3 31.4029 156.539 31.5412 156.776C33.7238 160.521 36.5688 163.489 39.9389 165.717C40.0708 165.958 40.2059 166.198 40.3443 166.435C47.0375 177.918 59.9593 182.094 75.1544 180.046C90.3435 177.998 108.087 169.734 125.115 155.954L123.227 153.622C106.493 167.164 89.2499 175.119 74.7536 177.073C62.1605 178.77 51.8542 175.941 45.5218 168.567C51.5386 170.865 58.6532 171.425 66.3513 170.387C81.5405 168.34 99.2834 160.076 116.312 146.295L114.424 143.963C97.6903 157.506 80.4468 165.46 65.9505 167.414C56.5214 168.685 48.3743 167.418 42.2174 163.606C41.656 162.503 41.1652 161.35 40.7441 160.15C45.8199 161.373 51.5042 161.543 57.5482 160.728C72.7374 158.681 90.4803 150.417 107.508 136.636L105.621 134.304C88.8871 147.847 71.6437 155.801 57.1474 157.755C50.6748 158.628 44.8064 158.305 39.7711 156.783C39.3806 155.094 39.1098 153.33 38.9562 151.499C42.0767 151.674 45.3544 151.527 48.7453 151.07C63.9345 149.023 81.6775 140.758 98.7056 126.978L96.8183 124.646C80.0843 138.188 62.8408 146.143 48.3446 148.097C44.9939 148.549 41.805 148.68 38.8099 148.49C38.7767 146.244 38.9059 143.912 39.1936 141.507C39.4425 141.477 39.6921 141.445 39.9423 141.411C55.1314 139.364 72.8744 131.1 89.9025 117.319L88.0152 114.987C71.32 128.498 54.1177 136.447 39.6424 138.424C40.5843 132.913 42.3117 127.071 44.7813 121.057C51.8594 103.822 64.912 85.5089 82.2775 70.2619C99.6516 55.0072 117.932 45.8144 133.377 43.1816C134.032 43.07 134.681 42.9701 135.325 42.882C134.383 48.3935 132.656 54.2355 130.186 60.2492C123.794 75.8137 112.531 92.2561 97.6188 106.526L99.4504 102.065L96.6752 100.925L91.0996 114.507L105.519 110.202L104.66 107.327L99.5155 108.863C114.79 94.2915 126.37 77.4389 132.961 61.3889C135.605 54.9509 137.463 48.5971 138.419 42.5462C140.686 42.366 142.871 42.3421 144.961 42.4746C145.082 50.6965 143.028 60.0726 138.989 69.908C132.598 85.4716 121.335 101.913 106.424 116.183L108.255 111.725L105.48 110.585L99.9009 124.167L114.321 119.862L113.463 116.987L108.317 118.524C123.592 103.952 135.173 87.0983 141.764 71.0476C145.823 61.1637 148.029 51.478 147.965 42.7822C149.651 43.0237 151.265 43.3768 152.802 43.8415C155.094 53.7535 153.266 66.2382 147.792 79.5665C141.4 95.1305 130.137 111.573 115.226 125.843L117.058 121.383L114.283 120.243L108.704 133.825L123.126 129.519L122.268 126.645L117.121 128.181C132.395 113.609 143.976 96.7564 150.567 80.7061C155.816 67.9258 157.965 55.4771 156.117 45.071C157.178 45.5441 158.194 46.0798 159.16 46.6781C164.575 57.3208 163.415 72.6183 156.595 89.2252C150.204 104.789 138.94 121.231 124.029 135.501L125.86 131.043L123.085 129.903L117.506 143.485L131.928 139.18L131.07 136.305L125.922 137.842C141.197 123.269 152.779 106.416 159.37 90.3648C165.339 75.8315 167.3 61.727 163.931 50.5674C165.177 51.8901 166.285 53.3732 167.243 55.0169C173.466 65.6931 172.505 81.5775 165.398 98.884C159.007 114.448 147.744 130.89 132.832 145.16L134.663 140.7L131.888 139.561L126.312 153.142L140.732 148.837L139.873 145.962L134.727 147.499C150.001 132.927 161.582 116.074 168.173 100.024C175.416 82.3877 176.758 65.3831 169.835 53.5062C167.652 49.7599 164.807 46.7921 161.437 44.5643C161.305 44.3233 161.17 44.0843 161.032 43.8474C158.849 40.1012 156.004 37.1334 152.634 34.9056C152.502 34.6646 152.367 34.4256 152.229 34.1887C150.046 30.4424 147.2 27.4746 143.83 25.2468C143.699 25.0059 143.564 24.767 143.426 24.5301C141.243 20.7838 138.397 17.8159 135.027 15.5881C134.896 15.3472 134.761 15.1083 134.623 14.8714ZM155.853 41.7144C155.617 41.4396 155.375 41.171 155.128 40.9087C155.188 41.1084 155.247 41.3091 155.304 41.5107C155.488 41.577 155.671 41.6449 155.853 41.7144ZM151.829 40.4736C151.408 39.2747 150.918 38.1221 150.357 37.0194C149.391 36.4211 148.375 35.8854 147.314 35.4123C147.564 36.8205 147.741 38.2661 147.847 39.7448C149.211 39.9206 150.54 40.1631 151.829 40.4736ZM144.814 39.4669C144.661 37.6365 144.39 35.8722 143.999 34.1827C142.462 33.718 140.848 33.3649 139.162 33.1234C139.177 35.1998 139.063 37.3326 138.825 39.511C140.875 39.3741 142.875 39.3583 144.814 39.4669ZM135.774 39.7998C136.062 37.3951 136.191 35.0624 136.158 32.8159C132.557 32.5876 128.677 32.8233 124.574 33.5229C109.129 36.1556 90.8486 45.3485 73.4744 60.6031C56.1089 75.8502 43.0563 94.1628 35.9782 111.399C31.9392 121.234 29.8853 130.61 30.0068 138.831C32.0967 138.964 34.2809 138.94 36.5487 138.76C37.5049 132.709 39.3625 126.355 42.0062 119.918C49.2777 102.211 62.6216 83.5277 80.2982 68.0075C97.9661 52.4948 116.739 42.9745 132.873 40.2243C133.848 40.058 134.816 39.9164 135.774 39.7998ZM36.142 141.796C34.0921 141.933 32.0922 141.949 30.1531 141.84C30.3067 143.671 30.5776 145.435 30.9681 147.124C32.505 147.589 34.1196 147.942 35.8053 148.183C35.7901 146.107 35.9042 143.974 36.142 141.796ZM35.9235 151.221C34.5595 151.045 33.2307 150.802 31.9411 150.492C32.3623 151.691 32.853 152.844 33.4145 153.947C34.3804 154.546 35.3954 155.081 36.4567 155.554C36.2065 154.146 36.0295 152.7 35.9235 151.221ZM37.2692 159.113C37.0848 159.046 36.9013 158.978 36.7188 158.908C36.9555 159.184 37.1978 159.453 37.4455 159.716C37.385 159.516 37.3263 159.315 37.2692 159.113ZM147.05 32.0557C146.814 31.7808 146.572 31.5122 146.325 31.2499C146.385 31.4497 146.444 31.6504 146.501 31.852C146.685 31.9183 146.868 31.9862 147.05 32.0557ZM143.026 30.8148C142.605 29.6159 142.115 28.4633 141.554 27.3606C140.587 26.7623 139.572 26.2266 138.511 25.7535C138.761 27.1617 138.938 28.6073 139.044 30.0861C140.408 30.2618 141.737 30.5043 143.026 30.8148ZM136.011 29.8081C135.858 27.9777 135.587 26.2135 135.196 24.524C129.634 22.8421 123.055 22.6225 115.771 23.8642C100.326 26.4969 82.0456 35.6897 64.6714 50.9444C47.3059 66.1915 34.2533 84.5041 27.1751 101.74C21.7015 115.068 19.8736 127.553 22.165 137.466C23.7019 137.93 25.3165 138.283 27.0022 138.524C26.9384 129.828 29.1441 120.143 33.2031 110.259C40.4745 92.5523 53.8185 73.8689 71.4951 58.3487C89.1631 42.836 107.936 33.3158 124.07 30.5655C128.229 29.8565 132.235 29.5968 136.011 29.8081ZM27.1204 141.562C25.7564 141.386 24.4275 141.144 23.138 140.833C23.5591 142.032 24.0499 143.186 24.6114 144.289C25.5774 144.887 26.5924 145.422 27.6536 145.895C27.4034 144.487 27.2264 143.041 27.1204 141.562ZM28.4662 149.454C28.2818 149.388 28.0983 149.319 27.9159 149.25C28.1526 149.525 28.3948 149.795 28.6424 150.058C28.582 149.857 28.5233 149.656 28.4662 149.454ZM138.247 22.3969C138.011 22.1221 137.769 21.8535 137.522 21.5913C137.582 21.791 137.641 21.9916 137.698 22.1932C137.882 22.2595 138.065 22.3274 138.247 22.3969ZM134.223 21.1561C133.802 19.9572 133.312 18.8046 132.751 17.702C126.151 13.6151 117.264 12.4503 106.968 14.2055C91.523 16.8383 73.2426 26.0312 55.8685 41.2858C38.5029 56.5329 25.4503 74.8455 18.3722 92.0814C11.552 108.689 10.392 123.987 15.8084 134.63C16.7743 135.228 17.7893 135.764 18.8505 136.236C17.0016 125.83 19.1514 113.381 24.4 100.6C31.6715 82.8936 45.0154 64.2102 62.6921 48.69C80.3601 33.1773 99.1327 23.6571 115.267 20.9068C122.116 19.7393 128.55 19.79 134.223 21.1561ZM19.6631 139.795C19.4786 139.729 19.2952 139.661 19.1127 139.591C19.3494 139.867 19.5916 140.136 19.8393 140.399C19.7789 140.199 19.7201 139.997 19.6631 139.795ZM129.444 12.7383C122.772 4.97128 111.683 2.24247 98.1648 4.54686C82.72 7.17962 64.4395 16.3725 47.0653 31.6271C29.6997 46.8742 16.6471 65.1868 9.56903 82.4227C2.46191 99.7292 1.50129 115.614 7.72406 126.29C8.68243 127.934 9.79029 129.417 11.0364 130.74C7.66732 119.58 9.62862 105.475 15.5971 90.9418C22.8686 73.2351 36.2125 54.5517 53.8891 39.0314C71.5571 23.5187 90.3297 13.9984 106.464 11.2482C114.989 9.79494 122.871 10.2292 129.444 12.7383Z" fill="white"/>
</svg>
