<svg width="24" height="24" viewBox="0 0 24 24" fill="none" xmlns="http://www.w3.org/2000/svg">
<path d="M24 12.0518C23.9996 9.75865 23.3422 7.51359 22.1056 5.58243C20.8689 3.65127 19.1048 2.11489 17.0221 1.15517C14.9394 0.195453 12.6254 -0.147414 10.3538 0.167163C8.08235 0.48174 5.94855 1.44059 4.20505 2.93019C2.46156 4.41979 1.18139 6.37777 0.516104 8.57232C-0.149185 10.7669 -0.171736 13.1061 0.451122 15.3131C1.07398 17.52 2.31616 19.5023 4.03061 21.0253C5.74506 22.5482 7.85999 23.548 10.125 23.9063V15.5206H7.0785V12.0518H10.125V9.40808C10.125 6.40058 11.9167 4.73933 14.6572 4.73933C15.5573 4.75181 16.4551 4.83002 17.3438 4.97333V7.92683H15.8303C15.5723 7.89258 15.31 7.9168 15.0628 7.9977C14.8155 8.07861 14.5896 8.21412 14.4018 8.3942C14.214 8.57427 14.0691 8.7943 13.978 9.03797C13.8868 9.28164 13.8516 9.54271 13.875 9.80183V12.0518H17.2035L16.671 15.5206H13.875V23.9063C16.6978 23.4598 19.2686 22.0204 21.1248 19.8472C22.9809 17.6741 24.0005 14.9098 24 12.0518V12.0518Z" fill="#F0F2F3"/>
<path d="M24 12.0518C23.9996 9.75865 23.3422 7.51359 22.1056 5.58243C20.8689 3.65127 19.1048 2.11489 17.0221 1.15517C14.9394 0.195453 12.6254 -0.147414 10.3538 0.167163C8.08235 0.48174 5.94855 1.44059 4.20505 2.93019C2.46156 4.41979 1.18139 6.37777 0.516104 8.57232C-0.149185 10.7669 -0.171736 13.1061 0.451122 15.3131C1.07398 17.52 2.31616 19.5023 4.03061 21.0253C5.74506 22.5482 7.85999 23.548 10.125 23.9063V15.5206H7.0785V12.0518H10.125V9.40808C10.125 6.40058 11.9167 4.73933 14.6572 4.73933C15.5573 4.75181 16.4551 4.83002 17.3438 4.97333V7.92683H15.8303C15.5723 7.89258 15.31 7.9168 15.0628 7.9977C14.8155 8.07861 14.5896 8.21412 14.4018 8.3942C14.214 8.57427 14.0691 8.7943 13.978 9.03797C13.8868 9.28164 13.8516 9.54271 13.875 9.80183V12.0518H17.2035L16.671 15.5206H13.875V23.9063C16.6978 23.4598 19.2686 22.0204 21.1248 19.8472C22.9809 17.6741 24.0005 14.9098 24 12.0518V12.0518Z" fill="white" fill-opacity="0.25"/>
</svg>
