<svg width="24" height="24" viewBox="0 0 24 24" fill="none" xmlns="http://www.w3.org/2000/svg">
<path fill-rule="evenodd" clip-rule="evenodd" d="M12 0.350586C5.4 0.350586 0 5.75059 0 12.3506C0 17.6756 3.45 22.1756 8.175 23.7506C8.775 23.8256 9 23.5256 9 23.1506C9 22.8506 9 22.1006 9 21.1256C5.625 21.8756 4.95 19.5506 4.95 19.5506C4.425 18.2006 3.6 17.8256 3.6 17.8256C2.475 17.0756 3.675 17.0756 3.675 17.0756C4.875 17.1506 5.55 18.2756 5.55 18.2756C6.6 20.0756 8.325 19.5506 9.075 19.2506C9.15 18.5006 9.525 17.9756 9.825 17.6756C7.125 17.3756 4.35 16.3256 4.35 11.7506C4.35 10.4756 4.8 9.35059 5.55 8.52559C5.4 8.22559 5.025 7.02559 5.7 5.37559C5.7 5.37559 6.675 5.07559 9 6.57559C9.975 6.27559 10.95 6.20059 12 6.20059C13.05 6.20059 14.025 6.35059 15 6.57559C17.325 5.00059 18.3 5.30059 18.3 5.30059C18.975 6.95059 18.525 8.15059 18.45 8.45059C19.2 9.27559 19.65 10.3256 19.65 11.6756C19.65 16.2506 16.875 17.3006 14.175 17.6006C14.625 17.9756 15 18.7256 15 19.8506C15 21.4256 15 22.7756 15 23.1506C15 23.4506 15.225 23.8256 15.825 23.7506C20.55 22.1756 24 17.6756 24 12.3506C24 5.75059 18.6 0.350586 12 0.350586Z" fill="#F0F2F3"/>
<path fill-rule="evenodd" clip-rule="evenodd" d="M12 0.350586C5.4 0.350586 0 5.75059 0 12.3506C0 17.6756 3.45 22.1756 8.175 23.7506C8.775 23.8256 9 23.5256 9 23.1506C9 22.8506 9 22.1006 9 21.1256C5.625 21.8756 4.95 19.5506 4.95 19.5506C4.425 18.2006 3.6 17.8256 3.6 17.8256C2.475 17.0756 3.675 17.0756 3.675 17.0756C4.875 17.1506 5.55 18.2756 5.55 18.2756C6.6 20.0756 8.325 19.5506 9.075 19.2506C9.15 18.5006 9.525 17.9756 9.825 17.6756C7.125 17.3756 4.35 16.3256 4.35 11.7506C4.35 10.4756 4.8 9.35059 5.55 8.52559C5.4 8.22559 5.025 7.02559 5.7 5.37559C5.7 5.37559 6.675 5.07559 9 6.57559C9.975 6.27559 10.95 6.20059 12 6.20059C13.05 6.20059 14.025 6.35059 15 6.57559C17.325 5.00059 18.3 5.30059 18.3 5.30059C18.975 6.95059 18.525 8.15059 18.45 8.45059C19.2 9.27559 19.65 10.3256 19.65 11.6756C19.65 16.2506 16.875 17.3006 14.175 17.6006C14.625 17.9756 15 18.7256 15 19.8506C15 21.4256 15 22.7756 15 23.1506C15 23.4506 15.225 23.8256 15.825 23.7506C20.55 22.1756 24 17.6756 24 12.3506C24 5.75059 18.6 0.350586 12 0.350586Z" fill="white" fill-opacity="0.25"/>
</svg>
