<svg width="24" height="24" viewBox="0 0 24 24" fill="none" xmlns="http://www.w3.org/2000/svg">
<path fill-rule="evenodd" clip-rule="evenodd" d="M15.4319 2.86062C17.147 3.15679 18.7873 3.67391 20.317 4.37579C20.3303 4.3815 20.3416 4.39103 20.3482 4.40435C23.0585 8.39085 24.3971 12.8878 23.8967 18.0647C23.8948 18.0866 23.8834 18.1066 23.8654 18.1199C21.8126 19.6275 19.8241 20.5427 17.8631 21.1493C17.8319 21.1589 17.7978 21.1474 17.7789 21.1208C17.3258 20.4903 16.9143 19.8256 16.5538 19.1275C16.533 19.0866 16.552 19.0371 16.5945 19.0209C17.2482 18.7742 17.8697 18.479 18.4676 18.1295C18.5149 18.1019 18.5177 18.0342 18.4742 18.0018C18.3475 17.9076 18.2216 17.8085 18.1015 17.7095C18.0788 17.6914 18.0485 17.6876 18.023 17.6999C14.1415 19.4932 9.88928 19.4932 5.96153 17.6999C5.93598 17.6885 5.90569 17.6923 5.88396 17.7104C5.76382 17.8095 5.63797 17.9076 5.51216 18.0018C5.46865 18.0342 5.47244 18.1019 5.51973 18.1295C6.1176 18.4723 6.73913 18.7742 7.39186 19.0218C7.43442 19.038 7.4543 19.0866 7.43348 19.1275C7.08064 19.8265 6.66913 20.4913 6.20748 21.1217C6.18761 21.1474 6.15451 21.1589 6.12328 21.1493C4.17171 20.5427 2.18321 19.6275 0.130398 18.1199C0.11337 18.1066 0.101072 18.0857 0.0991801 18.0638C-0.31895 13.5859 0.533392 9.05177 3.64479 4.4034C3.65233 4.39103 3.66368 4.3815 3.67693 4.37579C5.20756 3.67296 6.84791 3.15584 8.56205 2.86062C8.59328 2.85585 8.62449 2.87014 8.64058 2.89776C8.85248 3.27297 9.09465 3.75392 9.25832 4.14721C11.0652 3.87104 12.9004 3.87104 14.7451 4.14721C14.9087 3.76247 15.1424 3.27297 15.3534 2.89776C15.3695 2.86919 15.4007 2.8549 15.4319 2.86062ZM8.02017 15.3372C6.83765 15.3372 5.86328 14.2515 5.86328 12.9183C5.86328 11.585 6.81875 10.4993 8.02017 10.4993C9.23102 10.4993 10.196 11.5945 10.177 12.9183C10.177 14.2515 9.22156 15.3372 8.02017 15.3372ZM15.9949 15.3372C14.8124 15.3372 13.838 14.2515 13.838 12.9183C13.838 11.585 14.7935 10.4993 15.9949 10.4993C17.2058 10.4993 18.1707 11.5945 18.1518 12.9183C18.1518 14.2515 17.2058 15.3372 15.9949 15.3372Z" fill="#F0F2F3"/>
</svg>
