<svg width="24" height="20" viewBox="0 0 24 20" fill="none" xmlns="http://www.w3.org/2000/svg">
<path d="M24 2.62578C23.1 3.00078 22.2001 3.30078 21.15 3.37578C22.2001 2.77578 22.9501 1.80078 23.3251 0.675781C22.35 1.27578 21.3 1.65078 20.175 1.87578C19.275 0.900781 18 0.300781 16.65 0.300781C13.95 0.300781 11.7 2.47578 11.7 5.25078C11.7 5.62578 11.775 6.00078 11.85 6.37578C7.72505 6.15078 4.12505 4.20078 1.65005 1.20078C1.20005 1.95078 0.975049 2.77578 0.975049 3.67578C0.975049 5.40078 1.87505 6.90078 3.15005 7.80078C2.32505 7.80078 1.57505 7.57578 0.900049 7.20078V7.27578C0.900049 9.67578 2.62505 11.6258 4.87505 12.0758C4.42505 12.1508 4.05005 12.2258 3.60005 12.2258C3.30005 12.2258 3.00005 12.2258 2.70005 12.1508C3.30005 14.1008 5.17505 15.5258 7.27505 15.6008C5.62505 16.9508 3.45005 17.7008 1.12505 17.7008C0.750049 17.7008 0.300049 17.7008 -0.0749512 17.6258C2.17505 18.9758 4.80005 19.8008 7.57505 19.8008C16.65 19.8008 21.6 12.3008 21.6 5.77578C21.6 5.55078 21.6 5.32578 21.6 5.17578C22.5 4.42578 23.325 3.60078 24 2.62578Z" fill="#F0F2F3"/>
<path d="M24 2.62578C23.1 3.00078 22.2001 3.30078 21.15 3.37578C22.2001 2.77578 22.9501 1.80078 23.3251 0.675781C22.35 1.27578 21.3 1.65078 20.175 1.87578C19.275 0.900781 18 0.300781 16.65 0.300781C13.95 0.300781 11.7 2.47578 11.7 5.25078C11.7 5.62578 11.775 6.00078 11.85 6.37578C7.72505 6.15078 4.12505 4.20078 1.65005 1.20078C1.20005 1.95078 0.975049 2.77578 0.975049 3.67578C0.975049 5.40078 1.87505 6.90078 3.15005 7.80078C2.32505 7.80078 1.57505 7.57578 0.900049 7.20078V7.27578C0.900049 9.67578 2.62505 11.6258 4.87505 12.0758C4.42505 12.1508 4.05005 12.2258 3.60005 12.2258C3.30005 12.2258 3.00005 12.2258 2.70005 12.1508C3.30005 14.1008 5.17505 15.5258 7.27505 15.6008C5.62505 16.9508 3.45005 17.7008 1.12505 17.7008C0.750049 17.7008 0.300049 17.7008 -0.0749512 17.6258C2.17505 18.9758 4.80005 19.8008 7.57505 19.8008C16.65 19.8008 21.6 12.3008 21.6 5.77578C21.6 5.55078 21.6 5.32578 21.6 5.17578C22.5 4.42578 23.325 3.60078 24 2.62578Z" fill="white" fill-opacity="0.25"/>
</svg>
