<svg width="16" height="16" viewBox="0 0 16 16" fill="none" xmlns="http://www.w3.org/2000/svg">
<path fill-rule="evenodd" clip-rule="evenodd" d="M8 15.5C3.85786 15.5 0.5 12.1421 0.5 8C0.5 3.85786 3.85786 0.5 8 0.5C12.1421 0.5 15.5 3.85786 15.5 8C15.5 12.1421 12.1421 15.5 8 15.5ZM5.66208 13.3459C3.73101 12.5002 2.34605 10.6389 2.18283 8.43749C2.86859 8.81153 3.73335 9.11818 4.71905 9.33164C4.84313 10.8897 5.18107 12.2809 5.66208 13.3459ZM10.3379 2.65406C11.9606 3.36472 13.1977 4.79255 13.6483 6.53667C13.4552 6.71981 13.1266 6.94505 12.6264 7.16734C12.2524 7.33357 11.8162 7.48314 11.3289 7.60812C11.2846 5.67151 10.9138 3.92908 10.3379 2.65406ZM9.58284 9.5923C9.45224 10.8062 9.17901 11.8501 8.834 12.6264C8.58897 13.1777 8.34037 13.5207 8.14851 13.7033C8.08027 13.7682 8.03088 13.8028 8 13.8207C7.96912 13.8028 7.91973 13.7682 7.85149 13.7033C7.65963 13.5207 7.41103 13.1777 7.166 12.6264C6.82099 11.8501 6.54776 10.8062 6.41716 9.5923C6.92743 9.64102 7.45697 9.66667 7.99999 9.66667C8.54302 9.66667 9.07257 9.64102 9.58284 9.5923ZM11.281 9.33163C11.1569 10.8897 10.8189 12.2809 10.3379 13.3459C12.269 12.5002 13.654 10.6389 13.8172 8.43748C13.1314 8.81152 12.2667 9.11817 11.281 9.33163ZM6.33361 7.908C6.85914 7.96738 7.41728 8 7.99999 8C8.58271 8 9.14086 7.96739 9.66639 7.908C9.65545 6.0534 9.31427 4.4542 8.834 3.3736C8.58897 2.82228 8.34037 2.4793 8.14851 2.29671C8.08027 2.23177 8.03088 2.19716 8 2.1793C7.96912 2.19716 7.91973 2.23177 7.85149 2.29671C7.65963 2.4793 7.41103 2.82228 7.166 3.3736C6.68573 4.4542 6.34455 6.0534 6.33361 7.908ZM4.67114 7.60812C4.71544 5.67152 5.08624 3.92908 5.66208 2.65406C4.03937 3.36472 2.80229 4.79256 2.35173 6.53668C2.54475 6.71982 2.87344 6.94505 3.37359 7.16734C3.74761 7.33357 4.18377 7.48314 4.67114 7.60812Z" fill="#1D1D23"/>
</svg>
