<svg width="23" height="23" viewBox="0 0 23 23" fill="none" xmlns="http://www.w3.org/2000/svg">
<path d="M11.25 2.025C14.25 2.025 14.61 2.03625 15.7958 2.09025C16.5093 2.09867 17.2162 2.22984 17.8853 2.478C18.3737 2.65832 18.8156 2.94588 19.1783 3.3195C19.5519 3.68218 19.8394 4.12402 20.0198 4.6125C20.2679 5.2816 20.3991 5.98841 20.4075 6.702C20.4615 7.89 20.475 8.25 20.475 11.25C20.475 14.25 20.4638 14.61 20.4098 15.7958C20.4013 16.5093 20.2702 17.2162 20.022 17.8853C19.8347 18.3702 19.5481 18.8106 19.1805 19.1782C18.8129 19.5458 18.3725 19.8325 17.8875 20.0198C17.2184 20.2679 16.5116 20.3991 15.798 20.4075C14.6123 20.4615 14.256 20.4728 11.2523 20.4728C8.2485 20.4728 7.89225 20.4615 6.7065 20.4075C5.99291 20.3991 5.2861 20.2679 4.617 20.0198C4.12852 19.8394 3.68668 19.5519 3.324 19.1782C2.95038 18.8156 2.66282 18.3737 2.4825 17.8853C2.23434 17.2162 2.10317 16.5093 2.09475 15.7958C2.0385 14.61 2.025 14.2537 2.025 11.25C2.025 8.24625 2.03625 7.89 2.09025 6.70425C2.09867 5.99066 2.22984 5.28385 2.478 4.61475C2.65898 4.12606 2.94731 3.6842 3.32175 3.32175C3.68443 2.94813 4.12627 2.66057 4.61475 2.48025C5.28385 2.23209 5.99066 2.10092 6.70425 2.0925C7.89 2.0385 8.25 2.025 11.25 2.025ZM11.25 0C8.1945 0 7.81125 0.01275 6.612 0.0675C5.67842 0.0872795 4.7549 0.264782 3.8805 0.5925C3.13032 0.874833 2.45059 1.31707 1.8885 1.8885C1.31626 2.45037 0.873243 3.13012 0.59025 3.8805C0.262532 4.7549 0.0850295 5.67842 0.06525 6.612C0.01275 7.81125 0 8.1945 0 11.25C0 14.3055 0.01275 14.6888 0.0675 15.888C0.0872796 16.8216 0.264782 17.7451 0.5925 18.6195C0.875493 19.3699 1.31851 20.0496 1.89075 20.6115C2.45262 21.1837 3.13237 21.6268 3.88275 21.9097C4.75715 22.2375 5.68067 22.415 6.61425 22.4347C7.81425 22.4895 8.19675 22.5023 11.2523 22.5023C14.3078 22.5023 14.691 22.4895 15.8903 22.4347C16.8238 22.415 17.7474 22.2375 18.6218 21.9097C19.3688 21.6202 20.0472 21.178 20.6138 20.6115C21.1803 20.045 21.6224 19.3665 21.912 18.6195C22.2397 17.7451 22.4172 16.8216 22.437 15.888C22.4918 14.688 22.5045 14.3055 22.5045 11.25C22.5045 8.1945 22.4918 7.81125 22.437 6.612C22.4172 5.67842 22.2397 4.7549 21.912 3.8805C21.629 3.13012 21.186 2.45037 20.6138 1.8885C20.0519 1.31626 19.3721 0.873243 18.6218 0.59025C17.7474 0.262532 16.8238 0.0850295 15.8903 0.06525C14.6888 0.01275 14.3055 0 11.25 0Z" fill="#F0F2F3"/>
<path d="M11.25 2.025C14.25 2.025 14.61 2.03625 15.7958 2.09025C16.5093 2.09867 17.2162 2.22984 17.8853 2.478C18.3737 2.65832 18.8156 2.94588 19.1783 3.3195C19.5519 3.68218 19.8394 4.12402 20.0198 4.6125C20.2679 5.2816 20.3991 5.98841 20.4075 6.702C20.4615 7.89 20.475 8.25 20.475 11.25C20.475 14.25 20.4638 14.61 20.4098 15.7958C20.4013 16.5093 20.2702 17.2162 20.022 17.8853C19.8347 18.3702 19.5481 18.8106 19.1805 19.1782C18.8129 19.5458 18.3725 19.8325 17.8875 20.0198C17.2184 20.2679 16.5116 20.3991 15.798 20.4075C14.6123 20.4615 14.256 20.4728 11.2523 20.4728C8.2485 20.4728 7.89225 20.4615 6.7065 20.4075C5.99291 20.3991 5.2861 20.2679 4.617 20.0198C4.12852 19.8394 3.68668 19.5519 3.324 19.1782C2.95038 18.8156 2.66282 18.3737 2.4825 17.8853C2.23434 17.2162 2.10317 16.5093 2.09475 15.7958C2.0385 14.61 2.025 14.2537 2.025 11.25C2.025 8.24625 2.03625 7.89 2.09025 6.70425C2.09867 5.99066 2.22984 5.28385 2.478 4.61475C2.65898 4.12606 2.94731 3.6842 3.32175 3.32175C3.68443 2.94813 4.12627 2.66057 4.61475 2.48025C5.28385 2.23209 5.99066 2.10092 6.70425 2.0925C7.89 2.0385 8.25 2.025 11.25 2.025ZM11.25 0C8.1945 0 7.81125 0.01275 6.612 0.0675C5.67842 0.0872795 4.7549 0.264782 3.8805 0.5925C3.13032 0.874833 2.45059 1.31707 1.8885 1.8885C1.31626 2.45037 0.873243 3.13012 0.59025 3.8805C0.262532 4.7549 0.0850295 5.67842 0.06525 6.612C0.01275 7.81125 0 8.1945 0 11.25C0 14.3055 0.01275 14.6888 0.0675 15.888C0.0872796 16.8216 0.264782 17.7451 0.5925 18.6195C0.875493 19.3699 1.31851 20.0496 1.89075 20.6115C2.45262 21.1837 3.13237 21.6268 3.88275 21.9097C4.75715 22.2375 5.68067 22.415 6.61425 22.4347C7.81425 22.4895 8.19675 22.5023 11.2523 22.5023C14.3078 22.5023 14.691 22.4895 15.8903 22.4347C16.8238 22.415 17.7474 22.2375 18.6218 21.9097C19.3688 21.6202 20.0472 21.178 20.6138 20.6115C21.1803 20.045 21.6224 19.3665 21.912 18.6195C22.2397 17.7451 22.4172 16.8216 22.437 15.888C22.4918 14.688 22.5045 14.3055 22.5045 11.25C22.5045 8.1945 22.4918 7.81125 22.437 6.612C22.4172 5.67842 22.2397 4.7549 21.912 3.8805C21.629 3.13012 21.186 2.45037 20.6138 1.8885C20.0519 1.31626 19.3721 0.873243 18.6218 0.59025C17.7474 0.262532 16.8238 0.0850295 15.8903 0.06525C14.6888 0.01275 14.3055 0 11.25 0Z" fill="white" fill-opacity="0.25"/>
<path d="M11.25 5.475C10.1078 5.475 8.99126 5.8137 8.04157 6.44826C7.09188 7.08283 6.35168 7.98476 5.91458 9.04C5.47749 10.0952 5.36312 11.2564 5.58595 12.3766C5.80878 13.4969 6.3588 14.5259 7.16645 15.3335C7.97409 16.1412 9.0031 16.6912 10.1233 16.914C11.2436 17.1369 12.4047 17.0225 13.46 16.5854C14.5152 16.1483 15.4172 15.4081 16.0517 14.4584C16.6863 13.5087 17.025 12.3922 17.025 11.25C17.025 9.71838 16.4166 8.24948 15.3335 7.16646C14.2505 6.08344 12.7816 5.475 11.25 5.475ZM11.25 15C10.5083 15 9.78328 14.7801 9.1666 14.368C8.54991 13.956 8.06927 13.3703 7.78544 12.6851C7.50161 11.9998 7.42735 11.2458 7.57204 10.5184C7.71674 9.79098 8.07389 9.1228 8.59834 8.59835C9.12278 8.0739 9.79097 7.71675 10.5184 7.57206C11.2458 7.42736 11.9998 7.50162 12.6851 7.78545C13.3703 8.06928 13.9559 8.54993 14.368 9.16661C14.7801 9.7833 15 10.5083 15 11.25C15 12.2446 14.6049 13.1984 13.9016 13.9017C13.1984 14.6049 12.2445 15 11.25 15Z" fill="#F0F2F3"/>
<path d="M11.25 5.475C10.1078 5.475 8.99126 5.8137 8.04157 6.44826C7.09188 7.08283 6.35168 7.98476 5.91458 9.04C5.47749 10.0952 5.36312 11.2564 5.58595 12.3766C5.80878 13.4969 6.3588 14.5259 7.16645 15.3335C7.97409 16.1412 9.0031 16.6912 10.1233 16.914C11.2436 17.1369 12.4047 17.0225 13.46 16.5854C14.5152 16.1483 15.4172 15.4081 16.0517 14.4584C16.6863 13.5087 17.025 12.3922 17.025 11.25C17.025 9.71838 16.4166 8.24948 15.3335 7.16646C14.2505 6.08344 12.7816 5.475 11.25 5.475ZM11.25 15C10.5083 15 9.78328 14.7801 9.1666 14.368C8.54991 13.956 8.06927 13.3703 7.78544 12.6851C7.50161 11.9998 7.42735 11.2458 7.57204 10.5184C7.71674 9.79098 8.07389 9.1228 8.59834 8.59835C9.12278 8.0739 9.79097 7.71675 10.5184 7.57206C11.2458 7.42736 11.9998 7.50162 12.6851 7.78545C13.3703 8.06928 13.9559 8.54993 14.368 9.16661C14.7801 9.7833 15 10.5083 15 11.25C15 12.2446 14.6049 13.1984 13.9016 13.9017C13.1984 14.6049 12.2445 15 11.25 15Z" fill="white" fill-opacity="0.25"/>
<path d="M17.2552 6.59475C18.0008 6.59475 18.6052 5.99033 18.6052 5.24475C18.6052 4.49917 18.0008 3.89475 17.2552 3.89475C16.5097 3.89475 15.9052 4.49917 15.9052 5.24475C15.9052 5.99033 16.5097 6.59475 17.2552 6.59475Z" fill="#F0F2F3"/>
<path d="M17.2552 6.59475C18.0008 6.59475 18.6052 5.99033 18.6052 5.24475C18.6052 4.49917 18.0008 3.89475 17.2552 3.89475C16.5097 3.89475 15.9052 4.49917 15.9052 5.24475C15.9052 5.99033 16.5097 6.59475 17.2552 6.59475Z" fill="white" fill-opacity="0.25"/>
</svg>
