<svg width="24" height="24" viewBox="0 0 24 24" fill="none" xmlns="http://www.w3.org/2000/svg">
<path fill-rule="evenodd" clip-rule="evenodd" d="M20.6376 3.06786C21.3594 2.78715 22.0967 3.39532 21.9911 4.1358L21.9702 4.2424L17.9702 20.2424C17.7916 20.9568 16.9393 21.2279 16.3828 20.7871L16.2929 20.707L12.108 16.5229L9.80003 19.5999C9.34151 20.2112 8.41126 20.0964 8.09771 19.4319L8.05135 19.3161L6.18203 13.7089L2.55282 11.8943C1.81578 11.5258 1.82602 10.4928 2.522 10.1209L2.63759 10.0679L20.6376 3.06786ZM19.56 5.63287L5.46503 11.1139L7.44725 12.1054C7.64493 12.2043 7.80314 12.3652 7.89892 12.5617L7.94872 12.6836L9.34503 16.8739L10.679 15.0939L10.2929 14.707C9.93244 14.3465 9.90471 13.7793 10.2097 13.387L10.2929 13.2928L14.2929 9.29276C14.6835 8.90223 15.3166 8.90223 15.7071 9.29276C16.0676 9.65324 16.0954 10.2205 15.7903 10.6128L15.7071 10.707L12.415 13.9999L16.458 18.0429L19.56 5.63287Z" fill="#F0F2F3"/>
</svg>
