<svg width="16" height="15" viewBox="0 0 16 15" fill="none" xmlns="http://www.w3.org/2000/svg">
	<path d="M6.82826 10.3757L3.99984 7.54732L4.94265 6.60451L6.82826 8.49013L10.5995 4.7189L11.5423 5.6617L6.82826 10.3757Z" fill="#017B00"/>
	<path fill-rule="evenodd" clip-rule="evenodd" d="M0.666504 7.49996C0.666504 3.44987 3.94975 0.166626 7.99984 0.166626C12.0499 0.166626 15.3332 3.44987 15.3332 7.49996C15.3332 11.55 12.0499 14.8333 7.99984 14.8333C3.94975 14.8333 0.666504 11.55 0.666504 7.49996ZM7.99984 13.5C4.68613 13.5 1.99984 10.8137 1.99984 7.49996C1.99984 4.18625 4.68613 1.49996 7.99984 1.49996C11.3135 1.49996 13.9998 4.18625 13.9998 7.49996C13.9998 10.8137 11.3135 13.5 7.99984 13.5Z" fill="#017B00"/>
</svg>