<svg xmlns="http://www.w3.org/2000/svg">
<symbol id="creator" viewBox="0 0 97 69">
<path d="M83.4089 67.32L82.7102 68.0354C83.09 68.4064 83.6937 68.4159 84.085 68.0569C84.4763 67.6979 84.5187 67.0957 84.1817 66.6853L83.4089 67.32ZM63.1593 48.3796L62.5556 49.1768L62.5567 49.1777L63.1593 48.3796ZM53.0088 59.868L52.0131 59.9609C52.0611 60.475 52.4925 60.868 53.0088 60.868C53.5251 60.868 53.9565 60.4749 54.0045 59.9609L53.0088 59.868ZM28.9508 58.2293L28.2059 57.5622C27.8516 57.9577 27.8683 58.5612 28.2438 58.9366C28.6193 59.312 29.2228 59.3284 29.6182 58.974L28.9508 58.2293ZM18.9793 34.1631L18.9201 33.1649C18.3917 33.1962 17.9792 33.6339 17.9793 34.1632C17.9794 34.6926 18.3919 35.1301 18.9203 35.1614L18.9793 34.1631ZM28.9508 10.0979L29.6182 9.35321C29.2228 8.99882 28.6193 9.01526 28.2438 9.39065C27.8683 9.76605 27.8516 10.3695 28.2059 10.765L28.9508 10.0979ZM53.0088 8.45201L54.0044 8.35911C53.9565 7.84505 53.5251 7.45202 53.0088 7.45201C52.4925 7.452 52.0611 7.84502 52.0131 8.35907L53.0088 8.45201ZM63.1664 19.9404L63.7697 20.7379L63.7698 20.7379L63.1664 19.9404ZM83.4089 1L84.1817 1.63468C84.5188 1.22426 84.4762 0.621942 84.0848 0.262986C83.6934 -0.0959706 83.0896 -0.0863309 82.7099 0.284939L83.4089 1ZM96 34.1631L96.0644 35.161C96.5906 35.1271 97 34.6905 97 34.1632C97.0001 33.6359 96.5908 33.1992 96.0646 33.1652L96 34.1631ZM63.1611 48.3793L64.0616 48.8143C64.2688 48.3853 64.1446 47.8697 63.7648 47.5821L63.1611 48.3793ZM63.1682 19.9402L63.7715 20.7377C64.1514 20.4503 64.2759 19.9348 64.0689 19.5057L63.1682 19.9402ZM53.0107 8.45176L54.0063 8.35886C53.9584 7.84481 53.527 7.45177 53.0107 7.45176C52.4944 7.45175 52.063 7.84477 52.015 8.35882L53.0107 8.45176ZM28.9527 10.0976L29.6201 9.35296C29.2247 8.99857 28.6212 9.01501 28.2457 9.39041C27.8702 9.7658 27.8535 10.3692 28.2078 10.7648L28.9527 10.0976ZM18.9812 34.1628L18.922 33.1646C18.3936 33.1959 17.9811 33.6336 17.9812 34.1629C17.9812 34.6923 18.3938 35.1299 18.9222 35.1611L18.9812 34.1628ZM28.9527 58.2291L28.2078 57.5619C27.8535 57.9575 27.8702 58.5609 28.2457 58.9363C28.6212 59.3117 29.2247 59.3282 29.6201 58.9738L28.9527 58.2291ZM53.0106 59.8677L52.0149 59.9607C52.0629 60.4747 52.4943 60.8678 53.0106 60.8677C53.5269 60.8677 53.9583 60.4747 54.0063 59.9606L53.0106 59.8677ZM84.1077 66.6046C74.5798 57.2979 68.1516 50.8955 63.7618 47.5815L62.5567 49.1777C66.8146 52.3921 73.1115 58.6595 82.7102 68.0354L84.1077 66.6046ZM63.7629 47.5823C61.8428 46.1284 60.1846 45.161 58.7413 44.8647C57.9951 44.7115 57.2673 44.7291 56.5854 44.9843C55.9023 45.2399 55.35 45.7022 54.9032 46.2974C54.0421 47.4448 53.4942 49.196 53.0744 51.3749C52.6483 53.5873 52.3284 56.3962 52.0131 59.7751L54.0045 59.9609C54.3194 56.5859 54.6322 53.8617 55.0383 51.7533C55.4509 49.6115 55.9351 48.2544 56.5029 47.4979C56.7706 47.1412 57.0319 46.9526 57.2863 46.8574C57.5419 46.7618 57.8754 46.7287 58.3391 46.8238C59.3155 47.0243 60.6709 47.7497 62.5556 49.1768L63.7629 47.5823ZM54.0045 59.7751C53.5126 54.5049 53.0625 50.4914 52.3197 47.7809C51.9484 46.426 51.478 45.2922 50.8161 44.4758C50.1192 43.6161 49.2168 43.1211 48.1098 43.0844C47.0684 43.0499 45.9492 43.4251 44.7626 44.0472C43.563 44.6761 42.1976 45.6098 40.6385 46.8135C37.522 49.2197 33.4979 52.8111 28.2834 57.4846L29.6182 58.974C34.8543 54.2812 38.8157 50.7476 41.8608 48.3965C43.3826 47.2216 44.642 46.3686 45.6912 45.8185C46.7536 45.2616 47.5075 45.0656 48.0435 45.0833C48.514 45.0989 48.8932 45.2798 49.2625 45.7353C49.6668 46.234 50.0469 47.0547 50.3908 48.3095C51.0783 50.8182 51.5169 54.6444 52.0131 59.9609L54.0045 59.7751ZM29.6957 58.8965C33.2556 54.9217 35.9946 51.4627 37.6915 48.4811C39.3698 45.532 40.1526 42.8358 39.4195 40.4965C38.6729 38.1141 36.4832 36.4823 33.1802 35.3583C29.86 34.2284 25.1829 33.528 19.0383 33.1649L18.9203 35.1614C25.0124 35.5214 29.4743 36.2098 32.5359 37.2517C35.6147 38.2994 37.0497 39.6223 37.511 41.0946C37.9859 42.6101 37.5599 44.6687 35.9533 47.4918C34.3652 50.2823 31.7429 53.6129 28.2059 57.5622L29.6957 58.8965ZM19.0385 35.1614C25.1852 34.7967 29.8629 34.095 33.1829 32.9644C36.4857 31.8396 38.6746 30.2073 39.4201 27.8247C40.1519 25.4855 39.3681 22.7899 37.6895 19.8419C35.9923 16.8612 33.2538 13.4037 29.6957 9.43075L28.2059 10.765C31.7412 14.7126 34.3631 18.0418 35.9515 20.8315C37.5586 23.6539 37.9854 25.7121 37.5113 27.2275C37.0507 28.6996 35.6168 30.0227 32.5381 31.0711C29.4767 32.1138 25.0142 32.8033 18.9201 33.1649L19.0385 35.1614ZM28.2834 10.8426C33.4979 15.5161 37.5221 19.1071 40.6386 21.5127C42.1977 22.7161 43.5631 23.6494 44.7629 24.2779C45.9496 24.8996 47.0689 25.2743 48.1104 25.2392C49.2174 25.2018 50.1196 24.7062 50.8163 23.8462C51.478 23.0294 51.9484 21.8954 52.3197 20.5402C53.0625 17.829 53.5125 13.8151 54.0044 8.54494L52.0131 8.35907C51.5169 13.6755 51.0783 17.5023 50.3908 20.0117C50.0469 21.2668 49.6667 22.0881 49.2623 22.5873C48.8928 23.0433 48.5134 23.2244 48.043 23.2403C47.507 23.2584 46.7532 23.0628 45.691 22.5063C44.6418 21.9567 43.3824 21.1041 41.8607 19.9295C38.8157 17.5791 34.8543 14.046 29.6182 9.35321L28.2834 10.8426ZM52.0131 8.54491C52.3283 11.9238 52.6482 14.7328 53.0745 16.9451C53.4944 19.1241 54.0426 20.8754 54.9043 22.0228C55.3513 22.6181 55.904 23.0803 56.5874 23.3358C57.2695 23.5909 57.9976 23.6085 58.7441 23.4553C60.1883 23.1592 61.8478 22.1919 63.7697 20.7379L62.5631 19.1429C60.6766 20.57 59.3198 21.2956 58.3423 21.4961C57.8779 21.5914 57.5438 21.5582 57.2878 21.4625C57.033 21.3672 56.7714 21.1785 56.5036 20.8219C55.9355 20.0654 55.4511 18.7084 55.0384 16.5667C54.6321 14.4583 54.3193 11.7341 54.0044 8.35911L52.0131 8.54491ZM63.7698 20.7379C68.1582 17.417 74.5871 11.0229 84.108 1.71506L82.7099 0.284939C73.1205 9.65972 66.8204 15.9212 62.5629 19.143L63.7698 20.7379ZM82.6362 0.365319C76.7292 7.55746 72.3048 13.136 69.5711 17.4788C68.2039 19.6508 67.2268 21.5637 66.7062 23.2527C66.1844 24.9455 66.0955 26.4986 66.6225 27.8807C67.1532 29.2723 68.2446 30.324 69.7434 31.1374C71.2306 31.9446 73.1835 32.5538 75.5684 33.0452C80.3364 34.0277 87.0981 34.5893 95.9355 35.161L96.0646 33.1652C87.2003 32.5918 80.5803 32.0359 75.972 31.0863C73.6687 30.6117 71.9348 30.0512 70.6974 29.3796C69.4715 28.7143 68.8003 27.9783 68.4912 27.168C68.1785 26.3481 68.1726 25.285 68.6175 23.8419C69.0634 22.395 69.9365 20.6525 71.2637 18.5442C73.9187 14.3264 78.2601 8.84472 84.1817 1.63468L82.6362 0.365319ZM95.9357 33.1652C87.0983 33.7353 80.3366 34.2958 75.5685 35.2774C73.1837 35.7684 71.2308 36.3772 69.7435 37.184C68.2448 37.9971 67.1533 39.0486 66.6225 40.4401C66.0954 41.822 66.1844 43.375 66.7062 45.0676C67.2268 46.7565 68.2039 48.6694 69.5711 50.8413C72.3048 55.184 76.7292 60.7625 82.6362 67.9547L84.1817 66.6853C78.2601 59.4753 73.9187 53.9936 71.2637 49.7759C69.9365 47.6676 69.0634 45.9252 68.6174 44.4785C68.1726 43.0354 68.1786 41.9725 68.4912 41.1528C68.8002 40.3428 69.4713 39.607 70.6972 38.942C71.9346 38.2707 73.6685 37.7105 75.9718 37.2363C80.5801 36.2876 87.2002 35.7329 96.0644 35.161L95.9357 33.1652ZM62.2607 47.9444C59.1373 54.4103 53.9118 59.6246 47.4391 62.734L48.3052 64.5368C55.1861 61.2313 60.7412 55.688 64.0616 48.8143L62.2607 47.9444ZM47.4391 62.734C40.9665 65.8435 33.6301 66.6638 26.6305 65.0609L26.184 67.0105C33.6251 68.7145 41.4243 67.8424 48.3052 64.5368L47.4391 62.734ZM26.6305 65.0609C19.6309 63.458 13.3826 59.5267 8.90823 53.9104L7.34396 55.1566C12.1006 61.1272 18.743 65.3064 26.184 67.0105L26.6305 65.0609ZM8.90823 53.9104C4.43381 48.294 1.99821 41.3253 2 34.1445L1.07288e-06 34.144C-0.00190246 41.7777 2.58732 49.186 7.34396 55.1566L8.90823 53.9104ZM2 34.1445C2.00179 26.9637 4.44086 19.9962 8.91808 14.3821L7.35444 13.1351C2.59482 19.1033 0.00190449 26.5103 1.07288e-06 34.144L2 34.1445ZM8.91808 14.3821C13.3953 8.76798 19.6455 4.83979 26.6459 3.24036L26.2004 1.2906C18.7585 2.99092 12.1141 7.16687 7.35444 13.1351L8.91808 14.3821ZM26.6459 3.24036C33.6463 1.64093 40.9823 2.46496 47.4534 5.57762L48.3203 3.77528C41.4411 0.466298 33.6424 -0.409713 26.2004 1.2906L26.6459 3.24036ZM47.4534 5.57762C53.9244 8.69027 59.1474 13.9072 62.2675 20.3747L64.0689 19.5057C60.7519 12.6303 55.1995 7.08426 48.3203 3.77528L47.4534 5.57762ZM62.5649 19.1427C60.6784 20.5698 59.3216 21.2954 58.3441 21.4959C57.8798 21.5911 57.5457 21.558 57.2896 21.4622C57.0348 21.367 56.7732 21.1783 56.5054 20.8216C55.9373 20.0652 55.453 18.7082 55.0403 16.5664C54.634 14.4581 54.3212 11.7338 54.0063 8.35886L52.015 8.54465C52.3302 11.9235 52.6501 14.7325 53.0764 16.9449C53.4963 19.1239 54.0444 20.8751 54.9061 22.0226C55.3532 22.6179 55.9058 23.0801 56.5892 23.3356C57.2714 23.5906 57.9994 23.6082 58.7459 23.4551C60.1901 23.1589 61.8496 22.1916 63.7715 20.7377L62.5649 19.1427ZM52.015 8.35882C51.5188 13.6753 51.0802 17.5021 50.3926 20.0115C50.0488 21.2666 49.6686 22.0878 49.2642 22.587C48.8947 23.0431 48.5152 23.2242 48.0448 23.24C47.5089 23.2581 46.7551 23.0625 45.6929 22.506C44.6437 21.9564 43.3843 21.1038 41.8626 19.9292C38.8176 17.5789 34.8562 14.0458 29.6201 9.35296L28.2853 10.8423C33.4998 15.5159 37.524 19.1069 40.6405 21.5125C42.1996 22.7158 43.565 23.6492 44.7648 24.2777C45.9515 24.8993 47.0708 25.274 48.1123 25.2389C49.2193 25.2016 50.1215 24.706 50.8182 23.846C51.4799 23.0292 51.9503 21.8952 52.3216 20.54C53.0644 17.8288 53.5144 13.8149 54.0063 8.54469L52.015 8.35882ZM28.2078 10.7648C31.7431 14.7123 34.365 18.0416 35.9534 20.8312C37.5604 23.6536 37.9873 25.7118 37.5132 27.2273C37.0526 28.6993 35.6187 30.0224 32.54 31.0709C29.4786 32.1135 25.0161 32.803 18.922 33.1646L19.0404 35.1611C25.1871 34.7964 29.8648 34.0948 33.1848 32.9641C36.4876 31.8393 38.6765 30.2071 39.4219 27.8245C40.1538 25.4853 39.37 22.7896 37.6914 19.8416C35.9942 16.861 33.2557 13.4034 29.6976 9.4305L28.2078 10.7648ZM18.9222 35.1611C25.0142 35.5211 29.4762 36.2095 32.5378 37.2514C35.6166 38.2991 37.0516 39.622 37.5129 41.0943C37.9879 42.6098 37.5619 44.6684 35.9552 47.4916C34.3671 50.2821 31.7448 53.6126 28.2078 57.5619L29.6976 58.8962C33.2575 54.9215 35.9965 51.4625 37.6934 48.4808C39.3717 45.5318 40.1545 42.8355 39.4214 40.4963C38.6749 38.1138 36.4852 36.4821 33.1821 35.358C29.8619 34.2282 25.1848 33.5277 19.0402 33.1646L18.9222 35.1611ZM29.6201 58.9738C34.8562 54.2809 38.8176 50.7473 41.8627 48.3963C43.3844 47.2213 44.6438 46.3683 45.6931 45.8183C46.7555 45.2613 47.5094 45.0653 48.0454 45.0831C48.5158 45.0987 48.8951 45.2795 49.2643 45.735C49.6686 46.2337 50.0488 47.0545 50.3926 48.3092C51.0801 50.8179 51.5187 54.6442 52.0149 59.9607L54.0063 59.7748C53.5144 54.5046 53.0643 50.4911 52.3215 47.7806C51.9502 46.4257 51.4798 45.292 50.8179 44.4756C50.1211 43.6159 49.2186 43.1209 48.1117 43.0842C47.0703 43.0497 45.9511 43.4249 44.7645 44.0469C43.5648 44.6758 42.1994 45.6095 40.6404 46.8132C37.5239 49.2194 33.4998 52.8109 28.2853 57.4844L29.6201 58.9738ZM54.0063 59.9606C54.3212 56.5857 54.634 53.8614 55.0402 51.753C55.4528 49.6112 55.9369 48.2542 56.5047 47.4977C56.7724 47.1409 57.0337 46.9524 57.2881 46.8572C57.5437 46.7616 57.8773 46.7284 58.341 46.8236C59.3173 47.024 60.6727 47.7494 62.5574 49.1765L63.7648 47.5821C61.8447 46.1282 60.1864 45.1607 58.7431 44.8644C57.997 44.7113 57.2692 44.7289 56.5872 44.984C55.9042 45.2396 55.3518 45.7019 54.9051 46.2971C54.0439 47.4446 53.496 49.1957 53.0763 51.3747C52.6501 53.587 52.3302 56.396 52.0149 59.7748L54.0063 59.9606Z" fill="currentColor"/>
</symbol>
<symbol id="supporter" viewBox="0 0 96 96" >
<path d="M31.7403 48.0013L31.7172 47.2517C31.3121 47.2642 30.9902 47.5961 30.9903 48.0014C30.9903 48.4067 31.3122 48.7386 31.7173 48.751L31.7403 48.0013ZM47.9994 31.7398L48.749 31.7167C48.7365 31.3117 48.4046 30.9898 47.9993 30.9898C47.594 30.9898 47.2621 31.3118 47.2497 31.7169L47.9994 31.7398ZM64.2609 48.0013L64.2839 48.751C64.6889 48.7386 65.0109 48.4067 65.0109 48.0014C65.0109 47.5961 64.689 47.2642 64.284 47.2517L64.2609 48.0013ZM47.9994 64.2605L47.2497 64.2835C47.2621 64.6885 47.594 65.0105 47.9993 65.0105C48.4046 65.0105 48.7365 64.6886 48.749 64.2836L47.9994 64.2605ZM59.5931 68.0788L59.5506 67.33L59.5481 67.3301L59.5931 68.0788ZM52.0092 71.4689L51.4813 70.936L51.4764 70.941L52.0092 71.4689ZM48.6209 79.0517L47.8723 79.0068L47.8721 79.0093L48.6209 79.0517ZM74.8951 83.4086L75.6437 83.4556L75.6439 83.4523L74.8951 83.4086ZM71.5056 90.9636L72.0335 91.4964L72.0385 91.4914L71.5056 90.9636ZM61.2064 91.1816L60.951 90.4764C60.7167 90.5613 60.5399 90.7569 60.4791 90.9986C60.4182 91.2402 60.4814 91.4963 60.6476 91.6819L61.2064 91.1816ZM63.9485 94.3519L63.373 94.8328C63.526 95.0159 63.757 95.1153 63.9952 95.1004L63.9485 94.3519ZM63.9505 94.3521L63.9944 95.1008C64.277 95.0842 64.5262 94.91 64.6387 94.6502C64.7512 94.3904 64.7079 94.0895 64.5267 93.872L63.9505 94.3521ZM58.0456 87.7853L58.4964 88.3847C58.6683 88.2554 58.7764 88.0586 58.7933 87.8442C58.8102 87.6298 58.7342 87.4185 58.5847 87.2639L58.0456 87.7853ZM60.0045 79.4607L60.535 78.9305C60.2432 78.6385 59.7702 78.6372 59.4769 78.9277L60.0045 79.4607ZM55.1872 84.9297L54.5919 84.4735C54.3598 84.7763 54.3921 85.2051 54.6668 85.4698L55.1872 84.9297ZM42.0005 70.3959L42.4999 69.8364L42.4981 69.8347L42.0005 70.3959ZM34.2408 67.4302L34.2443 66.6802L34.2374 66.6802L34.2408 67.4302ZM26.483 70.3959L25.9852 69.8349L25.9835 69.8364L26.483 70.3959ZM41.9806 92.0557L42.4766 92.6183L42.4791 92.6161L41.9806 92.0557ZM34.2421 95.001L34.2387 95.751L34.2456 95.751L34.2421 95.001ZM26.5032 92.0537L26.0048 92.6142L26.0068 92.616L26.5032 92.0537ZM41.6922 74.5658L42.0215 73.892C41.796 73.7817 41.5303 73.7916 41.3136 73.9184C41.0969 74.0452 40.958 74.2719 40.9435 74.5225L41.6922 74.5658ZM41.5139 79.195L40.7641 79.1806C40.7568 79.5596 41.0335 79.8845 41.4089 79.9376L41.5139 79.195ZM27.9213 59.5941L28.6701 59.5516L28.67 59.5492L27.9213 59.5941ZM24.5312 52.0102L25.064 51.4823C24.9235 51.3405 24.7323 51.2606 24.5327 51.2602C24.3331 51.2598 24.1416 51.339 24.0005 51.4802L24.5312 52.0102ZM24.5329 52.0103L25.0634 52.5404C25.2044 52.3993 25.2833 52.2079 25.2829 52.0085C25.2824 51.809 25.2024 51.618 25.0608 51.4776L24.5329 52.0103ZM16.9496 48.6215L16.9944 47.8728C16.7559 47.8586 16.5249 47.9588 16.3724 48.1426L16.9496 48.6215ZM14.2179 51.7868L13.658 51.2878C13.4923 51.4737 13.4297 51.7298 13.4909 51.9712C13.5522 52.2126 13.7292 52.4078 13.9635 52.4923L14.2179 51.7868ZM12.5922 74.8955L12.5453 75.644L12.5485 75.6442L12.5922 74.8955ZM5.03726 71.5062L4.50455 72.0342L4.50933 72.039L5.03726 71.5062ZM16.9483 48.6214L17.5256 49.1003C17.7063 48.8825 17.749 48.5814 17.6359 48.3219C17.5229 48.0624 17.2734 47.8887 16.9908 47.8726L16.9483 48.6214ZM5.9231 52.8977L6.45341 53.4281L6.45347 53.428L5.9231 52.8977ZM1.64993 63.9497L0.90121 63.9936L0.901372 63.9962L1.64993 63.9497ZM24.7564 62.3253L25.4658 62.0817L25.4619 62.0708L24.7564 62.3253ZM8.21683 58.0466L8.81215 57.5904C8.68196 57.4205 8.48536 57.3143 8.27188 57.2986C8.05839 57.2829 7.84837 57.3591 7.6947 57.5082L8.21683 58.0466ZM8.93689 67.6068L8.41209 68.1426C8.7057 68.4302 9.17608 68.4279 9.46688 68.1375L8.93689 67.6068ZM18.4962 68.3279L18.9472 67.7287C18.645 67.5012 18.2206 67.5344 17.9575 67.8061L18.4962 68.3279ZM21.4351 41.694L21.3911 42.4427L21.3919 42.4427L21.4351 41.694ZM25.605 42.0012L25.5359 42.748C25.7737 42.77 26.0077 42.6774 26.1661 42.4988L25.605 42.0012ZM28.57 34.2414L29.32 34.2448L29.32 34.238L28.57 34.2414ZM25.6041 26.4829L26.1652 25.9851C26.0066 25.8065 25.7725 25.714 25.5346 25.7361L25.6041 26.4829ZM21.4341 26.7895L21.391 26.0407L21.3906 26.0407L21.4341 26.7895ZM3.94579 41.981L3.38336 42.4772L3.38543 42.4795L3.94579 41.981ZM14.7841 46.7745V46.0245V46.7745ZM6.51354 34.2414L7.2635 34.2491C7.26356 34.244 7.26356 34.2388 7.2635 34.2337L6.51354 34.2414ZM1 34.242L0.249978 34.2387L0.250007 34.2454L1 34.242ZM25.6053 26.4828L25.6748 27.2296C25.9567 27.2034 26.1997 27.0207 26.3033 26.7573C26.4069 26.4939 26.3534 26.1946 26.1649 25.9834L25.6053 26.4828ZM14.7825 46.7745L14.7823 46.0245C14.3698 46.0246 14.0348 46.3579 14.0325 46.7704C14.0302 47.183 14.3616 47.5199 14.7741 47.5245L14.7825 46.7745ZM25.6038 42.0012L26.1633 42.5006C26.3519 42.2894 26.4054 41.99 26.3017 41.7265C26.1981 41.4631 25.9548 41.2804 25.6729 41.2544L25.6038 42.0012ZM3.94732 26.5032L3.38684 26.0048L3.38511 26.0068L3.94732 26.5032ZM12.3033 34.2426L13.0533 34.2466L13.0533 34.2388L12.3033 34.2426ZM8.12659 41.6787L7.44722 41.9967L7.45242 42.0073L8.12659 41.6787ZM8.12659 26.8065L8.1685 26.0577C7.86271 26.0405 7.57723 26.2111 7.44736 26.4885L8.12659 26.8065ZM16.804 41.5151L16.8186 40.7652C16.4395 40.7578 16.1144 41.0346 16.0613 41.4101L16.804 41.5151ZM14.784 21.7108V22.4608C15.1981 22.4608 15.5339 22.1251 15.534 21.7109C15.534 21.2967 15.1983 20.9609 14.7841 20.9608L14.784 21.7108ZM12.7648 26.9721L12.0221 26.8673L12.0213 26.8737L12.7648 26.9721ZM12.7651 41.512L12.0216 41.6105L12.0225 41.6168L12.7651 41.512ZM36.4062 27.9228L36.4486 28.6716L36.4512 28.6715L36.4062 27.9228ZM43.9895 24.5321L44.5174 25.0648L44.5222 25.06L43.9895 24.5321ZM47.3794 16.9491L48.128 16.994L48.1282 16.9916L47.3794 16.9491ZM21.1051 12.5927L20.3566 12.5458L20.3564 12.5489L21.1051 12.5927ZM25.3795 23.646L25.9098 23.1156L25.9098 23.1156L25.3795 23.646ZM24.495 5.03749L23.967 4.50477L23.9623 4.50952L24.495 5.03749ZM43.102 5.92391L42.5717 6.45424L42.5717 6.45426L43.102 5.92391ZM32.0511 1.64935L32.0072 0.900635L32.0046 0.900799L32.0511 1.64935ZM28.3927 8.93579L28.9231 8.40549C28.6323 8.11468 28.1616 8.11226 27.8679 8.40006L28.3927 8.93579ZM53.9993 25.6059L53.4998 26.1653L53.5018 26.1671L53.9993 25.6059ZM61.7591 28.5703L61.7557 29.3204L61.7625 29.3203L61.7591 28.5703ZM69.5181 25.6053L70.0158 26.1664C70.1945 26.0079 70.287 25.7737 70.2649 25.5358L69.5181 25.6053ZM54.0194 3.94624L53.5232 3.38387L53.521 3.38579L54.0194 3.94624ZM49.2258 14.7846H49.9758V14.7844L49.2258 14.7846ZM61.7585 1L61.7619 0.249977L61.7551 0.250008L61.7585 1ZM69.212 21.4348L68.8827 20.7609C68.6111 20.8937 68.4458 21.1764 68.4633 21.4782L69.212 21.4348ZM69.5192 25.6053L68.7724 25.6748C68.7987 25.9566 68.9813 26.1997 69.2448 26.3033C69.5082 26.4069 69.8075 26.3533 70.0187 26.1648L69.5192 25.6053ZM69.498 3.94745L69.9964 3.387L69.9944 3.3852L69.498 3.94745ZM61.7585 12.3045L61.7546 13.0546L61.7624 13.0545L61.7585 12.3045ZM74.2895 14.7846L75.0395 14.7844C75.0394 14.3702 74.7036 14.0345 74.2894 14.0346C73.8752 14.0346 73.5395 14.3704 73.5395 14.7846H74.2895ZM54.488 12.7649L54.3895 12.0214C54.012 12.0714 53.7319 12.3964 53.7381 12.7771L54.488 12.7649ZM68.0765 36.4071L67.5976 35.8299C67.4137 35.9825 67.3135 36.2136 67.3279 36.4521L68.0765 36.4071ZM71.4672 43.9904L70.9344 44.5183C71.0749 44.66 71.266 44.74 71.4655 44.7404C71.6651 44.7408 71.8565 44.6617 71.9976 44.5206L71.4672 43.9904ZM75.366 40.0916L75.8962 40.622C76.0379 40.4804 76.117 40.288 76.116 40.0877C76.1149 39.8873 76.0338 39.6958 75.8906 39.5556L75.366 40.0916ZM71.4684 43.9904L70.9381 43.46C70.797 43.6011 70.718 43.7926 70.7184 43.9921C70.7189 44.1916 70.7988 44.3827 70.9405 44.5232L71.4684 43.9904ZM79.0517 47.3804L79.0067 48.1291L79.0093 48.1292L79.0517 47.3804ZM83.4076 21.1062L83.4544 20.3577L83.4515 20.3575L83.4076 21.1062ZM72.3543 25.3807L72.8846 25.911L72.8847 25.9109L72.3543 25.3807ZM90.9641 24.495L91.4945 25.0253C91.6355 24.8843 91.7146 24.6928 91.7141 24.4933C91.7137 24.2938 91.6338 24.1027 91.4921 23.9623L90.9641 24.495ZM68.0782 36.407L67.3294 36.4493C67.3454 36.732 67.5191 36.9815 67.7787 37.0946C68.0382 37.2076 68.3392 37.1649 68.5571 36.9842L68.0782 36.407ZM94.3509 32.0514L95.0996 32.0076L95.0995 32.0048L94.3509 32.0514ZM90.9627 24.495L91.4954 23.9671C91.355 23.8254 91.1639 23.7455 90.9644 23.745C90.7649 23.7446 90.5734 23.8236 90.4323 23.9647L90.9627 24.495ZM79.4616 35.9973L79.9947 35.4696L79.9892 35.4642L79.4616 35.9973ZM77.5042 27.6731L78.0435 28.1943C78.1929 28.0397 78.2688 27.8285 78.2519 27.6141C78.235 27.3998 78.1269 27.2031 77.9551 27.0738L77.5042 27.6731ZM70.3943 53.9993L69.8349 53.4998L69.8332 53.5018L70.3943 53.9993ZM67.4293 61.7591L66.6793 61.7557L66.6793 61.7625L67.4293 61.7591ZM72.9435 61.7591L73.6934 61.7671C73.6935 61.7618 73.6935 61.7564 73.6934 61.7511L72.9435 61.7591ZM70.3943 69.5189L69.8331 70.0164L69.8349 70.0184L70.3943 69.5189ZM92.0538 54.0201L92.6162 53.5238L92.6143 53.5217L92.0538 54.0201ZM95 61.7592L95.75 61.7626L95.75 61.7557L95 61.7592ZM92.0527 69.4981L92.6131 69.9965L92.615 69.9944L92.0527 69.4981ZM74.5661 69.2111L73.8872 69.53L73.8923 69.5405L74.5661 69.2111ZM74.5661 54.3072L74.61 53.5585C74.3039 53.5405 74.0177 53.7107 73.8873 53.9883L74.5661 54.3072ZM31.7633 48.751C35.6009 48.6329 38.5637 48.5198 40.8284 48.1679C43.0945 47.8159 44.7921 47.2081 46.0001 45.9999C47.2082 44.7917 47.8157 43.094 48.1674 40.8279C48.5189 38.5631 48.6316 35.6003 48.749 31.7627L47.2497 31.7169C47.1314 35.5817 47.0195 38.4435 46.6851 40.5979C46.351 42.7509 45.8117 44.067 44.9394 44.9393C44.0672 45.8117 42.7512 46.3513 40.5982 46.6857C38.4438 47.0204 35.582 47.1328 31.7172 47.2517L31.7633 48.751ZM47.2497 31.7629C47.3678 35.6004 47.4809 38.5633 47.8328 40.828C48.1848 43.0941 48.7926 44.7918 50.0007 46C51.2089 47.2081 52.9066 47.8159 55.1727 48.1679C57.4375 48.5198 60.4003 48.6329 64.2378 48.751L64.284 47.2517C60.4192 47.1328 57.5574 47.0204 55.4029 46.6857C53.2499 46.3513 51.9338 45.8117 51.0614 44.9393C50.189 44.0669 49.6494 42.7508 49.315 40.5978C48.9803 38.4433 48.8679 35.5815 48.749 31.7167L47.2497 31.7629ZM64.238 47.2517C60.4004 47.3692 57.4376 47.4819 55.1728 47.8333C52.9067 48.185 51.209 48.7926 50.0008 50.0006C48.7926 51.2086 48.1848 52.9062 47.8328 55.1723C47.4809 57.437 47.3678 60.3999 47.2497 64.2374L48.749 64.2836C48.8679 60.4188 48.9803 57.557 49.315 55.4026C49.6494 53.2496 50.189 51.9336 51.0614 51.0613C51.9337 50.1891 53.2498 49.6497 55.4028 49.3156C57.5573 48.9813 60.419 48.8693 64.2839 48.751L64.238 47.2517ZM48.749 64.2376C48.6316 60.4 48.5189 57.4372 48.1674 55.1724C47.8157 52.9064 47.2082 51.2087 46.0001 50.0007C44.7921 48.7926 43.0944 48.185 40.8283 47.8333C38.5636 47.4819 35.6008 47.3692 31.7632 47.2517L31.7173 48.751C35.5821 48.8693 38.4439 48.9813 40.5983 49.3156C42.7513 49.6497 44.0672 50.1891 44.9394 51.0613C45.8117 51.9335 46.351 53.2495 46.6851 55.4025C47.0195 57.5569 47.1314 60.4187 47.2497 64.2835L48.749 64.2376ZM62.885 70.7461C61.9644 69.7118 61.0571 68.6667 60.1698 67.5993L59.0163 68.5582C59.9171 69.6418 60.8359 70.7001 61.7645 71.7434L62.885 70.7461ZM59.5481 67.3301C56.5105 67.5127 53.6432 68.7945 51.4813 70.9361L52.537 72.0017C54.4401 70.1165 56.9641 68.9882 59.6381 68.8274L59.5481 67.3301ZM51.4795 71.9998C52.7799 73.2972 54.0793 74.5966 55.3777 75.898L56.4396 74.8386C55.1404 73.5364 53.8401 72.2361 52.5389 70.9379L51.4795 71.9998ZM56.4446 75.8929C58.1665 74.1335 60.2636 72.7857 62.5792 71.9502L62.0702 70.5393C59.542 71.4514 57.2525 72.9229 55.3726 74.8438L56.4446 75.8929ZM56.4393 74.8384C55.1401 73.5373 53.84 72.2372 52.5391 70.9382L51.4792 71.9996C52.7796 73.2981 54.0791 74.5977 55.3779 75.8983L56.4393 74.8384ZM51.4764 70.941C49.3348 73.1025 48.0541 75.9697 47.8723 79.0068L49.3696 79.0965C49.5296 76.423 50.657 73.8992 52.5419 71.9968L51.4764 70.941ZM48.142 79.6288C49.2094 80.5146 50.2535 81.4221 51.2881 82.3435L52.2857 81.2234C51.2425 80.2942 50.1846 79.3746 49.0998 78.4745L48.142 79.6288ZM52.4924 82.038C53.3277 79.7227 54.6745 77.6259 56.4333 75.9043L55.384 74.8324C53.4637 76.7122 51.9933 79.0014 51.0814 81.5289L52.4924 82.038ZM71.2239 81.2238C72.2686 82.1597 73.332 83.0798 74.4143 83.9841L75.3761 82.833C74.307 81.9397 73.2566 81.0309 72.2248 80.1066L71.2239 81.2238ZM75.6439 83.4523C75.7694 81.3042 75.4327 79.1541 74.6566 77.1472L73.2576 77.6883C73.9563 79.4951 74.2594 81.4308 74.1464 83.3648L75.6439 83.4523ZM74.6566 77.1472C73.8804 75.1403 72.6829 73.3232 71.1447 71.8185L70.0957 72.8907C71.4806 74.2454 72.5588 75.8814 73.2576 77.6883L74.6566 77.1472ZM70.0898 72.8849C71.7368 74.5323 72.085 77.3149 71.0153 80.421L72.4335 80.9094C73.6026 77.515 73.3633 74.0378 71.1506 71.8244L70.0898 72.8849ZM67.0752 87.5958C68.3743 88.8948 69.6744 90.1943 70.9755 91.4942L72.0357 90.4331C70.7347 89.1333 69.4348 87.834 68.1359 86.5351L67.0752 87.5958ZM72.0385 91.4914C74.1724 89.3369 75.4533 86.4821 75.6437 83.4556L74.1466 83.3615C73.979 86.0258 72.8514 88.5391 70.9727 90.4359L72.0385 91.4914ZM75.3753 82.8324C74.3051 81.9406 73.2552 81.0322 72.2256 80.1073L71.2232 81.2232C72.2667 82.1606 73.3307 83.0811 74.415 83.9847L75.3753 82.8324ZM71.0192 80.4097C70.1823 82.7193 68.8362 84.8109 67.0809 86.5295L68.1303 87.6013C70.0464 85.7253 71.5159 83.442 72.4295 80.9207L71.0192 80.4097ZM47.8721 79.0093C47.7509 81.1527 48.0896 83.2971 48.8659 85.2987L50.2644 84.7563C49.5656 82.9544 49.2606 81.0237 49.3697 79.094L47.8721 79.0093ZM48.8659 85.2987C49.6422 87.3003 50.8379 89.1125 52.3726 90.6137L53.4215 89.5413C52.0398 88.1899 50.9633 86.5583 50.2644 84.7563L48.8659 85.2987ZM53.4273 89.5471C51.7823 87.9023 51.4324 85.1272 52.4963 82.0268L51.0775 81.54C49.9145 84.9292 50.1567 88.398 52.3667 90.6079L53.4273 89.5471ZM71.1564 71.8302C69.6552 70.2953 67.8431 69.0994 65.8412 68.3232L65.2989 69.7217C67.101 70.4205 68.7324 71.4971 70.084 72.879L71.1564 71.8302ZM65.8412 68.3232C63.8394 67.547 61.6942 67.2083 59.5506 67.33L59.6356 68.8276C61.5654 68.7181 63.4967 69.023 65.2989 69.7217L65.8412 68.3232ZM62.5683 71.9541C65.669 70.8892 68.4443 71.2398 70.09 72.885L71.1505 71.8242C68.9401 69.6145 65.4713 69.3711 62.0811 70.5354L62.5683 71.9541ZM67.0697 86.5407C65.3517 88.2952 63.26 89.6403 60.951 90.4764L61.4617 91.8868C63.9823 90.9741 66.2658 89.5056 68.1414 87.5902L67.0697 86.5407ZM60.6476 91.6819C61.572 92.7144 62.4805 93.7647 63.373 94.8328L64.524 93.871C63.6206 92.7898 62.701 91.7266 61.7651 90.6813L60.6476 91.6819ZM63.9952 95.1004C67.0223 94.9118 69.8789 93.6312 72.0335 91.4964L70.9777 90.4309C69.0812 92.31 66.5666 93.4373 63.9019 93.6033L63.9952 95.1004ZM52.3608 90.6019C53.8652 92.1403 55.6829 93.338 57.6896 94.1141L58.2307 92.715C56.424 92.0163 54.7875 90.938 53.4332 89.5531L52.3608 90.6019ZM57.6896 94.1141C59.6964 94.8902 61.8464 95.2266 63.9944 95.1008L63.9066 93.6033C61.9729 93.7167 60.0373 93.4137 58.2307 92.715L57.6896 94.1141ZM64.5267 93.872C63.6243 92.7888 62.7042 91.7251 61.7664 90.6807L60.6503 91.6829C61.5757 92.7134 62.4837 93.7631 63.3743 94.8321L64.5267 93.872ZM60.964 90.4727C57.8581 91.543 55.0749 91.1947 53.4274 89.5472L52.3667 90.6078C54.5801 92.8213 58.0583 93.0606 61.4527 91.8909L60.964 90.4727ZM67.7329 77.0478C66.2751 78.9502 64.689 80.7508 62.9856 82.4369L64.0409 83.503C65.7928 81.7688 67.4241 79.9169 68.9235 77.9602L67.7329 77.0478ZM62.9828 83.5002C64.3471 84.8651 65.7106 86.23 67.0751 87.5956L68.1361 86.5353C66.7719 85.1701 65.4081 83.8047 64.0437 82.4397L62.9828 83.5002ZM72.2246 80.1064C71.0777 79.0796 69.9532 78.0324 68.8497 76.9649L67.8067 78.0431C68.9239 79.1237 70.0626 80.1841 71.2241 81.224L72.2246 80.1064ZM51.2882 82.3437C52.4363 83.3655 53.5617 84.4076 54.6659 85.4702L55.706 84.3893C54.5879 83.3134 53.4483 82.2582 52.2855 81.2232L51.2882 82.3437ZM55.7813 85.3859C57.2398 83.4824 58.8267 81.6808 60.5309 79.9937L59.4756 78.9277C57.7228 80.6629 56.0907 82.5158 54.5906 84.4736L55.7813 85.3859ZM60.5335 78.9303C59.1679 77.5653 57.8031 76.2012 56.4388 74.8378L55.3785 75.8989C56.7428 77.2621 58.1075 78.6262 59.4731 79.9912L60.5335 78.9303ZM66.012 74.1236C64.9489 73.0205 63.9065 71.8947 62.8851 70.7463L61.7643 71.7432C62.799 72.9065 63.8549 74.047 64.9319 75.1645L66.012 74.1236ZM55.3783 75.8987C56.7427 77.2631 58.1076 78.6273 59.4732 79.9914L60.5333 78.9301C59.1678 77.5663 57.8032 76.2022 56.4389 74.838L55.3783 75.8987ZM60.5363 79.9883C62.223 78.2843 64.0247 76.6976 65.9281 75.2394L65.0158 74.0487C63.0582 75.5485 61.2052 77.1804 59.4702 78.9331L60.5363 79.9883ZM57.5083 88.3075C58.5761 89.4086 59.6234 90.5334 60.6491 91.6815L61.7677 90.6821C60.7283 89.5188 59.6671 88.379 58.5851 87.2632L57.5083 88.3075ZM61.4637 91.887C63.9845 90.9742 66.266 89.5055 68.1414 87.5902L67.0697 86.5407C65.3515 88.2953 63.2618 89.6406 60.953 90.4766L61.4637 91.887ZM68.1364 86.5356C66.7726 85.1693 65.4087 83.8039 64.0434 82.4394L62.9831 83.5005C64.3478 84.8643 65.7112 86.2292 67.0748 87.5953L68.1364 86.5356ZM62.9802 82.4423C61.2939 84.1459 59.4932 85.7321 57.5905 87.19L58.5029 88.3807C60.4597 86.8811 62.3119 85.2497 64.0463 83.4976L62.9802 82.4423ZM67.8062 78.0425C68.9225 79.1244 70.0615 80.1851 71.2246 81.2245L72.2241 80.106C71.0763 79.0803 69.952 78.0334 68.8502 76.9654L67.8062 78.0425ZM70.0905 72.8855C69.9998 72.7951 70.0628 72.7449 70.0378 72.9589C70.0145 73.1583 69.9254 73.462 69.7375 73.8763C69.3652 74.697 68.6816 75.7873 67.729 77.053L68.9275 77.955C69.9089 76.6509 70.666 75.4605 71.1035 74.496C71.3205 74.0176 71.4786 73.5526 71.5276 73.1329C71.5749 72.7278 71.5353 72.2082 71.15 71.8237L70.0905 72.8855ZM61.7646 71.7435C62.7995 72.9056 63.8553 74.0459 64.9316 75.1641L66.0123 74.124C64.9495 73.0196 63.9069 71.8936 62.8848 70.746L61.7646 71.7435ZM65.9227 75.2435C67.188 74.292 68.2775 73.609 69.0978 73.237C69.5119 73.0492 69.8155 72.9603 70.0149 72.937C70.2288 72.9121 70.1798 72.9748 70.0901 72.8852L71.1503 71.824C70.7656 71.4398 70.2467 71.3998 69.8413 71.4471C69.4215 71.496 68.9565 71.654 68.4784 71.8709C67.5142 72.308 66.3246 73.0644 65.0212 74.0446L65.9227 75.2435ZM53.4273 89.5472C53.5171 89.637 53.4545 89.6863 53.4793 89.4727C53.5026 89.2734 53.5915 88.97 53.7791 88.556C54.151 87.7358 54.8339 86.6463 55.7855 85.3804L54.5864 84.4791C53.6063 85.783 52.85 86.9727 52.413 87.9366C52.1963 88.4147 52.0383 88.8795 51.9894 89.2991C51.9422 89.7045 51.9822 90.2234 52.3667 90.6078L53.4273 89.5472ZM61.7673 90.6817C60.7274 89.5194 59.6664 88.3799 58.5855 87.2636L57.5079 88.3071C58.5752 89.4093 59.6227 90.5344 60.6494 91.6819L61.7673 90.6817ZM57.5959 87.186C56.3299 88.1381 55.24 88.8218 54.4194 89.1943C54.0052 89.3824 53.7015 89.4715 53.5019 89.4949C53.288 89.5199 53.3372 89.4571 53.4271 89.5469L52.367 90.6081C52.7518 90.9925 53.271 91.0322 53.6764 90.9847C54.0961 90.9356 54.5612 90.7773 55.0394 90.5602C56.0036 90.1225 57.1936 89.3655 58.4975 88.3847L57.5959 87.186ZM58.5847 87.2639C57.6419 86.289 56.6827 85.3311 55.7065 84.3898L54.6653 85.4696C55.6289 86.3987 56.5757 87.3443 57.5065 88.3067L58.5847 87.2639ZM52.367 90.6081C52.7517 90.9925 53.2708 91.0322 53.6762 90.9847C54.0959 90.9355 54.5608 90.7772 55.0389 90.5602C56.0029 90.1225 57.1925 89.3654 58.4964 88.3847L57.5948 87.1859C56.3288 88.1381 55.2391 88.8218 54.4188 89.1944C54.0047 89.3824 53.7011 89.4715 53.5017 89.4949C53.288 89.5199 53.3373 89.4572 53.4271 89.5469L52.367 90.6081ZM68.8494 76.9647C67.8871 76.0346 66.9409 75.0876 66.012 74.1236L64.9319 75.1645C65.8733 76.1415 66.8321 77.1011 67.807 78.0433L68.8494 76.9647ZM59.4728 79.9909C60.6425 81.1612 61.8132 82.3311 62.983 83.5004L64.0434 82.4395C62.8735 81.2701 61.7031 80.1005 60.5337 78.9305L59.4728 79.9909ZM59.4769 78.9277C57.7241 80.6628 56.0919 82.5158 54.5919 84.4735L55.7825 85.3858C57.241 83.4823 58.828 81.6807 60.5322 79.9937L59.4769 78.9277ZM54.6668 85.4698C55.6313 86.3991 56.5779 87.3446 57.5074 88.3065L58.586 87.2642C57.6443 86.2896 56.6851 85.3314 55.7076 84.3896L54.6668 85.4698ZM64.0434 82.4395C62.8747 81.2713 61.7055 80.1016 60.535 78.9305L59.4741 79.9909C60.6446 81.162 61.814 82.3319 62.983 83.5004L64.0434 82.4395ZM42.4421 74.6094C42.5223 73.2275 42.6201 71.8467 42.7474 70.4647L41.2537 70.3271C41.1245 71.7299 41.0256 73.128 40.9446 74.5224L42.4421 74.6094ZM42.4981 69.8347C40.2213 67.8157 37.2874 66.6944 34.2443 66.6802L34.2373 68.1802C36.9161 68.1927 39.4987 69.1798 41.5029 70.9571L42.4981 69.8347ZM33.4908 67.431C33.4927 69.2682 33.4927 71.1059 33.4908 72.9443L34.9908 72.9458C34.9927 71.1064 34.9927 69.2676 34.9908 67.4295L33.4908 67.431ZM34.249 73.695C36.7106 73.6682 39.1464 74.198 41.3744 75.2447L42.0123 73.8871C39.5796 72.7442 36.9202 72.1658 34.2327 72.1951L34.249 73.695ZM34.2374 66.6802C31.1947 66.694 28.2612 67.8155 25.9852 69.8349L26.9808 70.9569C28.9841 69.1794 31.5661 68.1924 34.2442 68.1802L34.2374 66.6802ZM25.7362 70.4654C25.8646 71.8459 25.9612 73.2262 26.0408 74.609L27.5383 74.5228C27.458 73.1281 27.3603 71.7294 27.2298 70.3264L25.7362 70.4654ZM27.1084 75.2447C29.3362 74.1983 31.7716 73.6686 34.2328 73.695L34.2489 72.1951C31.5618 72.1662 28.903 72.7446 26.4707 73.887L27.1084 75.2447ZM40.9294 87.9146C41.0062 89.3151 41.1076 90.7178 41.2336 92.1227L42.7276 91.9888C42.6032 90.601 42.503 89.2156 42.4271 87.8325L40.9294 87.9146ZM42.4791 92.6161C44.0866 91.1858 45.3688 89.4274 46.2391 87.4596L44.8672 86.8529C44.0837 88.6246 42.9293 90.2077 41.482 91.4954L42.4791 92.6161ZM46.2391 87.4596C47.1093 85.4917 47.5475 83.3601 47.524 81.2086L46.0241 81.2249C46.0453 83.1621 45.6508 85.0812 44.8672 86.8529L46.2391 87.4596ZM46.0241 81.2166C46.0235 83.5458 44.3021 85.7596 41.3495 87.1994L42.007 88.5477C45.2336 86.9742 47.5234 84.3463 47.5241 81.2169L46.0241 81.2166ZM33.4908 89.4868C33.4908 91.324 33.4912 93.1622 33.4921 95.0013L34.9921 95.0006C34.9912 93.1617 34.9908 91.3238 34.9908 89.4868H33.4908ZM34.2456 95.751C37.2781 95.7368 40.2021 94.624 42.4766 92.6183L41.4845 91.4932C39.4822 93.2589 36.9082 94.2385 34.2386 94.251L34.2456 95.751ZM42.7275 91.9878C42.6013 90.6003 42.5012 89.2155 42.4272 87.8334L40.9293 87.9137C41.0044 89.3144 41.1058 90.7177 41.2337 92.1236L42.7275 91.9878ZM41.3603 87.1943C39.1354 88.2357 36.7052 88.7628 34.2487 88.7369L34.2329 90.2368C36.9144 90.2651 39.5674 89.6897 41.9962 88.5528L41.3603 87.1943ZM25.9835 69.8364C24.382 71.2662 23.1054 73.0222 22.239 74.9864L23.6114 75.5918C24.3914 73.8234 25.5408 72.2425 26.9825 70.9554L25.9835 69.8364ZM22.239 74.9864C21.3725 76.9507 20.9366 79.0776 20.9605 81.2243L22.4604 81.2076C22.4389 79.275 22.8313 77.3602 23.6114 75.5918L22.239 74.9864ZM22.4604 81.216C22.4604 78.8897 24.1746 76.6797 27.1191 75.2396L26.46 73.8922C23.241 75.4665 20.9603 78.091 20.9604 81.216L22.4604 81.216ZM47.524 81.2251C47.5479 79.0782 47.1119 76.9509 46.2452 74.9865L44.8728 75.5919C45.6531 77.3604 46.0456 79.2756 46.0241 81.2084L47.524 81.2251ZM46.2452 74.9865C45.3786 73.0222 44.1018 71.2661 42.4999 69.8364L41.5011 70.9554C42.9431 72.2425 44.0926 73.8234 44.8728 75.5919L46.2452 74.9865ZM41.364 75.2397C44.3093 76.6791 46.0235 78.8898 46.0241 81.2169L47.5241 81.2166C47.5234 78.0912 45.2432 75.466 42.0227 73.8921L41.364 75.2397ZM34.233 88.7369C31.7776 88.7626 29.348 88.2353 27.1242 87.1941L26.4881 88.5526C28.9159 89.6892 31.5682 90.2649 34.2487 90.2368L34.233 88.7369ZM26.0573 87.8319C25.9808 89.2152 25.8804 90.6002 25.7562 91.9868L27.2502 92.1206C27.376 90.7171 27.4776 89.3151 27.555 87.9147L26.0573 87.8319ZM26.0068 92.616C28.2807 94.6233 31.2056 95.7373 34.2387 95.751L34.2455 94.251C31.5757 94.2389 29.001 93.2584 26.9996 91.4915L26.0068 92.616ZM20.9605 81.2076C20.9364 83.3591 21.3742 85.4907 22.2445 87.4585L23.6163 86.8518C22.8329 85.0803 22.4387 83.1613 22.4604 81.2244L20.9605 81.2076ZM22.2445 87.4585C23.1147 89.4263 24.3969 91.1844 26.0048 92.6142L27.0016 91.4932C25.5541 90.2061 24.3998 88.6233 23.6163 86.8518L22.2445 87.4585ZM27.2501 92.1217C27.378 90.7177 27.4796 89.315 27.5551 87.9137L26.0572 87.833C25.9828 89.2157 25.8825 90.6 25.7563 91.9857L27.2501 92.1217ZM27.1348 87.1992C24.1811 85.7594 22.4604 83.5457 22.4604 81.216H20.9604C20.9604 84.346 23.2495 86.974 26.4775 88.5475L27.1348 87.1992ZM41.4136 82.4928C39.0377 82.8073 36.6431 82.959 34.2465 82.9468L34.2389 84.4468C36.7039 84.4594 39.1668 84.3033 41.6105 83.9798L41.4136 82.4928ZM33.4927 83.6966C33.4921 85.6264 33.4914 87.5563 33.4908 89.4866L34.9908 89.4871C34.9914 87.5568 34.9921 85.6269 34.9927 83.6971L33.4927 83.6966ZM42.4271 87.8322C42.3422 86.295 42.2874 84.7589 42.2619 83.2238L40.7621 83.2487C40.788 84.8028 40.8434 86.3583 40.9294 87.9149L42.4271 87.8322ZM26.0408 74.6094C26.13 76.1443 26.1895 77.6777 26.2193 79.2097L27.7191 79.1805C27.6889 77.6292 27.6286 76.0765 27.5383 74.5224L26.0408 74.6094ZM27.0677 79.9386C29.445 79.6237 31.841 79.4718 34.2391 79.484L34.2467 77.984C31.7802 77.9715 29.3158 78.1278 26.8707 78.4516L27.0677 79.9386ZM34.9929 78.7337C34.9922 76.8032 34.9914 74.8736 34.9908 72.9448L33.4908 72.9453C33.4914 74.8741 33.4922 76.8038 33.4929 78.7343L34.9929 78.7337ZM42.265 79.2091C42.2935 77.677 42.3525 76.1438 42.4421 74.6096L40.9446 74.5222C40.8539 76.0762 40.7941 77.6292 40.7652 79.1812L42.265 79.2091ZM34.2467 79.484C36.6443 79.4717 39.0397 79.6236 41.4166 79.9386L41.6137 78.4516C39.1689 78.1276 36.7051 77.9714 34.239 77.984L34.2467 79.484ZM26.2223 83.2247C26.1987 84.7591 26.1437 86.2945 26.0573 87.8313L27.555 87.9154C27.6424 86.3583 27.6982 84.8026 27.7221 83.2479L26.2223 83.2247ZM34.9908 89.4876C34.9927 87.5567 34.9933 85.6265 34.9927 83.6966L33.4927 83.6971C33.4933 85.6264 33.4927 87.5559 33.4908 89.4861L34.9908 89.4876ZM34.2389 82.9468C31.8418 82.9591 29.447 82.8074 27.0707 82.4928L26.8738 83.9798C29.3179 84.3034 31.7811 84.4594 34.2465 84.4468L34.2389 82.9468ZM40.7621 83.2481C40.7867 84.8026 40.8421 86.3584 40.9294 87.9155L42.4271 87.8316C42.3409 86.2948 42.2862 84.7591 42.262 83.2244L40.7621 83.2481ZM46.0241 81.2173C46.024 81.0892 46.104 81.0982 45.9349 81.2319C45.7774 81.3564 45.4997 81.5081 45.0739 81.668C44.2303 81.9849 42.976 82.2723 41.4072 82.4937L41.6168 83.9789C43.233 83.7509 44.61 83.4446 45.6014 83.0722C46.093 82.8875 46.5337 82.6706 46.8651 82.4086C47.185 82.1558 47.5245 81.7605 47.5241 81.2162L46.0241 81.2173ZM40.9435 74.5225C40.8538 76.076 40.794 77.6287 40.7641 79.1806L42.2638 79.2094C42.2933 77.6768 42.3524 76.1433 42.441 74.609L40.9435 74.5225ZM41.4089 79.9376C42.9764 80.1593 44.2299 80.4467 45.0732 80.7638C45.4988 80.9239 45.7765 81.0757 45.9341 81.2004C46.103 81.334 46.0242 81.3438 46.0241 81.2173L47.5241 81.2162C47.5237 80.6725 47.185 80.2773 46.8648 80.024C46.5333 79.7618 46.0927 79.5447 45.6012 79.3598C44.6101 78.9872 43.2338 78.6808 41.619 78.4524L41.4089 79.9376ZM47.5241 81.2166C47.5234 78.0911 45.2419 75.4658 42.0215 73.892L41.3629 75.2396C44.3084 76.6791 46.0235 78.8899 46.0241 81.2169L47.5241 81.2166ZM22.4604 81.216C22.4604 81.343 22.3812 81.3335 22.5499 81.2001C22.7072 81.0756 22.9846 80.9239 23.4101 80.764C24.2531 80.4471 25.5064 80.1597 27.0743 79.9377L26.8641 78.4525C25.249 78.6812 23.8729 78.9875 22.8823 79.3599C22.3909 79.5446 21.9505 79.7616 21.6192 80.0237C21.2991 80.277 20.9604 80.6722 20.9604 81.2159L22.4604 81.216ZM27.555 87.9147C27.641 86.3575 27.6967 84.8022 27.7221 83.2486L26.2223 83.224C26.1973 84.7582 26.1422 86.2941 26.0573 87.832L27.555 87.9147ZM27.0772 82.4937C25.5086 82.272 24.2545 81.9847 23.411 81.6679C22.9852 81.5079 22.7075 81.3562 22.5499 81.2317C22.381 81.0982 22.4604 81.0887 22.4604 81.216H20.9604C20.9604 81.76 21.2995 82.1553 21.6196 82.4084C21.9512 82.6705 22.3919 82.8874 22.8835 83.0721C23.8748 83.4444 25.2515 83.7505 26.8673 83.9789L27.0772 82.4937ZM27.7221 83.2489C27.7449 81.8929 27.7439 80.537 27.7191 79.1814L26.2193 79.2088C26.2438 80.5469 26.2448 81.8852 26.2223 83.2237L27.7221 83.2489ZM42.2619 83.2237C42.2395 81.8859 42.2405 80.5475 42.265 79.2089L40.7652 79.1814C40.7404 80.5376 40.7394 81.8935 40.7622 83.2489L42.2619 83.2237ZM33.4929 78.7337C33.4922 80.3883 33.4921 82.0428 33.4927 83.6971L34.9927 83.6965C34.9921 82.0427 34.9922 80.3886 34.9929 78.7343L33.4929 78.7337ZM26.2193 79.209C26.2442 80.5479 26.2452 81.8861 26.2223 83.2235L27.7221 83.2491C27.7452 81.8939 27.7442 80.5379 27.7191 79.1812L26.2193 79.209ZM34.9927 83.6965C34.9921 82.0442 34.9922 80.39 34.9929 78.7343L33.4929 78.7337C33.4922 80.3897 33.4921 82.0443 33.4927 83.6971L34.9927 83.6965ZM47.5241 81.2162C47.5237 80.6727 47.1852 80.2775 46.8651 80.0241C46.5337 79.7618 46.0932 79.5447 45.6018 79.3599C44.611 78.9872 43.235 78.6809 41.6202 78.4525L41.4101 79.9377C42.9776 80.1595 44.2308 80.4468 45.0737 80.7639C45.4992 80.9239 45.7767 81.0757 45.9342 81.2003C46.1029 81.3339 46.0242 81.3437 46.0241 81.2173L47.5241 81.2162ZM25.2542 62.8853C26.2865 61.9659 27.3358 61.0607 28.4022 60.1696L27.4404 59.0186C26.362 59.9197 25.3007 60.8352 24.2566 61.7651L25.2542 62.8853ZM28.67 59.5492C28.4877 56.5115 27.2059 53.644 25.064 51.4823L23.9985 52.5381C25.8839 54.4409 27.0122 56.9651 27.1727 59.639L28.67 59.5492ZM24.0005 51.4802C22.7024 52.7802 21.4028 54.0798 20.1019 55.379L21.1618 56.4403C22.4632 55.1407 23.7633 53.8406 25.0619 52.5402L24.0005 51.4802ZM20.1073 56.4457C21.8668 58.1673 23.2146 60.2641 24.0499 62.5797L25.4609 62.0707C24.5489 59.5425 23.0774 57.2531 21.1563 55.3736L20.1073 56.4457ZM21.1636 56.4403C22.4645 55.1405 23.7644 53.8406 25.0634 52.5404L24.0023 51.4802C22.7036 52.7801 21.404 54.0797 20.1034 55.3792L21.1636 56.4403ZM25.0608 51.4776C22.8994 49.3357 20.0319 48.0542 16.9944 47.8728L16.9049 49.3702C19.5785 49.5298 22.1025 50.6577 24.0049 52.5431L25.0608 51.4776ZM16.3724 48.1426C15.4874 49.2094 14.5798 50.2535 13.658 51.2878L14.7778 52.2858C15.7076 51.2425 16.6274 50.1845 17.5269 49.1004L16.3724 48.1426ZM13.9635 52.4923C16.2789 53.3275 18.3758 54.6751 20.0974 56.4344L21.1695 55.3852C19.2898 53.4644 17.0005 51.9932 14.4724 51.0813L13.9635 52.4923ZM14.7769 71.2243C13.841 72.269 12.9209 73.3324 12.0167 74.4146L13.1677 75.3764C14.061 74.3074 14.9698 73.2569 15.8941 72.2252L14.7769 71.2243ZM12.5485 75.6442C14.6964 75.7697 16.8463 75.4331 18.8531 74.657L18.3121 73.258C16.5054 73.9567 14.5698 74.2598 12.6359 74.1468L12.5485 75.6442ZM18.8531 74.657C20.8599 73.881 22.677 72.6836 24.1817 71.1456L23.1095 70.0966C21.7548 71.4813 20.1189 72.5593 18.3121 73.258L18.8531 74.657ZM23.1153 70.0907C21.4685 71.7371 18.6853 72.0854 15.5798 71.0156L15.0912 72.4338C18.4851 73.603 21.963 73.3637 24.1758 71.1515L23.1153 70.0907ZM8.40515 67.0765C7.10605 68.3755 5.80658 69.6754 4.50675 70.9761L5.56777 72.0364C6.86747 70.7358 8.16681 69.4361 9.46578 68.1372L8.40515 67.0765ZM4.50933 72.039C6.66345 74.1737 9.51855 75.4545 12.5453 75.644L12.6391 74.147C9.97464 73.9801 7.46139 72.8527 5.56519 70.9735L4.50933 72.039ZM13.1683 75.3757C14.0603 74.3055 14.9686 73.2555 15.8935 72.2259L14.7776 71.2235C13.8402 72.2671 12.9197 73.331 12.0161 74.4153L13.1683 75.3757ZM15.5911 71.0196C13.2815 70.1826 11.1901 68.837 9.47128 67.0821L8.39964 68.1316C10.2759 70.0474 12.5589 71.5162 15.08 72.4299L15.5911 71.0196ZM14.7765 52.2858C15.7063 51.2425 16.6261 50.1845 17.5256 49.1003L16.3711 48.1426C15.4861 49.2093 14.5785 50.2534 13.6567 51.2878L14.7765 52.2858ZM16.9908 47.8726C14.8474 47.7512 12.7029 48.09 10.7014 48.8663L11.2438 50.2648C13.0457 49.5659 14.9763 49.2609 16.9059 49.3702L16.9908 47.8726ZM10.7014 48.8663C8.69986 49.6426 6.88775 50.8384 5.38686 52.3734L6.45935 53.422C7.81054 52.0402 9.44192 50.9636 11.2438 50.2648L10.7014 48.8663ZM6.45354 53.4279C8.09782 51.783 10.873 51.4324 13.9732 52.4962L14.46 51.0774C11.0708 49.9144 7.60181 50.1575 5.39267 52.3675L6.45354 53.4279ZM24.17 71.1573C25.7051 69.656 26.9 67.8438 27.6763 65.8421L26.2777 65.2998C25.5788 67.1021 24.5031 68.7335 23.1212 70.0849L24.17 71.1573ZM27.6763 65.8421C28.4525 63.8404 28.7917 61.6954 28.6701 59.5516L27.1725 59.6366C27.282 61.5664 26.9767 63.4975 26.2777 65.2998L27.6763 65.8421ZM27.4421 59.0172C26.3595 59.9166 25.2971 60.833 24.255 61.7665L25.2558 62.8838C26.284 61.9628 27.3323 61.0586 28.4006 60.171L27.4421 59.0172ZM24.046 62.5688C25.1108 65.6694 24.7604 68.4446 23.1151 70.091L24.1761 71.1513C26.3857 68.9403 26.629 65.4718 25.4647 62.0816L24.046 62.5688ZM9.46027 67.071C7.70607 65.3529 6.36176 63.2617 5.5253 60.9527L4.11499 61.4637C5.02798 63.9839 6.49544 66.2667 8.41066 68.1426L9.46027 67.071ZM4.32004 60.6493C3.28755 61.5731 2.23719 62.4814 1.16897 63.3742L2.13089 64.5251C3.212 63.6216 4.27512 62.7023 5.32025 61.7671L4.32004 60.6493ZM0.901372 63.9962C1.08955 67.0234 2.36921 69.8798 4.50458 72.0342L5.56994 70.9783C3.6906 69.0822 2.56414 66.568 2.39848 63.9031L0.901372 63.9962ZM5.39879 52.3614C3.86016 53.8657 2.66349 55.6827 1.88745 57.6892L3.28646 58.2303C3.98524 56.4235 5.06258 54.7879 6.44742 53.434L5.39879 52.3614ZM1.88745 57.6892C1.11132 59.696 0.775189 61.8457 0.901215 63.9936L2.39864 63.9057C2.28518 61.972 2.58779 60.0368 3.28646 58.2303L1.88745 57.6892ZM2.13001 64.5259C3.21313 63.6235 4.27683 62.7036 5.32111 61.7664L4.31918 60.65C3.28867 61.575 2.23889 62.4828 1.16985 63.3734L2.13001 64.5259ZM5.5292 60.9638C4.45818 57.8569 4.80604 55.0748 6.45334 53.4281L5.39287 52.3673C3.17912 54.5802 2.94076 58.0577 4.11109 61.4526L5.5292 60.9638ZM18.9534 67.7325C17.0509 66.2749 15.2504 64.6889 13.5644 62.9854L12.4983 64.0406C14.2324 65.7927 16.0843 67.424 18.0411 68.9232L18.9534 67.7325ZM12.5011 62.9826C11.1363 64.3468 9.77055 65.7117 8.40525 67.0764L9.46568 68.1373C10.8311 66.7725 12.1965 65.4079 13.5616 64.0435L12.5011 62.9826ZM15.8943 72.225C16.9212 71.078 17.9689 69.9528 19.0363 68.8493L17.9582 67.8064C16.8775 68.9236 15.8166 70.0629 14.7767 71.2245L15.8943 72.225ZM21.1679 55.3851C19.2882 53.4643 16.9992 51.9931 14.4711 51.0813L13.9622 52.4923C16.2776 53.3275 18.3742 54.6749 20.0958 56.4342L21.1679 55.3851ZM13.6564 51.2881C12.6343 52.4364 11.5921 53.5628 10.5297 54.6673L11.6107 55.7072C12.6866 54.5887 13.7419 53.4481 14.7768 52.2854L13.6564 51.2881ZM10.6141 55.7826C12.5178 57.2409 14.3196 58.8276 16.0068 60.5316L17.0727 59.4762C15.3374 57.7236 13.4842 56.0917 11.5263 54.5919L10.6141 55.7826ZM17.0702 60.5342C18.4345 59.1694 19.7986 57.8042 21.1623 56.4399L20.1014 55.3794C18.7372 56.7442 17.3738 58.1087 16.0093 59.4737L17.0702 60.5342ZM21.877 66.013C22.9807 64.9494 24.1066 63.9069 25.2548 62.8857L24.2579 61.7649C23.0949 62.7994 21.9542 63.8554 20.8361 64.9329L21.877 66.013ZM25.4619 62.0708C24.55 59.5427 23.0791 57.2533 21.158 55.3737L20.1089 56.4459C21.8684 58.1673 23.2156 60.2641 24.0509 62.5798L25.4619 62.0708ZM20.1031 55.3795C18.7389 56.7436 17.3733 58.1085 16.0092 59.4739L17.0703 60.534C18.4341 59.1691 19.7992 57.8046 21.1638 56.4401L20.1031 55.3795ZM16.0121 60.537C17.7162 62.2238 19.3034 64.0254 20.7611 65.9289L21.952 65.0169C20.4525 63.0588 18.82 61.2058 17.0674 59.4709L16.0121 60.537ZM7.6947 57.5082C6.59308 58.5765 5.46799 59.6234 4.32038 60.649L5.31991 61.7674C6.48249 60.7285 7.62249 59.6677 8.73896 58.585L7.6947 57.5082ZM4.11499 61.4637C5.02807 63.9841 6.49704 66.2669 8.41209 68.1426L9.46169 67.071C7.70732 65.3526 6.36168 63.2615 5.5253 60.9527L4.11499 61.4637ZM9.46688 68.1375C10.8333 66.7728 12.1976 65.4079 13.5618 64.0432L12.5009 62.9828C11.1367 64.3475 9.77277 65.712 8.4069 67.0761L9.46688 68.1375ZM13.559 62.98C11.8555 61.2938 10.2702 59.4932 8.81215 57.5904L7.6215 58.5027C9.12093 60.4596 10.7515 62.3116 12.5037 64.046L13.559 62.98ZM17.9575 67.8061C16.8756 68.923 15.8155 70.0626 14.7764 71.2248L15.8946 72.2246C16.9206 71.0771 17.9671 69.9521 19.0349 68.8497L17.9575 67.8061ZM23.115 70.0911C23.2056 70.0004 23.2558 70.0634 23.0416 70.0383C22.8421 70.0149 22.5383 69.9257 22.124 69.7377C21.3033 69.3651 20.213 68.6813 18.9472 67.7287L18.0452 68.9272C19.3493 69.9087 20.5397 70.6658 21.5041 71.1035C21.9824 71.3206 22.4474 71.4789 22.8669 71.5281C23.2718 71.5755 23.7915 71.5363 24.1762 71.1512L23.115 70.0911ZM24.2574 61.7654C23.0955 62.8008 21.9552 63.8565 20.8366 64.9324L21.8765 66.0135C22.9813 64.9508 24.1076 63.908 25.2554 62.8852L24.2574 61.7654ZM20.7572 65.9238C21.709 67.1891 22.392 68.2783 22.7638 69.0985C22.9515 69.5125 23.0404 69.8159 23.0635 70.0154C23.0884 70.2289 23.0258 70.1803 23.115 70.0911L24.1762 71.1512C24.5603 70.7666 24.6007 70.248 24.5535 69.8422C24.5047 69.4223 24.3468 68.9573 24.13 68.4791C23.6929 67.515 22.9364 66.3255 21.9559 65.0221L20.7572 65.9238ZM24.1761 71.1513C26.3856 68.9404 26.6301 65.4721 25.4657 62.0817L24.0471 62.5689C25.1118 65.6693 24.7605 68.4445 23.1151 70.091L24.1761 71.1513ZM6.45347 53.428C6.36365 53.5178 6.31427 53.4551 6.52784 53.48C6.72709 53.5032 7.03045 53.5922 7.44438 53.7799C8.26444 54.1518 9.3538 54.8348 10.6194 55.7867L11.521 54.5879C10.2173 53.6074 9.02777 52.8509 8.06392 52.4138C7.5859 52.197 7.12106 52.039 6.70144 51.9901C6.29613 51.9429 5.77721 51.9829 5.39274 52.3674L6.45347 53.428ZM5.32057 61.7668C6.48197 60.7265 7.62046 59.6662 8.73726 58.5857L7.69426 57.5076C6.59117 58.5749 5.46672 59.6221 4.31972 60.6496L5.32057 61.7668ZM8.81507 57.5957C7.86262 56.3298 7.1788 55.2399 6.80626 54.4194C6.61822 54.0052 6.52906 53.7016 6.50571 53.5022C6.48066 53.2883 6.5435 53.338 6.45341 53.4281L5.3928 52.3673C5.00803 52.7521 4.96843 53.2714 5.01589 53.6767C5.06504 54.0964 5.22335 54.5613 5.44044 55.0395C5.87819 56.0037 6.63537 57.1936 7.61645 58.4976L8.81507 57.5957ZM8.73717 58.5858C9.71215 57.6428 10.6693 56.6834 11.6101 55.7079L10.5303 54.6666C9.60142 55.6299 8.65653 56.5769 7.69434 57.5076L8.73717 58.5858ZM19.0365 68.8491C19.9666 67.8869 20.9134 66.9417 21.877 66.013L20.8361 64.9329C19.8597 65.8739 18.9004 66.8317 17.958 67.8066L19.0365 68.8491ZM16.0096 59.4735C14.8393 60.6431 13.6702 61.8129 12.5009 62.9828L13.5618 64.0432C14.7312 62.8732 15.9 61.7037 17.07 60.5344L16.0096 59.4735ZM10.5301 54.6669C9.60115 55.631 8.65642 56.5779 7.69458 57.5073L8.73694 58.586C9.7119 57.6438 10.6692 56.6843 11.6103 55.7076L10.5301 54.6669ZM7.62043 58.5028C9.11997 60.4598 10.7516 62.3117 12.5037 64.046L13.559 62.98C11.8554 61.2937 10.269 59.4931 8.81108 57.5905L7.62043 58.5028ZM13.5618 64.0432C14.7302 62.8743 15.899 61.7048 17.07 60.5344L16.0096 59.4735C14.8383 60.6442 13.6692 61.8139 12.5009 62.9828L13.5618 64.0432ZM18.0462 68.9271C19.3503 69.9086 20.5404 70.6658 21.5045 71.1035C21.9827 71.3206 22.4475 71.4789 22.8671 71.5281C23.2719 71.5755 23.7915 71.5362 24.1762 71.1512L23.115 70.0911C23.2056 70.0004 23.2558 70.0634 23.0418 70.0383C22.8424 70.0149 22.5388 69.9257 22.1246 69.7377C21.3041 69.3652 20.2141 68.6813 18.9482 67.7286L18.0462 68.9271ZM21.3919 42.4427C22.7736 42.5223 24.1541 42.6201 25.5359 42.748L25.6741 41.2544C24.2711 41.1245 22.8728 41.0256 21.4782 40.9452L21.3919 42.4427ZM26.1661 42.4988C28.1852 40.2219 29.3063 37.2879 29.32 34.2448L27.82 34.238C27.808 36.9167 26.8211 39.4994 25.0438 41.5036L26.1661 42.4988ZM28.5695 33.4914C26.7329 33.4926 24.8952 33.4926 23.0564 33.4914L23.0554 34.9914C24.8948 34.9926 26.7332 34.9926 28.5705 34.9914L28.5695 33.4914ZM22.306 34.2495C22.3326 36.7111 21.8029 39.1469 20.7562 41.3751L22.1139 42.0128C23.2566 39.5802 23.835 36.9208 23.8059 34.2333L22.306 34.2495ZM29.32 34.238C29.3063 31.195 28.1846 28.2613 26.1652 25.9851L25.0431 26.9806C26.8207 28.9842 27.808 31.5665 27.82 34.2448L29.32 34.238ZM25.5346 25.7361C24.1546 25.8645 22.7745 25.9611 21.391 26.0407L21.4772 27.5382C22.8726 27.4579 24.2711 27.3602 25.6736 27.2297L25.5346 25.7361ZM20.7554 27.1084C21.8023 29.3364 22.3326 31.7719 22.306 34.2333L23.8059 34.2495C23.8349 31.562 23.256 28.9028 22.1129 26.4705L20.7554 27.1084ZM8.08659 40.9299C6.68627 41.0072 5.28378 41.1086 3.87911 41.234L4.01246 42.7281C5.40038 42.6042 6.78601 42.504 8.16935 42.4276L8.08659 40.9299ZM3.38543 42.4795C4.81554 44.0871 6.57378 45.3693 8.54154 46.2396L9.14826 44.8677C7.37666 44.0842 5.79369 42.9299 4.50614 41.4825L3.38543 42.4795ZM8.54154 46.2396C10.5093 47.1098 12.6408 47.548 14.7923 47.5245L14.7759 46.0246C12.8389 46.0457 10.9199 45.6513 9.14826 44.8677L8.54154 46.2396ZM14.7841 46.0245C12.4557 46.0245 10.2414 44.3027 8.80214 41.3501L7.4538 42.0074C9.02662 45.234 11.6551 47.5245 14.7841 47.5245V46.0245ZM6.51354 33.4914C4.6765 33.4914 2.83859 33.4916 0.999832 33.492L1.00017 34.992C2.83882 34.9916 4.67661 34.9914 6.51354 34.9914V33.4914ZM0.250007 34.2454C0.263532 37.2781 1.37705 40.203 3.38336 42.4772L4.50821 41.4849C2.74206 39.4829 1.7619 36.9082 1.74999 34.2387L0.250007 34.2454ZM4.01371 42.7279C5.40123 42.6018 6.78601 42.5017 8.16808 42.4277L8.08786 40.9298C6.68711 41.0048 5.28377 41.1063 3.87786 41.2341L4.01371 42.7279ZM8.80725 41.3608C7.76594 39.1359 7.23817 36.7054 7.2635 34.2491L5.76358 34.2337C5.73593 36.915 6.31206 39.5681 7.44869 41.9967L8.80725 41.3608ZM21.4784 27.5382C22.8738 27.4579 24.2723 27.3601 25.6748 27.2296L25.5359 25.7361C24.1558 25.8645 22.7757 25.961 21.3922 26.0406L21.4784 27.5382ZM26.1649 25.9834C24.7352 24.3818 22.9792 23.1048 21.0149 22.2385L20.4096 23.6109C22.1779 24.3909 23.7588 25.5404 25.0458 26.9823L26.1649 25.9834ZM21.0149 22.2385C19.0506 21.3721 16.9235 20.9365 14.7768 20.9607L14.7937 22.4606C16.7263 22.4388 18.6412 22.831 20.4096 23.6109L21.0149 22.2385ZM14.7854 22.4607C17.1116 22.4601 19.3221 24.1746 20.7616 27.1188L22.1091 26.46C20.5353 23.2409 17.9102 20.96 14.7851 20.9607L14.7854 22.4607ZM14.7741 47.5245C16.9211 47.5485 19.0483 47.1125 21.0128 46.246L20.4074 44.8736C18.6388 45.6537 16.7237 46.0462 14.7909 46.0246L14.7741 47.5245ZM21.0128 46.246C22.9773 45.3795 24.7335 44.1024 26.1633 42.5006L25.0443 41.5017C23.7571 42.9437 22.176 44.0935 20.4074 44.8736L21.0128 46.246ZM25.6729 41.2544C24.2699 41.1246 22.8716 41.0256 21.477 40.9452L21.3908 42.4427C22.7724 42.5224 24.1529 42.6201 25.5347 42.748L25.6729 41.2544ZM20.7601 41.3646C19.3206 44.3093 17.1101 46.024 14.7823 46.0245L14.7826 47.5245C17.9087 47.5239 20.5338 45.2432 22.1077 42.0234L20.7601 41.3646ZM7.2635 34.2337C7.23816 31.7782 7.76566 29.3486 8.80693 27.1247L7.44846 26.4887C6.31177 28.9164 5.73592 31.5686 5.76358 34.2491L7.2635 34.2337ZM8.16941 26.0579C6.786 25.9808 5.40091 25.8802 4.01414 25.7562L3.8805 27.2502C5.2839 27.3758 6.68573 27.4775 8.08598 27.5555L8.16941 26.0579ZM3.38511 26.0068C1.37755 28.2805 0.263526 31.2055 0.250007 34.2387L1.74999 34.2454C1.76189 31.5756 2.74245 29.001 4.50953 26.9996L3.38511 26.0068ZM1.00024 34.992C2.8378 34.9914 4.67554 34.9912 6.51346 34.9914L6.51363 33.4914C4.67547 33.4912 2.83751 33.4914 0.999763 33.492L1.00024 34.992ZM14.7937 20.9607C12.6423 20.9364 10.5103 21.3741 8.54258 22.2443L9.14923 23.6162C10.9206 22.8328 12.84 22.4388 14.7768 22.4606L14.7937 20.9607ZM8.54258 22.2443C6.57485 23.1145 4.81649 24.397 3.38684 26.0048L4.5078 27.0016C5.79483 25.5541 7.37781 24.3995 9.14923 23.6162L8.54258 22.2443ZM3.87931 27.2501C5.28333 27.378 6.68595 27.4798 8.08718 27.5556L8.16822 26.0578C6.78543 25.983 5.40113 25.8825 4.01533 25.7563L3.87931 27.2501ZM8.80194 27.1352C10.2411 24.1811 12.456 22.4601 14.7851 22.4607L14.7854 20.9607C11.6558 20.96 9.02638 23.2495 7.45345 26.4782L8.80194 27.1352ZM13.5072 41.4135C13.1924 39.0377 13.0407 36.6431 13.0533 34.2466L11.5533 34.2387C11.5404 36.7038 11.6964 39.1668 12.0202 41.6105L13.5072 41.4135ZM12.3035 33.4926C10.3736 33.492 8.44322 33.4916 6.51251 33.4914L6.51236 34.9914C8.44295 34.9916 10.3732 34.992 12.303 34.9926L12.3035 33.4926ZM5.76248 34.2337C5.73483 36.9149 6.31066 39.5681 7.44731 41.9966L8.80587 41.3608C7.76458 39.136 7.23707 36.7054 7.2624 34.2491L5.76248 34.2337ZM8.16797 42.4276C9.7053 42.3426 11.2414 42.2874 12.7762 42.2619L12.7513 40.7621C11.1971 40.7879 9.64175 40.8438 8.08521 40.9298L8.16797 42.4276ZM21.3906 26.0407C19.8563 26.13 18.3237 26.1895 16.7912 26.2192L16.8203 27.7189C18.3722 27.6888 19.9242 27.6285 21.4777 27.5382L21.3906 26.0407ZM16.0622 27.0676C16.3773 29.4449 16.5293 31.841 16.5174 34.239L18.0174 34.2465C18.0297 31.78 17.8732 29.3156 17.5492 26.8706L16.0622 27.0676ZM17.2677 34.9927C19.1976 34.9921 21.1266 34.9916 23.056 34.9914L23.0558 33.4914C21.1263 33.4916 19.1971 33.4921 17.2672 33.4927L17.2677 34.9927ZM16.7918 42.2649C18.3244 42.2934 19.8572 42.3527 21.3911 42.4427L21.479 40.9453C19.9251 40.8541 18.3724 40.7941 16.8197 40.7652L16.7918 42.2649ZM16.5174 34.2465C16.5296 36.6441 16.3775 39.0396 16.0622 41.4164L17.5492 41.6137C17.8735 39.169 18.0299 36.705 18.0174 34.2389L16.5174 34.2465ZM12.7753 26.2221C11.2403 26.1985 9.70475 26.1436 8.1685 26.0577L8.08468 27.5553C9.64109 27.6424 11.1969 27.698 12.7522 27.7219L12.7753 26.2221ZM7.44736 26.4885C6.31066 28.9162 5.73481 31.5686 5.76248 34.2491L7.2624 34.2337C7.23705 31.7782 7.76456 29.3484 8.80583 27.1245L7.44736 26.4885ZM6.51195 34.9914C8.44326 34.9926 10.3738 34.9931 12.3034 34.9926L12.3031 33.4926C10.3739 33.4931 8.44379 33.4926 6.51292 33.4914L6.51195 34.9914ZM13.0533 34.2388C13.041 31.8418 13.1927 29.4468 13.5073 27.0705L12.0202 26.8736C11.6967 29.3177 11.5407 31.7811 11.5533 34.2465L13.0533 34.2388ZM7.45242 42.0073C9.02532 45.2341 11.6553 47.5245 14.7841 47.5245V46.0245C12.4556 46.0245 10.2399 44.3024 8.80076 41.3501L7.45242 42.0073ZM14.7836 46.0245C14.9117 46.0244 14.9026 46.1044 14.7688 45.9352C14.6443 45.7777 14.4925 45.4999 14.3324 45.074C14.0153 44.2303 13.7278 42.9758 13.5064 41.4072L12.0211 41.6168C12.2492 43.233 12.5557 44.6102 12.9283 45.6017C13.1131 46.0934 13.3301 46.5341 13.5922 46.8655C13.845 47.1854 14.2404 47.5249 14.7847 47.5245L14.7836 46.0245ZM21.4771 40.9452C19.9231 40.8555 18.3702 40.7955 16.8186 40.7652L16.7893 42.265C18.3218 42.2949 19.8556 42.3541 21.3907 42.4427L21.4771 40.9452ZM16.0613 41.4101C15.8396 42.978 15.5524 44.2315 15.2355 45.0745C15.0755 45.5 14.9238 45.7775 14.7992 45.9348C14.6658 46.1033 14.6561 46.0245 14.7825 46.0245V47.5245C15.3263 47.5245 15.7217 47.1862 15.9753 46.8659C16.2377 46.5344 16.4548 46.0938 16.6395 45.6024C17.0121 44.6115 17.3182 43.2352 17.5466 41.6201L16.0613 41.4101ZM16.82 27.7189C18.372 27.6894 19.9253 27.6291 21.4792 27.5381L21.3915 26.0407C19.8572 26.1305 18.3236 26.1901 16.7914 26.2192L16.82 27.7189ZM14.7852 22.4607C14.6583 22.4607 14.6678 22.3815 14.8012 22.5501C14.9257 22.7074 15.0773 22.9848 15.2373 23.4102C15.5541 24.253 15.8414 25.5062 16.0631 27.0741L17.5483 26.8641C17.3199 25.2489 17.0138 23.873 16.6413 22.8823C16.4566 22.391 16.2396 21.9506 15.9775 21.6193C15.7242 21.2993 15.329 20.9607 14.7853 20.9607L14.7852 22.4607ZM8.08658 27.5556C9.64312 27.641 11.1973 27.6963 12.7514 27.7219L12.7761 26.2221C11.2412 26.1969 9.70613 26.1422 8.16882 26.0578L8.08658 27.5556ZM13.5064 27.0769C13.7278 25.5085 14.0151 24.2545 14.3321 23.4112C14.4921 22.9855 14.6438 22.7078 14.7684 22.5503C14.902 22.3813 14.9114 22.4608 14.784 22.4608V20.9608C14.24 20.9608 13.8448 21.2999 13.5918 21.6199C13.3297 21.9513 13.1127 22.3919 12.928 22.8835C12.5555 23.8746 12.2492 25.2513 12.0211 26.8672L13.5064 27.0769ZM14.7841 20.9608C11.6544 20.9601 9.02631 23.2496 7.45345 26.4782L8.80194 27.1352C10.2411 24.1809 12.4548 22.4602 14.7838 22.4608L14.7841 20.9608ZM12.7522 27.722C14.1082 27.7447 15.4642 27.7437 16.8194 27.719L16.792 26.2192C15.4544 26.2437 14.1158 26.2447 12.7773 26.2222L12.7522 27.722ZM14.7852 20.9607C14.2413 20.9607 13.8461 21.2998 13.5931 21.6198C13.331 21.9512 13.1139 22.3918 12.9292 22.8834C12.5566 23.8747 12.2503 25.2514 12.0221 26.8673L13.5074 27.077C13.7288 25.5086 14.0162 24.2546 14.3333 23.4112C14.4933 22.9855 14.645 22.7078 14.7696 22.5502C14.9033 22.3812 14.9127 22.4607 14.7852 22.4607V20.9607ZM11.5547 34.2388C11.5418 36.7038 11.6978 39.1668 12.0216 41.6105L13.5086 41.4135C13.1938 39.0377 13.0422 36.6431 13.0547 34.2466L11.5547 34.2388ZM12.7777 42.2619C14.1156 42.2395 15.4537 42.2405 16.792 42.2649L16.8194 40.7652C15.4636 40.7404 14.1079 40.7394 12.7526 40.7621L12.7777 42.2619ZM17.2677 33.4927C15.6131 33.4921 13.9586 33.492 12.3044 33.4927L12.305 34.9927C13.9588 34.992 15.6129 34.9921 17.2671 34.9927L17.2677 33.4927ZM12.0213 26.8737C11.6977 29.3179 11.5421 31.7812 11.5547 34.2465L13.0547 34.2388C13.0424 31.8418 13.1937 29.4468 13.5083 27.0706L12.0213 26.8737ZM12.305 34.9927C13.9574 34.992 15.6115 34.9921 17.2671 34.9927L17.2677 33.4927C15.6117 33.4921 13.9572 33.492 12.3044 33.4927L12.305 34.9927ZM12.0225 41.6168C12.2506 43.233 12.5567 44.6101 12.9289 45.6015C13.1135 46.0931 13.3303 46.5339 13.5922 46.8653C13.845 47.1853 14.2403 47.5249 14.7847 47.5245L14.7836 46.0245C14.9118 46.0244 14.9028 46.1045 14.7692 45.9354C14.6448 45.7779 14.4931 45.5001 14.3332 45.0742C14.0164 44.2305 13.7292 42.976 13.5078 41.4072L12.0225 41.6168ZM14.7841 47.5245C15.3279 47.5245 15.7234 47.1862 15.977 46.8659C16.2394 46.5344 16.4565 46.0938 16.6412 45.6024C17.0138 44.6114 17.3199 43.2351 17.5483 41.6201L16.0631 41.41C15.8414 42.978 15.5542 44.2314 15.2372 45.0745C15.0772 45.5 14.9255 45.7774 14.8009 45.9348C14.6675 46.1033 14.6578 46.0245 14.7841 46.0245V47.5245ZM33.1145 25.2559C34.0355 26.2893 34.9426 27.3342 35.8292 28.4019L36.9832 27.4437C36.0828 26.3593 35.1638 25.3009 34.2344 24.2579L33.1145 25.2559ZM36.4512 28.6715C39.4887 28.4889 42.356 27.2069 44.5174 25.0648L43.4615 23.9994C41.5589 25.885 39.035 27.0135 36.3612 27.1742L36.4512 28.6715ZM44.5195 24.0015C43.22 22.7033 41.9206 21.4039 40.6212 20.1033L39.56 21.1634C40.8598 22.4644 42.1596 23.7642 43.4594 25.0627L44.5195 24.0015ZM39.5546 20.1087C37.8326 21.8681 35.7355 23.2158 33.4199 24.0514L33.929 25.4624C36.4571 24.5501 38.7466 23.0787 40.6266 21.1579L39.5546 20.1087ZM44.5222 25.06C46.6639 22.8986 47.9461 20.0315 48.128 16.994L46.6307 16.9043C46.4705 19.5778 45.3421 22.1015 43.4567 24.0042L44.5222 25.06ZM47.8583 16.3719C46.7915 15.4868 45.7473 14.5793 44.7123 13.6573L43.7146 14.7774C44.7584 15.7072 45.8164 16.6268 46.9005 17.5263L47.8583 16.3719ZM43.5079 13.963C42.6732 16.2786 41.3254 18.3755 39.566 20.0973L40.6152 21.1693C42.536 19.2896 44.0076 17.0002 44.919 14.4717L43.5079 13.963ZM24.776 14.7772C23.731 13.842 22.6677 12.9221 21.5864 12.0174L20.6239 13.1679C21.6926 14.062 22.7432 14.971 23.7758 15.895L24.776 14.7772ZM20.3564 12.5489C20.2308 14.6969 20.5673 16.8468 21.3434 18.8537L22.7424 18.3127C22.0437 16.5059 21.7407 14.5703 21.8538 12.6364L20.3564 12.5489ZM21.3434 18.8537C22.1195 20.8605 23.317 22.6775 24.8551 24.1822L25.904 23.1099C24.5192 21.7553 23.4411 20.1194 22.7424 18.3127L21.3434 18.8537ZM25.9098 23.1156C24.263 21.4694 23.9146 18.6859 24.985 15.5804L23.5668 15.0917C22.3971 18.4854 22.6362 21.9642 24.8493 24.1764L25.9098 23.1156ZM28.9242 8.40538C27.6252 7.10631 26.3255 5.80687 25.0252 4.50706L23.9647 5.56792C25.265 6.86766 26.5645 8.16702 27.8635 9.46601L28.9242 8.40538ZM23.9623 4.50952C21.8274 6.66347 20.5459 9.51889 20.3566 12.5458L21.8536 12.6395C22.0203 9.97511 23.1483 7.46158 25.0276 5.56546L23.9623 4.50952ZM20.625 13.1688C21.6952 14.0607 22.7451 14.9691 23.7747 15.894L24.7771 14.7781C23.7336 13.8407 22.6697 12.9202 21.5853 12.0165L20.625 13.1688ZM24.981 15.5916C25.818 13.2822 27.164 11.1905 28.9187 9.47143L27.8689 8.39996C25.9537 10.2764 24.4844 12.5596 23.5708 15.0805L24.981 15.5916ZM48.1282 16.9916C48.2497 14.848 47.9103 12.7035 47.1339 10.7021L45.7354 11.2445C46.4345 13.0466 46.7399 14.9772 46.6306 16.9067L48.1282 16.9916ZM47.1339 10.7021C46.3575 8.70051 45.1615 6.88841 43.6263 5.38761L42.5777 6.4602C43.9598 7.8113 45.0365 9.44265 45.7354 11.2445L47.1339 10.7021ZM42.5719 6.45441C44.2173 8.0988 44.5683 10.8744 43.5041 13.9738L44.9228 14.4609C46.0864 11.0721 45.8428 7.60258 43.6322 5.39341L42.5719 6.45441ZM24.8433 24.1704C26.3445 25.7055 28.157 26.9015 30.1589 27.6779L30.7013 26.2794C28.8991 25.5804 27.2673 24.5036 25.9158 23.1216L24.8433 24.1704ZM30.1589 27.6779C32.1607 28.4543 34.3049 28.793 36.4486 28.6716L36.3638 27.174C34.4338 27.2833 32.5035 26.9784 30.7013 26.2794L30.1589 27.6779ZM33.4309 24.0475C30.3309 25.1118 27.5562 24.7614 25.9098 23.1156L24.8493 24.1764C27.0603 26.3867 30.5284 26.6299 33.918 25.4662L33.4309 24.0475ZM28.9296 9.46053C30.648 7.70629 32.739 6.36138 35.0479 5.52533L34.5373 4.11494C32.0166 5.02764 29.734 6.49584 27.858 8.41085L28.9296 9.46053ZM35.3517 4.3202C34.4278 3.28699 33.5194 2.23637 32.6266 1.16833L31.4757 2.13038C32.3792 3.21115 33.2985 4.27438 34.2335 5.32007L35.3517 4.3202ZM32.0046 0.900799C28.9772 1.08905 26.1214 2.36961 23.967 4.50479L25.0229 5.57019C26.9192 3.69076 29.433 2.56361 32.0977 2.39791L32.0046 0.900799ZM23.9648 5.56796C25.2643 6.86683 26.5639 8.16619 27.8634 9.46597L28.9242 8.40541C27.6245 7.10551 26.3249 5.80603 25.0252 4.50702L23.9648 5.56796ZM43.6383 5.39959C42.1344 3.86131 40.3185 2.66337 38.3118 1.8872L37.7707 3.28621C39.577 3.98484 41.2116 5.06319 42.5658 6.44822L43.6383 5.39959ZM38.3118 1.8872C36.3051 1.11108 34.155 0.774701 32.0072 0.900639L32.095 2.39807C34.0286 2.28469 35.9643 2.58753 37.7707 3.28621L38.3118 1.8872ZM31.4749 2.12941C32.3772 3.2125 33.2971 4.27637 34.2344 5.32101L35.3508 4.31925C34.4258 3.28833 33.518 2.23835 32.6274 1.16929L31.4749 2.12941ZM35.0371 5.52915C38.1436 4.45777 40.9253 4.80679 42.5715 6.45406L43.6325 5.39375C41.4203 3.18008 37.9433 2.94014 34.5481 4.11112L35.0371 5.52915ZM28.2675 18.9532C29.7249 17.0506 31.311 15.2501 33.0146 13.5643L31.9595 12.4981C30.2072 14.2321 28.5758 16.0841 27.0767 18.0411L28.2675 18.9532ZM33.0175 12.501C31.6531 11.136 30.2883 9.77085 28.9231 8.40549L27.8624 9.46608C29.2275 10.8314 30.5922 12.1965 31.9566 13.5614L33.0175 12.501ZM27.8679 8.40006C25.9525 10.2766 24.4844 12.5597 23.5708 15.0805L24.981 15.5916C25.818 13.2821 27.163 11.1905 28.9176 9.47152L27.8679 8.40006ZM23.7757 15.8949C24.9226 16.9216 26.0472 17.9688 27.1507 19.0362L28.1936 17.9581C27.0764 16.8774 25.9377 15.8171 24.7761 14.7773L23.7757 15.8949ZM44.7122 13.6573C43.5645 12.6352 42.4384 11.5929 41.3336 10.5303L40.2938 11.6114C41.4124 12.6873 42.5526 13.7427 43.7146 14.7775L44.7122 13.6573ZM40.2183 10.6148C38.76 12.5185 37.1733 14.3203 35.4692 16.0075L36.5246 17.0734C38.2772 15.3381 39.9092 13.4849 41.4091 11.527L40.2183 10.6148ZM35.4667 17.0709C36.8316 18.4353 38.1957 19.7993 39.5603 21.1637L40.6209 20.1029C39.2564 18.7387 37.8922 17.3745 36.5271 16.01L35.4667 17.0709ZM29.9876 21.877C31.0511 22.9806 32.0931 24.1066 33.1138 25.2551L34.235 24.2587C33.2009 23.0951 32.1453 21.9543 31.0677 20.8361L29.9876 21.877ZM35.4639 16.0128C33.7771 17.7167 31.9752 19.3031 30.0716 20.7611L30.9837 21.952C32.9415 20.4525 34.7948 18.8207 36.5299 17.0681L35.4639 16.0128ZM38.4935 7.69363C37.4249 6.59176 36.3772 5.46728 35.3517 4.32025L34.2335 5.32001C35.2727 6.48235 36.3342 7.62165 37.4166 8.73787L38.4935 7.69363ZM27.8632 9.46579C29.2283 10.8321 30.5936 12.1974 31.9583 13.5617L33.0188 12.5008C31.6543 11.1367 30.2892 9.77159 28.9244 8.40559L27.8632 9.46579ZM33.0215 13.5589C34.7078 11.8553 36.5086 10.269 38.4112 8.81107L37.4989 7.62044C35.542 9.11996 33.6899 10.7515 31.9555 12.5036L33.0215 13.5589ZM25.9093 23.1151C26 23.2056 25.937 23.2558 25.9621 23.0419C25.9854 22.8425 26.0745 22.5389 26.2625 22.1247C26.6349 21.3041 27.3187 20.214 28.2714 18.9481L27.0729 18.0461C26.0914 19.3502 25.3342 20.5405 24.8966 21.5048C24.6795 21.983 24.5213 22.448 24.4722 22.8676C24.4248 23.2727 24.4644 23.7923 24.8498 24.1769L25.9093 23.1151ZM34.2345 24.2581C33.1991 23.0955 32.1438 21.9551 31.0682 20.8367L29.987 21.8764C31.0493 22.981 32.0916 24.1073 33.1143 25.2557L34.2345 24.2581ZM30.0768 20.7571C28.8112 21.709 27.7217 22.3923 26.9015 22.7643C26.4875 22.9521 26.1841 23.041 25.9849 23.0642C25.7715 23.089 25.8207 23.0264 25.9102 23.116L24.8489 24.176C25.2334 24.5609 25.7524 24.6013 26.1581 24.5542C26.578 24.5053 27.043 24.3472 27.5211 24.1304C28.4852 23.6931 29.6748 22.9364 30.9784 21.9559L30.0768 20.7571ZM40.2934 11.611C41.4114 12.688 42.5519 13.7436 43.7151 14.7778L44.7118 13.6569C43.5635 12.6359 42.4377 11.5938 41.334 10.5307L40.2934 11.611ZM42.5717 6.45426C42.4821 6.3646 42.5447 6.31545 42.5199 6.52904C42.4968 6.72833 42.408 7.03172 42.2204 7.44561C41.8488 8.26561 41.1661 9.35485 40.2143 10.62L41.413 11.5218C42.3936 10.2183 43.1498 9.02875 43.5867 8.06476C43.8033 7.58666 43.9611 7.12176 44.0099 6.70207C44.057 6.2967 44.0167 5.77791 43.6324 5.39356L42.5717 6.45426ZM34.234 5.32055C35.2736 6.48118 36.3331 7.62008 37.4144 8.73729L38.4922 7.69409C37.4247 6.5911 36.3784 5.46635 35.3512 4.31972L34.234 5.32055ZM38.4043 8.81495C39.6698 7.86262 40.7597 7.1792 41.5802 6.80696C41.9944 6.61907 42.2981 6.52998 42.4976 6.50665C42.7117 6.48161 42.662 6.54452 42.5717 6.45424L43.6324 5.39358C43.2477 5.00893 42.7284 4.96944 42.3234 5.0168C41.9038 5.06587 41.4388 5.22399 40.9606 5.44095C39.9962 5.8784 38.8062 6.63523 37.5023 7.61643L38.4043 8.81495ZM37.416 8.73718C38.3587 9.71186 39.3173 10.6697 40.2931 11.6108L41.3343 10.531C40.3713 9.60237 39.4251 8.65679 38.4941 7.69432L37.416 8.73718ZM43.6324 5.39358C43.2478 5.00898 42.7286 4.96941 42.3236 5.01681C41.9041 5.0659 41.4393 5.22406 40.9613 5.44103C39.9974 5.87851 38.8078 6.63536 37.5041 7.61649L38.406 8.81501C39.6716 7.86261 40.7611 7.17917 41.5812 6.80692C41.9952 6.61902 42.2986 6.52996 42.4979 6.50664C42.7117 6.48163 42.6619 6.54446 42.5717 6.45423L43.6324 5.39358ZM31.961 12.4981C30.2089 14.2319 28.5759 16.0839 27.0767 18.0411L28.2675 18.9532C29.7248 17.0508 31.3123 15.2503 33.0161 13.5644L31.961 12.4981ZM27.1507 19.0362C28.1125 19.9665 29.0584 20.9135 29.9878 21.8772L31.0675 20.8359C30.1259 19.8596 29.1677 18.9003 28.1936 17.9581L27.1507 19.0362ZM36.5274 16.0103C35.358 14.8402 34.1888 13.6703 33.0187 12.5008L31.9583 13.5617C33.1281 14.7308 34.2969 15.9005 35.4664 17.0707L36.5274 16.0103ZM41.334 10.5308C40.3699 9.60182 39.4221 8.65634 38.4927 7.69452L37.414 8.73686C38.3562 9.71187 39.3166 10.67 40.2933 11.611L41.334 10.5308ZM37.4971 7.62037C35.5402 9.11992 33.6883 10.7515 31.954 12.5036L33.02 13.5589C34.7063 11.8553 36.5069 10.2689 38.4095 8.81101L37.4971 7.62037ZM31.9568 13.5617C33.1258 14.7301 34.2961 15.8997 35.4665 17.0707L36.5274 16.0103C35.3567 14.839 34.1861 13.6691 33.0172 12.5008L31.9568 13.5617ZM53.5578 21.3921C53.4781 22.7748 53.381 24.155 53.2526 25.5364L54.7461 25.6753C54.8766 24.2719 54.9749 22.8734 55.0553 21.4785L53.5578 21.3921ZM53.5018 26.1671C55.7788 28.1858 58.7127 29.3067 61.7557 29.3203L61.7625 27.8203C59.0839 27.8083 56.5012 26.8217 54.4969 25.0447L53.5018 26.1671ZM62.5091 28.5701C62.5085 26.7333 62.5085 24.8956 62.5091 23.057L61.0091 23.0565C61.0085 24.8954 61.0085 26.7334 61.0091 28.5706L62.5091 28.5701ZM61.7512 22.3068C59.2895 22.3329 56.8537 21.8029 54.6253 20.7564L53.9877 22.1142C56.4204 23.2566 59.0796 23.8352 61.767 23.8068L61.7512 22.3068ZM61.7625 29.3203C64.8054 29.3065 67.7391 28.1854 70.0158 26.1664L69.0205 25.0441C67.0165 26.8213 64.4342 27.8081 61.7557 27.8203L61.7625 29.3203ZM70.2649 25.5358C70.1365 24.1552 70.04 22.775 69.9597 21.3913L68.4622 21.4782C68.5432 22.8733 68.6409 24.2718 68.7714 25.6747L70.2649 25.5358ZM68.8919 20.756C66.6641 21.8032 64.2286 22.3333 61.7672 22.3068L61.751 23.8067C64.4385 23.8357 67.0977 23.2568 69.53 22.1135L68.8919 20.756ZM55.0705 8.08606C54.9925 6.6872 54.8942 5.28461 54.7663 3.87829L53.2725 4.0142C53.3986 5.40004 53.4957 6.78487 53.5729 8.16956L55.0705 8.08606ZM53.521 3.38579C51.9131 4.81566 50.6306 6.57389 49.7603 8.54176L51.1321 9.14849C51.9156 7.37686 53.0702 5.79398 54.5178 4.5067L53.521 3.38579ZM49.7603 8.54176C48.8899 10.5096 48.4519 12.6413 48.4759 14.7929L49.9758 14.7763C49.9542 12.8392 50.3485 10.9201 51.1321 9.14849L49.7603 8.54176ZM49.9758 14.7844C49.9753 12.4556 51.697 10.2412 54.6503 8.80201L53.9931 7.45361C50.7658 9.02643 48.4751 11.6551 48.4758 14.7848L49.9758 14.7844ZM62.5085 6.51362V1H61.0085V6.51362H62.5085ZM61.7551 0.250008C58.7223 0.263658 55.7973 1.37724 53.5232 3.38388L54.5156 4.50861C56.5174 2.74225 59.0922 1.76201 61.7618 1.74999L61.7551 0.250008ZM54.6396 8.80709C56.8642 7.76586 59.2947 7.23828 61.7507 7.26358L61.7662 5.76366C59.0851 5.73604 56.4321 6.31195 54.0038 7.44853L54.6396 8.80709ZM68.4633 21.4782C68.5442 22.8733 68.6419 24.2718 68.7724 25.6748L70.266 25.5359C70.1376 24.1553 70.0411 22.775 69.9608 21.3913L68.4633 21.4782ZM70.0187 26.1648C71.6203 24.735 72.8971 22.9789 73.7635 21.0145L72.391 20.4092C71.6111 22.1777 70.4616 23.7586 69.0197 25.0458L70.0187 26.1648ZM73.7635 21.0145C74.6298 19.0501 75.0655 16.923 75.0413 14.7762L73.5414 14.7931C73.5632 16.7258 73.1709 18.6408 72.391 20.4092L73.7635 21.0145ZM73.5413 14.7848C73.5419 17.1116 71.8269 19.3221 68.8827 20.7609L69.5414 22.1086C72.7605 20.5354 75.042 17.9102 75.0413 14.7845L73.5413 14.7848ZM48.4759 14.7763C48.452 16.9232 48.8879 19.0502 49.7543 21.0147L51.1268 20.4093C50.3467 18.6408 49.9543 16.7258 49.9758 14.7929L48.4759 14.7763ZM49.7543 21.0147C50.6208 22.9792 51.8984 24.7354 53.4998 26.1653L54.4989 25.0464C53.0569 23.7589 51.9067 22.1778 51.1268 20.4093L49.7543 21.0147ZM54.6359 20.7615C51.6914 19.3219 49.9758 17.112 49.9758 14.7846H48.4758C48.4758 17.911 50.7582 20.5353 53.9771 22.1091L54.6359 20.7615ZM61.7663 7.26358C64.222 7.23806 66.6524 7.76578 68.8763 8.80756L69.5126 7.44921C67.0848 6.31189 64.4315 5.7358 61.7507 5.76366L61.7663 7.26358ZM69.9433 8.17009C70.0204 6.78607 70.1209 5.40081 70.245 4.0143L68.751 3.8806C68.6254 5.28378 68.5236 6.6858 68.4456 8.08668L69.9433 8.17009ZM69.9944 3.3852C67.7205 1.37779 64.7949 0.263791 61.7619 0.250008L61.7551 1.74999C64.4249 1.76212 67.0002 2.74275 69.0016 4.5097L69.9944 3.3852ZM75.0413 14.7931C75.0654 12.6415 74.6266 10.51 73.7566 8.54257L72.3847 9.14921C73.1681 10.9208 73.5631 12.8397 73.5414 14.7763L75.0413 14.7931ZM73.7566 8.54257C72.8865 6.57486 71.6041 4.81674 69.9964 3.38701L68.9996 4.50789C70.447 5.79503 71.6014 7.37781 72.3847 9.14921L73.7566 8.54257ZM68.7511 3.8794C68.6232 5.28342 68.5213 6.68625 68.4455 8.08789L69.9434 8.16888C70.0181 6.78572 70.1187 5.40126 70.2449 4.0155L68.7511 3.8794ZM68.866 8.80263C71.8204 10.242 73.5419 12.4557 73.5413 14.7845L75.0413 14.7848C75.042 11.6551 72.7514 9.02699 69.5229 7.45414L68.866 8.80263ZM54.5877 13.5085C56.9635 13.1937 59.3581 13.042 61.7546 13.0545L61.7625 11.5545C59.2974 11.5417 56.8344 11.6977 54.3907 12.0215L54.5877 13.5085ZM62.5085 12.3048C62.5092 10.3747 62.5087 8.44411 62.5085 6.51354L61.0085 6.5137C61.0087 8.44456 61.0092 10.3747 61.0085 12.3043L62.5085 12.3048ZM53.5728 8.1692C53.6578 9.70676 53.7138 11.2429 53.7393 12.7775L55.2391 12.7525C55.2133 11.1981 55.1566 9.6427 55.0705 8.08643L53.5728 8.1692ZM69.9597 21.3915C69.8711 19.857 69.8115 18.3234 69.7815 16.7908L68.2818 16.8201C68.3121 18.3721 68.3725 19.9247 68.4622 21.478L69.9597 21.3915ZM68.9331 16.062C66.5559 16.3773 64.1599 16.5293 61.7619 16.5171L61.7542 18.0171C64.2207 18.0296 66.6852 17.8732 69.1303 17.549L68.9331 16.062ZM61.0081 17.2673C61.0087 19.1973 61.0093 21.127 61.0091 23.0567L62.5091 23.0569C62.5093 21.1268 62.5087 19.1967 62.5081 17.2668L61.0081 17.2673ZM53.7357 16.7915C53.7071 18.3243 53.6482 19.8575 53.5578 21.3912L55.0552 21.4794C55.1468 19.9253 55.2065 18.372 55.2354 16.8194L53.7357 16.7915ZM61.7543 16.5171C59.3567 16.5293 56.9609 16.3773 54.5842 16.062L54.3869 17.549C56.8316 17.8733 59.2958 18.0296 61.7619 18.0171L61.7543 16.5171ZM69.7786 12.7766C69.8023 11.2423 69.8573 9.70682 69.9433 8.1703L68.4456 8.08648C68.3585 9.64302 68.3027 11.1988 68.2788 12.7535L69.7786 12.7766ZM61.7624 13.0545C64.1594 13.0423 66.554 13.194 68.9303 13.5085L69.1272 12.0215C66.6831 11.698 64.2201 11.5419 61.7547 11.5545L61.7624 13.0545ZM49.9758 14.784C49.9759 14.912 49.8959 14.9029 50.0651 14.7693C50.2227 14.6448 50.5005 14.4931 50.9265 14.3331C51.7705 14.0163 53.0252 13.7291 54.594 13.5076L54.3844 12.0224C52.7683 12.2505 51.3909 12.5565 50.3993 12.9289C49.9075 13.1135 49.4667 13.3304 49.1351 13.5924C48.815 13.8453 48.4754 14.2407 48.4758 14.7852L49.9758 14.784ZM55.0553 21.4788C55.1456 19.9245 55.2052 18.3716 55.2354 16.8201L53.7357 16.7909C53.7059 18.3235 53.6469 19.8571 53.5578 21.3918L55.0553 21.4788ZM54.5905 16.0629C53.0226 15.8411 51.7689 15.5539 50.9256 15.237C50.5 15.0771 50.2225 14.9254 50.0652 14.8009C49.8966 14.6675 49.9759 14.6581 49.9758 14.7852L48.4758 14.784C48.4754 15.3282 48.8142 15.7238 49.1344 15.9771C49.4658 16.2394 49.9064 16.4564 50.3979 16.6411C51.3889 17.0136 52.7654 17.3197 54.3805 17.5481L54.5905 16.0629ZM68.2818 16.8194C68.3107 18.3722 68.3711 19.9253 68.4622 21.4787L69.9597 21.3908C69.8696 19.8572 69.8101 18.3241 69.7815 16.7915L68.2818 16.8194ZM69.5403 22.1086C72.7595 20.5353 75.0402 17.91 75.0395 14.7844L73.5395 14.7847C73.54 17.1116 71.8257 19.3221 68.8817 20.7609L69.5403 22.1086ZM73.5395 14.7846C73.5395 14.6577 73.6185 14.6673 73.4499 14.8008C73.2926 14.9253 73.0152 15.0771 72.5899 15.2371C71.7473 15.5541 70.4943 15.8414 68.9268 16.0629L69.1366 17.5481C70.7515 17.32 72.1274 17.0137 73.1181 16.641C73.6094 16.4562 74.0498 16.2391 74.381 15.9768C74.701 15.7235 75.0395 15.3282 75.0395 14.7846H73.5395ZM68.4456 8.08698C68.3596 9.64296 68.3038 11.1984 68.2788 12.753L69.7786 12.7771C69.8033 11.2422 69.8583 9.70641 69.9433 8.16979L68.4456 8.08698ZM68.9239 13.5076C70.492 13.7291 71.7463 14.0164 72.5902 14.3334C73.0162 14.4934 73.2941 14.6451 73.4519 14.7697C73.6213 14.9035 73.5413 14.9127 73.5413 14.7847H75.0413C75.0413 14.2404 74.7015 13.8453 74.3816 13.5926C74.0501 13.3307 73.6093 13.1139 73.1176 12.9292C72.1261 12.5568 70.7491 12.2505 69.1336 12.0224L68.9239 13.5076ZM68.2788 12.7524C68.2561 14.1084 68.257 15.4639 68.2818 16.8192L69.7815 16.7918C69.7571 15.4541 69.7561 14.1161 69.7786 12.7776L68.2788 12.7524ZM69.1366 17.5481C70.7515 17.32 72.1278 17.0137 73.1189 16.6411C73.6104 16.4563 74.0509 16.2393 74.3824 15.9771C74.7024 15.7239 75.0413 15.3286 75.0413 14.7847H73.5413C73.5413 14.6576 73.6206 14.6671 73.4517 14.8007C73.2942 14.9253 73.0166 15.0771 72.591 15.2371C71.7478 15.5541 70.4943 15.8414 68.9268 16.0629L69.1366 17.5481ZM61.7613 11.5545C59.2962 11.5416 56.8332 11.6976 54.3895 12.0214L54.5865 13.5084C56.9623 13.1936 59.3569 13.0419 61.7534 13.0544L61.7613 11.5545ZM53.7381 12.7771C53.7599 14.1154 53.7595 15.4538 53.7356 16.7921L55.2354 16.8188C55.2596 15.463 55.26 14.1076 55.2379 12.7527L53.7381 12.7771ZM62.5081 17.2673C62.5087 15.6126 62.508 13.9581 62.5074 12.3042L61.0074 12.3047C61.008 13.9588 61.0087 15.6127 61.0081 17.2668L62.5081 17.2673ZM69.1272 12.0215C66.6831 11.698 64.2189 11.5419 61.7535 11.5545L61.7612 13.0544C64.1582 13.0422 66.554 13.194 68.9303 13.5085L69.1272 12.0215ZM55.2354 16.8194C55.2606 15.4635 55.2622 14.1078 55.2391 12.7522L53.7393 12.7778C53.7621 14.1151 53.7605 15.453 53.7357 16.7916L55.2354 16.8194ZM70.7442 33.1153C69.7099 34.0365 68.6651 34.9442 67.5976 35.8299L68.5554 36.9843C69.6401 36.0843 70.6986 35.1646 71.7419 34.2354L70.7442 33.1153ZM67.3279 36.4521C67.5105 39.4896 68.7925 42.3568 70.9344 44.5183L71.9999 43.4625C70.1144 41.5598 68.986 39.0359 68.8251 36.3621L67.3279 36.4521ZM71.9976 44.5206C73.2965 43.2211 74.5961 41.9216 75.8962 40.622L74.8358 39.5611C73.5355 40.8608 72.2358 42.1605 70.9367 43.4602L71.9976 44.5206ZM75.8906 39.5556C74.1316 37.8335 72.784 35.7364 71.9486 33.4208L70.5376 33.9299C71.4497 36.4579 72.9209 38.7474 74.8413 40.6275L75.8906 39.5556ZM74.8369 39.5612C73.5373 40.8608 72.2377 42.1604 70.9381 43.46L71.9987 44.5207C73.2984 43.2211 74.598 41.9215 75.8976 40.6219L74.8369 39.5612ZM70.9405 44.5232C73.1021 46.6648 75.9693 47.9466 79.0067 48.1291L79.0967 46.6318C76.4229 46.4711 73.8991 45.3429 71.9963 43.4576L70.9405 44.5232ZM79.6289 47.8594C80.5146 46.7919 81.4222 45.7477 82.3437 44.7125L81.2233 43.7152C80.2942 44.7589 79.3746 45.8168 78.4745 46.9015L79.6289 47.8594ZM82.0378 43.5083C79.7221 42.6735 77.625 41.3261 75.9032 39.5669L74.8312 40.6161C76.7111 42.5369 79.0008 44.0079 81.5291 44.9194L82.0378 43.5083ZM81.224 24.777C82.159 23.7314 83.0786 22.6682 83.9828 21.5875L82.8324 20.625C81.9387 21.6931 81.0298 22.7438 80.1059 23.7771L81.224 24.777ZM83.4515 20.3575C81.3035 20.2316 79.1534 20.5681 77.1465 21.3441L77.6875 22.7432C79.4942 22.0445 81.4299 21.7416 83.3637 21.855L83.4515 20.3575ZM77.1465 21.3441C75.1395 22.1202 73.3225 23.3179 71.8181 24.8563L72.8905 25.9051C74.2449 24.5201 75.8807 23.4419 77.6875 22.7432L77.1465 21.3441ZM72.8847 25.9109C74.5316 24.2635 77.3145 23.9151 80.4205 24.9861L80.9094 23.568C77.5149 22.3976 74.0368 22.6368 71.8239 24.8504L72.8847 25.9109ZM87.5956 28.9241C88.8946 27.6251 90.1942 26.3255 91.4945 25.0253L90.4338 23.9646C89.1336 25.2649 87.8339 26.5645 86.535 27.8634L87.5956 28.9241ZM91.4921 23.9623C89.3377 21.8273 86.4813 20.5467 83.4544 20.3577L83.3609 21.8548C86.0256 22.0212 88.54 23.1485 90.4362 25.0277L91.4921 23.9623ZM82.8314 20.6262C81.9402 21.6958 81.0321 22.7457 80.1069 23.7759L81.2229 24.7781C82.1606 23.7341 83.0808 22.6701 83.9838 21.5863L82.8314 20.6262ZM80.4095 24.9822C82.7189 25.8186 84.811 27.1639 86.5295 28.9185L87.6011 27.869C85.725 25.9534 83.4412 24.4849 80.9203 23.5719L80.4095 24.9822ZM79.0093 48.1292C81.1529 48.2506 83.2967 47.9115 85.2982 47.1351L84.7558 45.7366C82.9537 46.4356 81.0237 46.7409 79.0941 46.6316L79.0093 48.1292ZM85.2982 47.1351C87.2998 46.3587 89.112 45.1628 90.613 43.6278L89.5405 42.5791C88.1892 43.961 86.5578 45.0377 84.7558 45.7366L85.2982 47.1351ZM89.5463 42.5732C87.9014 44.2187 85.1265 44.5688 82.027 43.5045L81.5399 44.9232C84.9286 46.0869 88.3974 45.8442 90.6072 43.6337L89.5463 42.5732ZM71.8299 24.8445C70.2948 26.3457 69.0998 28.1579 68.3235 30.1595L69.722 30.7019C70.421 28.8997 71.4969 27.2683 72.8787 25.9169L71.8299 24.8445ZM68.3235 30.1595C67.5471 32.1611 67.2081 34.3058 67.3294 36.4493L68.827 36.3646C68.7178 34.4348 69.023 32.504 69.722 30.7019L68.3235 30.1595ZM68.5571 36.9842C69.6418 36.0842 70.7003 35.1645 71.7436 34.2353L70.746 33.1152C69.7116 34.0364 68.6668 34.9441 67.5993 35.8298L68.5571 36.9842ZM71.9541 33.4317C70.8897 30.3314 71.2391 27.5565 72.8846 25.911L71.8239 24.8504C69.6134 27.0609 69.3719 30.5297 70.5354 33.9188L71.9541 33.4317ZM86.5392 28.9296C88.2939 30.648 89.6391 32.7394 90.4749 35.0487L91.8854 34.5382C90.9728 32.0171 89.5043 29.7339 87.5887 27.8579L86.5392 28.9296ZM91.6803 35.3524C92.7134 34.4279 93.7639 33.5194 94.8319 32.6269L93.8699 31.4759C92.7891 32.3793 91.7258 33.2988 90.68 34.2346L91.6803 35.3524ZM95.0995 32.0048C94.9109 28.9776 93.6303 26.1216 91.4954 23.9671L90.4299 25.0229C92.3092 26.9194 93.4364 29.4333 93.6024 32.098L95.0995 32.0048ZM90.4323 23.9647C89.1328 25.2643 87.8332 26.5639 86.5336 27.8634L87.5942 28.9241C88.8939 27.6245 90.1935 26.3249 91.493 25.0253L90.4323 23.9647ZM90.6011 43.6396C92.1394 42.1354 93.337 40.3186 94.113 38.3119L92.714 37.7708C92.0153 39.5774 90.9372 41.213 89.5524 42.5672L90.6011 43.6396ZM94.113 38.3119C94.8891 36.3051 95.2254 34.1554 95.0996 32.0076L93.6022 32.0953C93.7155 34.029 93.4127 35.9643 92.714 37.7708L94.113 38.3119ZM93.8708 31.4752C92.7877 32.3776 91.7238 33.2977 90.6792 34.2354L91.6811 35.3516C92.712 34.4263 93.762 33.5183 94.831 32.6276L93.8708 31.4752ZM90.4711 35.0379C91.542 38.1446 91.1939 40.9262 89.5465 42.573L90.607 43.6338C92.8207 41.4209 93.0595 37.9441 91.8892 34.5491L90.4711 35.0379ZM77.0471 28.2687C78.9496 29.7263 80.7501 31.3123 82.436 33.0158L83.5022 31.9606C81.7681 30.2085 79.9162 28.5772 77.9593 27.078L77.0471 28.2687ZM83.4993 33.0187C84.8644 31.6543 86.2294 30.2893 87.5943 28.9241L86.5335 27.8635C85.1686 29.2287 83.8038 30.5935 82.4389 31.9577L83.4993 33.0187ZM87.5997 27.869C85.7237 25.9535 83.4413 24.4849 80.9203 23.5719L80.4095 24.9822C82.7188 25.8185 84.8095 27.1638 86.5281 28.9186L87.5997 27.869ZM80.1061 23.7768C79.0794 24.9237 78.0316 26.0488 76.9642 27.1518L78.0422 28.1949C79.1229 27.0781 80.1839 25.9388 81.2237 24.7773L80.1061 23.7768ZM82.3434 44.7128C83.3661 43.5651 84.4093 42.4388 85.4718 41.3338L84.3906 40.2942C83.3152 41.4126 82.259 42.5528 81.2235 43.7149L82.3434 44.7128ZM85.3872 40.2185C83.4833 38.7606 81.6816 37.1739 79.9947 35.4697L78.9286 36.5249C80.6637 38.2779 82.5169 39.9099 84.4752 41.4095L85.3872 40.2185ZM78.9312 35.4671C77.567 36.832 76.2018 38.1966 74.837 39.5612L75.8975 40.6219C77.2622 39.2575 78.6277 37.8926 79.9921 36.5275L78.9312 35.4671ZM74.1245 29.9882C73.0208 31.0518 71.8951 32.0939 70.7466 33.1146L71.743 34.2359C72.9067 33.2017 74.0473 32.1458 75.1654 31.0682L74.1245 29.9882ZM70.5393 33.9298C71.4514 36.4577 72.922 38.7473 74.8426 40.6275L75.8919 39.5556C74.1329 37.8336 72.7858 35.7364 71.9503 33.4207L70.5393 33.9298ZM79.9892 35.4642C78.2851 33.7774 76.6981 31.9758 75.2404 30.0722L74.0494 30.9842C75.5489 32.9423 77.1813 34.7954 78.934 36.5303L79.9892 35.4642ZM88.3072 38.4934C89.4092 37.4254 90.5331 36.3783 91.6801 35.3526L90.6802 34.2344C89.518 35.2738 88.3795 36.3345 87.2633 37.4162L88.3072 38.4934ZM91.8854 34.5382C90.9729 32.0173 89.5059 29.734 87.5901 27.8579L86.5406 28.9296C88.2951 30.6478 89.639 32.7392 90.4749 35.0487L91.8854 34.5382ZM86.5351 27.8633C85.1697 29.2281 83.8032 30.5933 82.4387 31.9579L83.4995 33.0185C84.8637 31.6541 86.2297 30.2894 87.5955 28.9242L86.5351 27.8633ZM82.4415 33.0212C84.1451 34.7076 85.732 36.5084 87.1899 38.411L88.3806 37.4986C86.881 35.5416 85.2488 33.6895 83.4967 31.9552L82.4415 33.0212ZM72.8849 25.9107C72.7946 26.0011 72.7446 25.9382 72.9585 25.9633C73.1579 25.9866 73.4615 26.0758 73.8758 26.2638C74.6964 26.6364 75.7864 27.3202 77.0523 28.2726L77.9541 27.074C76.6501 26.0929 75.46 25.3357 74.4958 24.898C74.0176 24.6809 73.5527 24.5226 73.133 24.4735C72.7279 24.426 72.2083 24.4656 71.8237 24.8506L72.8849 25.9107ZM71.7419 34.2354C72.9045 33.2 74.0452 32.1444 75.1636 31.0688L74.1238 29.9877C73.0193 31.0499 71.8927 32.0926 70.7443 33.1153L71.7419 34.2354ZM75.2431 30.0774C74.2913 28.8121 73.6082 27.7227 73.2362 26.9025C73.0485 26.4885 72.9596 26.185 72.9364 25.9857C72.9115 25.7721 72.9742 25.8215 72.8843 25.9113L71.8242 24.8501C71.4394 25.2346 71.3992 25.7537 71.4464 26.1591C71.4953 26.5789 71.6533 27.0438 71.8701 27.522C72.3073 28.486 73.0639 29.6757 74.0444 30.9791L75.2431 30.0774ZM71.8239 24.8504C69.6136 27.0607 69.3701 30.5294 70.5337 33.9189L71.9524 33.4318C70.8882 30.3319 71.2389 27.5567 72.8846 25.911L71.8239 24.8504ZM84.3898 40.2936C83.3121 41.4118 82.2569 42.5525 81.2229 43.7155L82.344 44.7122C83.3648 43.5639 84.4064 42.438 85.4698 41.3344L84.3898 40.2936ZM89.5464 42.5731C89.6363 42.4833 89.6856 42.546 89.4718 42.5211C89.2725 42.4979 88.969 42.409 88.5551 42.2213C87.7349 41.8494 86.6456 41.1664 85.3807 40.2147L84.4789 41.4133C85.7821 42.3938 86.9716 43.1503 87.9356 43.5874C88.4137 43.8042 88.8786 43.9621 89.2983 44.011C89.7036 44.0582 90.2226 44.0183 90.6071 43.6337L89.5464 42.5731ZM90.6799 34.2347C89.5189 35.2741 88.3806 36.3346 87.2636 37.4159L88.3069 38.4936C89.4101 37.4257 90.5342 36.3784 91.6804 35.3523L90.6799 34.2347ZM87.1859 38.4057C88.138 39.6712 88.8214 40.7611 89.1936 41.5817C89.3815 41.9958 89.4706 42.2995 89.494 42.499C89.519 42.7132 89.4561 42.6634 89.5464 42.5731L90.6071 43.6337C90.9918 43.2491 91.0312 42.7297 90.9838 42.3247C90.9347 41.9051 90.7766 41.4402 90.5596 40.9619C90.1222 39.9977 89.3654 38.8077 88.3846 37.5039L87.1859 38.4057ZM87.2638 37.4157C86.2888 38.3588 85.3321 39.3179 84.3913 40.2934L85.4711 41.3346C86.4 40.3713 87.3445 39.4245 88.3067 38.4939L87.2638 37.4157ZM84.4803 41.4133C85.7834 42.3938 86.9726 43.1502 87.9362 43.5874C88.4141 43.8041 88.8789 43.9622 89.2985 44.011C89.7038 44.0583 90.2227 44.0182 90.6071 43.6337L89.5464 42.5731C89.6362 42.4833 89.6855 42.546 89.4721 42.5211C89.2729 42.4979 88.9696 42.409 88.5558 42.2213C87.7361 41.8495 86.6471 41.1665 85.3821 40.2147L84.4803 41.4133ZM76.9643 27.1517C76.0335 28.1135 75.0863 29.059 74.1229 29.9885L75.1645 31.0679C76.1401 30.1266 77.0993 29.1691 78.0421 28.1949L76.9643 27.1517ZM74.0482 30.9842C75.5476 32.9423 77.1794 34.7954 78.9322 36.5304L79.9874 35.4643C78.2834 33.7776 76.6969 31.9759 75.2392 30.0722L74.0482 30.9842ZM79.99 36.5278C81.1602 35.3582 82.3302 34.1884 83.4996 33.0184L82.4386 31.958C81.2694 33.1278 80.0997 34.2974 78.9296 35.4669L79.99 36.5278ZM78.9268 36.525C80.662 38.278 82.5156 39.9099 84.4738 41.4095L85.3858 40.2185C83.4819 38.7606 81.6797 37.174 79.9929 35.4697L78.9268 36.525ZM85.4699 41.3344C86.3986 40.3704 87.3443 39.4238 88.3064 38.4941L87.2641 37.4155C86.2893 38.3574 85.331 39.3166 84.3897 40.2936L85.4699 41.3344ZM75.1653 31.0683C76.1422 30.1271 77.1015 29.1691 78.0435 28.1943L76.9649 27.152C76.0353 28.1139 75.0886 29.0593 74.1245 29.9881L75.1653 31.0683ZM77.9551 27.0738C76.6511 26.0927 75.4607 25.3356 74.4962 24.8979C74.0179 24.6808 73.5528 24.5225 73.1331 24.4734C72.728 24.426 72.2083 24.4655 71.8237 24.8506L72.8849 25.9107C72.7946 26.0012 72.7446 25.9382 72.9587 25.9633C73.1583 25.9866 73.462 26.0758 73.8764 26.2638C74.6972 26.6363 75.7874 27.3201 77.0533 28.2725L77.9551 27.0738ZM71.8242 24.8501C71.4392 25.2347 71.3993 25.754 71.4466 26.1594C71.4956 26.5791 71.6538 27.0441 71.8708 27.5221C72.3083 28.4861 73.0651 29.6757 74.0456 30.979L75.2443 30.0773C74.2924 28.812 73.609 27.7225 73.2367 26.9023C73.0488 26.4882 72.9598 26.1847 72.9365 25.9854C72.9116 25.7718 72.9743 25.8214 72.8843 25.9113L71.8242 24.8501ZM74.6084 53.5584C73.2256 53.4781 71.8446 53.381 70.4638 53.2526L70.3249 54.7461C71.7277 54.8766 73.1268 54.9749 74.5215 55.0559L74.6084 53.5584ZM69.8332 53.5018C67.8144 55.7787 66.6933 58.7126 66.6793 61.7557L68.1793 61.7625C68.1916 59.0839 69.1784 56.5012 70.9555 54.4969L69.8332 53.5018ZM67.4293 62.5091H72.9435V61.0091H67.4293V62.5091ZM73.6934 61.7511C73.6671 59.2896 74.197 56.854 75.2438 54.6261L73.8862 53.9882C72.7433 56.4206 72.1647 59.0798 72.1935 61.7671L73.6934 61.7511ZM66.6793 61.7625C66.6933 64.8056 67.8143 67.7395 69.8331 70.0164L70.9555 69.0213C69.1784 67.017 68.1916 64.4343 68.1793 61.7557L66.6793 61.7625ZM70.4638 70.2657C71.8452 70.1372 73.2256 70.0401 74.6084 69.9598L74.5215 68.4623C73.1268 68.5433 71.7284 68.6416 70.3249 68.7721L70.4638 70.2657ZM75.2438 68.8921C74.197 66.6642 73.6671 64.2286 73.6934 61.7671L72.1935 61.7511C72.1647 64.4384 72.7433 67.0976 73.8861 69.53L75.2438 68.8921ZM87.9143 55.0718C89.3137 54.9932 90.7161 54.8949 92.1218 54.767L91.9859 53.2732C90.6006 53.3993 89.2158 53.4963 87.8302 53.5741L87.9143 55.0718ZM92.6143 53.5217C91.1845 51.9137 89.4263 50.6312 87.4584 49.7609L86.8516 51.1327C88.6233 51.9163 90.2061 53.0708 91.4934 54.5185L92.6143 53.5217ZM87.4584 49.7609C85.4905 48.8905 83.3588 48.4526 81.2071 48.4766L81.2239 49.9765C83.1609 49.9549 85.08 50.3492 86.8516 51.1327L87.4584 49.7609ZM81.2155 49.9765C83.5451 49.9765 85.7589 51.6978 87.1981 54.6515L88.5465 53.9944C86.9736 50.7665 84.3456 48.4765 81.2155 48.4765V49.9765ZM89.4858 62.5092H95V61.0092H89.4858V62.5092ZM95.75 61.7557C95.736 58.723 94.623 55.798 92.6162 53.5238L91.4915 54.5163C93.2579 56.5181 94.2377 59.0928 94.25 61.7626L95.75 61.7557ZM87.1931 54.6411C88.2348 56.865 88.7618 59.2953 88.7359 61.7512L90.2358 61.7671C90.2641 59.0861 89.6888 56.433 88.5515 54.0048L87.1931 54.6411ZM69.8349 70.0184C71.2649 71.6199 73.0221 72.8965 74.9863 73.7628L75.5916 72.3903C73.823 71.6103 72.241 70.4609 70.9538 69.0193L69.8349 70.0184ZM74.9863 73.7628C76.9507 74.6291 79.0777 75.0649 81.2244 75.0409L81.2076 73.541C79.275 73.5626 77.36 73.1702 75.5916 72.3903L74.9863 73.7628ZM81.216 73.5409C78.8891 73.541 76.6782 71.8259 75.2387 68.8816L73.8912 69.5405C75.465 72.7596 78.0905 75.041 81.216 75.0409L81.216 73.5409ZM81.2238 48.4766C79.077 48.4527 76.9505 48.8886 74.9862 49.755L75.5915 51.1275C77.36 50.3474 79.2744 49.955 81.2071 49.9765L81.2238 48.4766ZM74.9862 49.755C73.022 50.6214 71.2649 51.8982 69.8349 53.4998L70.9538 54.4989C72.241 53.0572 73.823 51.9076 75.5915 51.1275L74.9862 49.755ZM75.2388 54.6365C76.6783 51.6915 78.8887 49.9765 81.2155 49.9765V48.4765C78.0898 48.4765 75.465 50.7581 73.8912 53.9778L75.2388 54.6365ZM88.7359 61.7671C88.7618 64.2229 88.2343 66.653 87.1926 68.877L88.5509 69.5133C89.6882 67.0853 90.2641 64.4323 90.2358 61.7512L88.7359 61.7671ZM87.83 69.944C89.2151 70.0211 90.5999 70.1189 91.9846 70.245L92.1207 68.7512C90.7158 68.6232 89.3132 68.5243 87.9134 68.4463L87.83 69.944ZM92.615 69.9944C94.622 67.7205 95.7359 64.7956 95.75 61.7626L94.25 61.7557C94.2376 64.4255 93.2571 67.0001 91.4904 69.0018L92.615 69.9944ZM81.2077 75.0409C83.3591 75.0649 85.4902 74.6272 87.4579 73.757L86.8513 72.3851C85.0798 73.1685 83.1613 73.5626 81.2244 73.541L81.2077 75.0409ZM87.4579 73.757C89.4258 72.8867 91.1834 71.6042 92.6131 69.9965L91.4922 68.9997C90.2049 70.4472 88.6227 71.6017 86.8513 72.3851L87.4579 73.757ZM87.1976 68.8665C85.7577 71.8204 83.5456 73.5409 81.216 73.5409V75.0409C84.3463 75.0409 86.9725 72.7516 88.5459 69.5238L87.1976 68.8665ZM82.4924 54.5876C82.807 56.9637 82.9587 59.3585 82.9465 61.7553L84.4465 61.763C84.459 59.2978 84.303 56.8346 83.9795 54.3908L82.4924 54.5876ZM83.6965 62.5092L89.4858 62.5092V61.0092L83.6965 61.0092V62.5092ZM87.8308 53.5741C86.2941 53.6591 84.7586 53.7142 83.2237 53.7393L83.2482 55.2391C84.8027 55.2137 86.3577 55.1579 87.9137 55.0718L87.8308 53.5741ZM72.1946 61.7511C72.1658 64.4385 72.7445 67.0976 73.8872 69.53L75.2449 68.8921C74.1981 66.6642 73.6682 64.2286 73.6945 61.7672L72.1946 61.7511ZM74.6093 69.9598C76.1443 69.8712 77.6781 69.8119 79.2106 69.782L79.1813 68.2823C77.6296 68.3126 76.0768 68.3726 74.5228 68.4623L74.6093 69.9598ZM79.9394 68.9334C79.6238 66.5565 79.4717 64.1608 79.4842 61.763L77.9842 61.7552C77.9714 64.2216 78.1278 66.6859 78.4525 69.1309L79.9394 68.9334ZM78.7342 61.0091L72.9446 61.0092L72.9446 62.5092L78.7342 62.5091L78.7342 61.0091ZM79.2099 53.7363C77.6772 53.7077 76.144 53.6485 74.61 53.5585L74.5221 55.0559C76.076 55.1471 77.6293 55.2071 79.182 55.236L79.2099 53.7363ZM73.8873 53.9883C72.7444 56.4207 72.1658 59.0798 72.1946 61.7672L73.6945 61.7511C73.6682 59.2897 74.1981 56.8541 75.2449 54.6261L73.8873 53.9883ZM79.4842 61.7552C79.4717 59.3574 79.6238 56.9618 79.9394 54.5849L78.4525 54.3874C78.1278 56.8324 77.9714 59.2966 77.9842 61.763L79.4842 61.7552ZM83.2241 69.779C84.7586 69.8032 86.2934 69.8582 87.8299 69.944L87.9135 68.4463C86.3571 68.3594 84.8024 68.3037 83.2478 68.2792L83.2241 69.779ZM82.9465 61.763C82.9587 64.1598 82.807 66.5546 82.4924 68.9307L83.9795 69.1275C84.303 66.6836 84.4591 64.2205 84.4465 61.7553L82.9465 61.763ZM81.2155 49.9765C81.0878 49.9765 81.0972 49.8969 81.2309 50.066C81.3555 50.2237 81.5072 50.5016 81.6672 50.9275C81.9842 51.7713 82.2716 53.0257 82.4933 54.5942L83.9786 54.3842C83.7502 52.7684 83.4438 51.3914 83.0714 50.4C82.8867 49.9083 82.6697 49.4676 82.4077 49.136C82.1549 48.816 81.7597 48.4765 81.2155 48.4765V49.9765ZM74.5218 55.0559C76.0757 55.1456 77.6296 55.2056 79.1813 55.236L79.2106 53.7363C77.6781 53.7063 76.1432 53.647 74.6082 53.5584L74.5218 55.0559ZM79.9386 54.591C80.16 53.0234 80.447 51.7698 80.7637 50.9266C80.9236 50.501 81.0752 50.2234 81.1997 50.066C81.3332 49.8972 81.3426 49.9765 81.2155 49.9765V48.4765C80.6715 48.4765 80.2762 48.8155 80.0231 49.1356C79.761 49.4671 79.5442 49.9077 79.3595 50.3992C78.9873 51.3901 78.6814 52.7664 78.4533 54.3812L79.9386 54.591ZM79.182 68.2823C77.6293 68.3112 76.076 68.3712 74.5221 68.4624L74.61 69.9598C76.1439 69.8698 77.6773 69.8105 79.2099 69.782L79.182 68.2823ZM73.8923 69.5405C75.4661 72.7594 78.0903 75.0409 81.216 75.0409V73.5409C78.8892 73.5409 76.6794 71.826 75.2398 68.8816L73.8923 69.5405ZM81.216 73.5409C81.3431 73.5409 81.3336 73.6201 81.2001 73.4514C81.0756 73.294 80.9239 73.0165 80.764 72.591C80.4471 71.7481 80.1599 70.4948 79.9386 68.9273L78.4533 69.137C78.6814 70.7519 78.9874 72.128 79.3599 73.1188C79.5446 73.6102 79.7616 74.0507 80.0237 74.3821C80.2769 74.7021 80.6722 75.0409 81.216 75.0409V73.5409ZM82.4933 68.9241C82.2716 70.4923 81.9843 71.7465 81.6675 72.5902C81.5075 73.016 81.3559 73.2939 81.2313 73.4515C81.0977 73.6206 81.0884 73.5409 81.216 73.5409V75.0409C81.7602 75.0409 82.1554 74.7015 82.4082 74.3814C82.6702 74.0499 82.8871 73.6092 83.0717 73.1176C83.444 72.1263 83.7502 70.7495 83.9786 69.1341L82.4933 68.9241ZM83.2482 68.2792C81.8924 68.257 80.5375 68.258 79.1826 68.2823L79.2094 69.782C80.5472 69.7581 81.885 69.7571 83.2237 69.779L83.2482 68.2792ZM83.2237 53.7393C81.885 53.7611 80.5472 53.7601 79.2093 53.7362L79.1826 55.236C80.5375 55.2602 81.8924 55.2612 83.2482 55.2391L83.2237 53.7393ZM78.7342 62.5091L83.6965 62.5092L83.6965 61.0092L78.7342 61.0091L78.7342 62.5091ZM79.2099 69.782C80.5482 69.7571 81.8856 69.7561 83.2231 69.779L83.2488 68.2792C81.8934 68.256 80.5382 68.257 79.182 68.2823L79.2099 69.782ZM79.182 55.236C80.5382 55.2612 81.8934 55.2622 83.2487 55.2391L83.2232 53.7393C81.8857 53.7621 80.5482 53.7611 79.2099 53.7363L79.182 55.236Z" fill="currentColor"/>
</symbol>
</svg>
