<svg xmlns="http://www.w3.org/2000/svg">
	<symbol id="amex" xmlns="http://www.w3.org/2000/svg" width="24px" height="24px" viewBox="0 0 24 24">
		<g>
			<path d="M 20.367188 17.039062 L 19.472656 16.046875 L 18.546875 17.039062 L 12.824219 17.039062 L 12.824219 12.410156 L 11.003906 12.410156 L 13.269531 7.234375 L 15.460938 7.234375 L 16.25 9.015625 L 16.25 7.234375 L 18.996094 7.234375 L 19.472656 8.570312 L 19.953125 7.234375 L 22.046875 7.234375 L 22.046875 6.445312 C 22.046875 5.964844 21.667969 5.589844 21.1875 5.589844 L 2.8125 5.589844 C 2.332031 5.589844 1.953125 5.964844 1.953125 6.445312 L 1.953125 17.589844 C 1.953125 18.070312 2.332031 18.445312 2.8125 18.445312 L 21.1875 18.445312 C 21.667969 18.445312 22.046875 18.070312 22.046875 17.589844 L 22.046875 17.039062 Z M 20.367188 17.039062" fill="#0071CE" />
			<path d="M 20.605469 16.492188 L 22.046875 16.492188 L 20.160156 14.46875 L 22.046875 12.480469 L 20.640625 12.480469 L 19.441406 13.78125 L 18.273438 12.480469 L 16.835938 12.480469 L 18.753906 14.503906 L 16.835938 16.492188 L 18.238281 16.492188 L 19.441406 15.1875 Z M 20.605469 16.492188 " fill="#0071CE" />
			<path d="M 14.539062 15.566406 L 14.539062 14.949219 L 16.800781 14.949219 L 16.800781 14.023438 L 14.539062 14.023438 L 14.539062 13.40625 L 16.835938 13.40625 L 16.835938 12.480469 L 13.441406 12.480469 L 13.441406 16.492188 L 16.835938 16.492188 L 16.835938 15.566406 Z M 14.539062 15.566406 " fill="#0071CE"/>
			<path d="M 20.984375 11.898438 L 22.011719 11.898438 L 22.011719 7.851562 L 20.367188 7.886719 L 19.472656 10.386719 L 18.546875 7.886719 L 16.835938 7.886719 L 16.835938 11.898438 L 17.929688 11.898438 L 17.929688 9.085938 L 18.960938 11.898438 L 19.921875 11.898438 L 20.984375 9.085938 Z M 20.984375 11.898438 " fill="#0071CE"/>
			<path d="M 15.085938 7.886719 L 13.679688 7.886719 L 11.898438 11.898438 L 13.097656 11.898438 L 13.441406 11.109375 L 15.292969 11.109375 L 15.632812 11.898438 L 16.867188 11.898438 Z M 13.816406 10.183594 L 14.367188 8.878906 L 14.914062 10.183594 Z M 13.816406 10.183594 "  fill="#0071CE"/>
			<path d="M 21.050781 14.367188 L 22.046875 15.460938 L 22.046875 13.269531 Z M 21.050781 14.367188" fill="#0071CE"/>
		</g>
	</symbol>
	<symbol id="mastercard" width="24" height="24" viewBox="0 0 24 24">
		<rect width="24" height="24" fill="white"/>
		<path d="M14.1633 8.05713H9.83687V15.8319H14.1633V8.05713Z" fill="#FF5F00"/>
		<path d="M10.1116 11.9445C10.1109 11.1958 10.2806 10.4567 10.6078 9.78316C10.935 9.10966 11.4111 8.51943 12.0001 8.05714C11.2707 7.4838 10.3947 7.12725 9.47221 7.02824C8.54972 6.92923 7.618 7.09175 6.78352 7.49724C5.94904 7.90273 5.24548 8.53482 4.75325 9.32126C4.26103 10.1077 4 11.0168 4 11.9445C4 12.8723 4.26103 13.7814 4.75325 14.5678C5.24548 15.3543 5.94904 15.9863 6.78352 16.3918C7.618 16.7973 8.54972 16.9598 9.47221 16.8608C10.3947 16.7618 11.2707 16.4053 12.0001 15.8319C11.4111 15.3696 10.935 14.7794 10.6078 14.1059C10.2806 13.4324 10.1109 12.6933 10.1116 11.9445Z" fill="#EB001B"/>
		<path d="M20 11.9445C20.0001 12.8723 19.7391 13.7814 19.2469 14.5678C18.7547 15.3542 18.0511 15.9863 17.2167 16.3918C16.3822 16.7973 15.4505 16.9598 14.528 16.8608C13.6056 16.7618 12.7296 16.4053 12.0002 15.8319C12.5887 15.3692 13.0644 14.7789 13.3916 14.1055C13.7187 13.4321 13.8887 12.6932 13.8887 11.9445C13.8887 11.1959 13.7187 10.457 13.3916 9.78362C13.0644 9.11022 12.5887 8.5199 12.0002 8.05714C12.7296 7.4838 13.6056 7.12725 14.528 7.02824C15.4505 6.92923 16.3822 7.09176 17.2167 7.49725C18.0511 7.90274 18.7547 8.53483 19.2469 9.32127C19.7391 10.1077 20.0001 11.0168 20 11.9445Z" fill="#F79E1B"/>
		<path d="M19.5282 15.0083V14.8492H19.5924V14.8167H19.429V14.8492H19.4932V15.0083H19.5282ZM19.8456 15.0083V14.8164H19.7955L19.7379 14.9484L19.6802 14.8164H19.6301V15.0083H19.6655V14.8636L19.7195 14.9884H19.7562L19.8102 14.8632V15.0083H19.8456Z" fill="#F79E1B"/>
	</symbol>
	<symbol id="discover" width="24" height="24" viewBox="0 0 24 24">
		<rect width="24" height="24" fill="white"/>
		<g clip-path="url(#clip0_2_15)">
		<path d="M12.4083 16.6666H18.6648C19.016 16.6696 19.354 16.5329 19.6044 16.2866C19.8548 16.0403 19.9971 15.7047 20 15.3535V13.7811C17.6374 15.1373 15.0752 16.1112 12.4083 16.6666Z" fill="#F27712"/>
		<path d="M19.4483 12.1977H18.88L18.24 11.3535H18.1793V12.1977H17.7159V10.1011H18.4C18.9352 10.1011 19.2441 10.3218 19.2441 10.719C19.2441 11.0445 19.051 11.2542 18.7034 11.3204L19.4483 12.1977ZM18.7641 10.7356C18.7641 10.5314 18.6097 10.4266 18.3228 10.4266H18.1793V11.0611H18.3117C18.6097 11.0611 18.7641 10.9508 18.7641 10.7356ZM16.0938 10.1011H17.4069V10.4542H16.5572V10.9232H17.3738V11.2818H16.5572V11.8501H17.4069V12.2032H16.0938V10.1011ZM14.6041 12.2528L13.6 10.0956H14.1076L14.7421 11.508L15.3821 10.0956H15.8786L14.8635 12.2528H14.6152H14.6041ZM10.4055 12.2473C9.69931 12.2473 9.14759 11.7673 9.14759 11.1439C9.14759 10.537 9.71035 10.0459 10.4166 10.0459C10.6152 10.0459 10.7807 10.0845 10.9848 10.1728V10.6583C10.8302 10.5065 10.6222 10.4213 10.4055 10.4211C9.96414 10.4211 9.62759 10.7411 9.62759 11.1439C9.62759 11.5687 9.95862 11.8721 10.4276 11.8721C10.6372 11.8721 10.7972 11.8059 10.9848 11.6404V12.1259C10.7752 12.2142 10.5986 12.2473 10.4055 12.2473ZM9.00414 11.5577C9.00414 11.9659 8.66759 12.2473 8.18207 12.2473C7.82897 12.2473 7.57518 12.1259 7.36 11.8501L7.66345 11.5908C7.76828 11.7783 7.94483 11.8721 8.16552 11.8721C8.37518 11.8721 8.52414 11.7452 8.52414 11.5797C8.52414 11.4859 8.48 11.4142 8.38621 11.359C8.28337 11.3091 8.17628 11.2685 8.06621 11.2377C7.63035 11.0997 7.48138 10.9508 7.48138 10.6583C7.48138 10.3163 7.80138 10.057 8.22069 10.057C8.48552 10.057 8.72276 10.1397 8.92138 10.2942L8.67862 10.5701C8.58241 10.4646 8.44622 10.4045 8.30345 10.4045C8.10483 10.4045 7.96138 10.5039 7.96138 10.6363C7.96138 10.7466 8.04414 10.8073 8.32 10.9011C8.84966 11.0666 9.00414 11.2211 9.00414 11.5632V11.5577ZM6.72552 10.1011H7.18897V12.2032H6.72552V10.1011ZM5.23587 12.2032H4.55173V10.1011H5.23587C5.98621 10.1011 6.50483 10.5314 6.50483 11.1494C6.50483 11.4639 6.35035 11.7618 6.08 11.9604C5.84828 12.1259 5.58897 12.2032 5.23035 12.2032H5.23587ZM5.77655 10.6252C5.62207 10.5039 5.44552 10.4597 5.14207 10.4597H5.01518V11.8501H5.14207C5.44 11.8501 5.62759 11.7949 5.77655 11.6845C5.93655 11.5521 6.03035 11.3535 6.03035 11.1494C6.03035 10.9452 5.93655 10.7521 5.77655 10.6252Z" fill="black"/>
		<path d="M12.2759 10.0459C11.669 10.0459 11.1724 10.5314 11.1724 11.1328C11.1724 11.7728 11.6469 12.2528 12.2759 12.2528C12.8938 12.2528 13.3793 11.7673 13.3793 11.1494C13.3793 10.5314 12.8993 10.0459 12.2759 10.0459Z" fill="#F27712"/>
		</g>
		<defs>
		<clipPath id="clip0_2_15">
		<rect width="16" height="10.6667" fill="white" transform="translate(4 6)"/>
		</clipPath>
		</defs>
	</symbol>

	<symbol id="visa" width="24" height="24" viewBox="0 0 24 24">
		<rect width="24" height="24" fill="white"/>
		<path d="M9.35279 8.12547L6.47259 14.9973H4.59347L3.17611 9.51372C3.09006 9.17594 3.0157 9.05219 2.75365 8.91C2.32638 8.67809 1.6208 8.46073 1 8.32564L1.04274 8.12547H4.06766C4.45311 8.12547 4.79971 8.38213 4.88725 8.82624L5.63581 12.8022L7.48582 8.12501L9.35279 8.12547ZM16.7155 12.7537C16.7231 10.94 14.2076 10.8402 14.2249 10.0299C14.2302 9.78333 14.4655 9.52129 14.9789 9.45426C15.2336 9.42091 15.9354 9.39536 16.732 9.76179L17.0442 8.30455C16.6165 8.14941 16.0662 8 15.3814 8C13.6243 8 12.3878 8.93406 12.3774 10.2716C12.3659 11.2608 13.2596 11.8129 13.9335 12.1415C14.6264 12.4783 14.8587 12.6945 14.8562 12.9957C14.8512 13.4567 14.3036 13.6603 13.7917 13.6682C12.898 13.6819 12.3798 13.4264 11.9664 13.2342L11.6442 14.7396C12.0595 14.9303 12.8262 15.0965 13.6211 15.1048C15.4888 15.1048 16.7103 14.1823 16.7161 12.7537H16.7155ZM21.3559 14.9973H23L21.5641 8.12547H20.0468C19.8848 8.12407 19.726 8.17138 19.5912 8.26128C19.4563 8.35117 19.3516 8.4795 19.2906 8.62962L16.6229 14.9973H18.4895L18.86 13.9709H21.1407L21.3559 14.9973ZM19.3724 12.5625L20.308 9.98224L20.8466 12.5625H19.3724ZM11.8927 8.12547L10.4227 14.9973H8.64514L10.1157 8.12547H11.8927Z" fill="#1434CB"/>
	</symbol>



</svg>
