<svg xmlns="http://www.w3.org/2000/svg">
	<symbol id="key" width="24" height="25" viewBox="0 0 24 25">
		<path fill-rule="evenodd" clip-rule="evenodd" d="M6 8.28174C4.34315 8.28174 3 9.62488 3 11.2817V13.2817C3 14.9386 4.34315 16.2817 6 16.2817C7.65685 16.2817 9 14.9386 9 13.2817H15V15.2817H17V13.2817H18V15.2817H20V11.2817H9C9 9.62488 7.65685 8.28174 6 8.28174ZM7 13.2817V11.2817C7 10.7295 6.55228 10.2817 6 10.2817C5.44772 10.2817 5 10.7295 5 11.2817V13.2817C5 13.834 5.44772 14.2817 6 14.2817C6.55228 14.2817 7 13.834 7 13.2817Z" fill="currentColor"/>
	</symbol>

	<symbol id="heart" width="24" height="25" viewBox="0 0 24 25">
		<path fill-rule="evenodd" clip-rule="evenodd" d="M12.0122 5.85343L10.9252 4.76643C8.77734 2.61855 5.29493 2.61855 3.14705 4.76643C0.999162 6.91431 0.999162 10.3967 3.14705 12.5446L11.9859 21.3834L11.9877 21.3816L12.014 21.408L20.8528 12.5691C23.0007 10.4213 23.0007 6.93885 20.8528 4.79097C18.705 2.64308 15.2226 2.64308 13.0747 4.79097L12.0122 5.85343ZM11.9877 18.5532L16.9239 13.617L18.3747 12.2159L18.3762 12.2174L19.4386 11.1549C20.8055 9.78809 20.8055 7.57201 19.4386 6.20518C18.0718 4.83834 15.8557 4.83834 14.4889 6.20518L12.0133 8.68078L12.006 8.67354L12.005 8.67461L9.51101 6.18064C8.14417 4.81381 5.92809 4.81381 4.56126 6.18064C3.19442 7.54748 3.19442 9.76356 4.56126 11.1304L7.10068 13.6698L7.10248 13.668L11.9877 18.5532Z" fill="currentColor"/>
	</symbol>

	<symbol id="home" width="24" height="24" viewBox="0 0 24 24">
		<path fill-rule="evenodd" clip-rule="evenodd" d="M21 8.77217L14.0208 1.79299C12.8492 0.621414 10.9497 0.621413 9.77817 1.79299L3 8.57116V23.0858H10V17.0858C10 15.9812 10.8954 15.0858 12 15.0858C13.1046 15.0858 14 15.9812 14 17.0858V23.0858H21V8.77217ZM11.1924 3.2072L5 9.39959V21.0858H8V17.0858C8 14.8767 9.79086 13.0858 12 13.0858C14.2091 13.0858 16 14.8767 16 17.0858V21.0858H19V9.6006L12.6066 3.2072C12.2161 2.81668 11.5829 2.81668 11.1924 3.2072Z" fill="currentColor"/>
	</symbol>

	<symbol id="insights" width="24" height="25" viewBox="0 0 24 25">
		<path fill-rule="evenodd" clip-rule="evenodd" d="M15 8.28174H19V20.2817H5V10.2817H9V4.28174H15V8.28174ZM13 6.28174H11V18.2817H13V6.28174ZM15 10.2817V18.2817H17V10.2817H15ZM9 12.2817V18.2817H7V12.2817H9Z" fill="currentColor"/>
	</symbol>

	<symbol id="profile" width="24" height="25" viewBox="0 0 24 25">
		<path fill-rule="evenodd" clip-rule="evenodd" d="M8 9.28174C8 11.4909 9.79086 13.2817 12 13.2817C14.2091 13.2817 16 11.4909 16 9.28174C16 7.0726 14.2091 5.28174 12 5.28174C9.79086 5.28174 8 7.0726 8 9.28174ZM10 9.28174C10 10.3863 10.8954 11.2817 12 11.2817C13.1046 11.2817 14 10.3863 14 9.28174C14 8.17717 13.1046 7.28174 12 7.28174C10.8954 7.28174 10 8.17717 10 9.28174Z" fill="currentColor"/>
		<path fill-rule="evenodd" clip-rule="evenodd" d="M12 1.28174C18.0751 1.28174 23 6.20661 23 12.2817C23 18.3569 18.0751 23.2817 12 23.2817C5.92487 23.2817 1 18.3569 1 12.2817C1 6.20661 5.92487 1.28174 12 1.28174ZM21 12.2817C21 14.3719 20.2875 16.2957 19.092 17.8234C17.4476 15.6706 14.8537 14.2817 11.9355 14.2817C9.05517 14.2817 6.49084 15.6348 4.8435 17.74C3.68697 16.226 3 14.3341 3 12.2817C3 7.31118 7.02944 3.28174 12 3.28174C16.9706 3.28174 21 7.31118 21 12.2817ZM12 21.2817C14.1502 21.2817 16.1243 20.5277 17.6723 19.2696C16.4065 17.463 14.3089 16.2817 11.9355 16.2817C9.59156 16.2817 7.51667 17.4338 6.24623 19.2026C7.80613 20.5009 9.81187 21.2817 12 21.2817Z" fill="currentColor"/>
	</symbol>

	<symbol id="lock" width="24" height="25" viewBox="0 0 24 25">
		<path fill-rule="evenodd" clip-rule="evenodd" d="M18 10.7817C19.6569 10.7817 21 12.1249 21 13.7817V19.7817C21 21.4386 19.6569 22.7817 18 22.7817H6C4.34315 22.7817 3 21.4386 3 19.7817V13.7817C3 12.1249 4.34315 10.7817 6 10.7817V7.78174C6 4.46803 8.68629 1.78174 12 1.78174C15.3137 1.78174 18 4.46803 18 7.78174V10.7817ZM12 3.78174C14.2091 3.78174 16 5.5726 16 7.78174V10.7817H8V7.78174C8 5.5726 9.79086 3.78174 12 3.78174ZM18 12.7817H6C5.44772 12.7817 5 13.2295 5 13.7817V19.7817C5 20.334 5.44772 20.7817 6 20.7817H18C18.5523 20.7817 19 20.334 19 19.7817V13.7817C19 13.2295 18.5523 12.7817 18 12.7817Z" fill="currentColor"/>
	</symbol>

	<symbol id="credit-card" width="24" height="25" viewBox="0 0 24 25">
		<path d="M4 9.28174C4 8.72945 4.44772 8.28174 5 8.28174H9C9.55228 8.28174 10 8.72945 10 9.28174C10 9.83402 9.55228 10.2817 9 10.2817H5C4.44772 10.2817 4 9.83402 4 9.28174Z" fill="currentColor"/>
		<path fill-rule="evenodd" clip-rule="evenodd" d="M4 3.28174C1.79086 3.28174 0 5.0726 0 7.28174V17.2817C0 19.4909 1.79086 21.2817 4 21.2817H20C22.2091 21.2817 24 19.4909 24 17.2817V7.28174C24 5.0726 22.2091 3.28174 20 3.28174H4ZM20 5.28174H4C2.89543 5.28174 2 6.17717 2 7.28174V14.2817H22V7.28174C22 6.17717 21.1046 5.28174 20 5.28174ZM22 16.2817H2V17.2817C2 18.3863 2.89543 19.2817 4 19.2817H20C21.1046 19.2817 22 18.3863 22 17.2817V16.2817Z" fill="currentColor"/>
	</symbol>

	<symbol id="globe-alt" width="24" height="25" viewBox="0 0 24 25">
		<path fill-rule="evenodd" clip-rule="evenodd" d="M12 21.2817C16.9706 21.2817 21 17.2523 21 12.2817C21 7.31118 16.9706 3.28174 12 3.28174C7.02944 3.28174 3 7.31118 3 12.2817C3 17.2523 7.02944 21.2817 12 21.2817ZM14.8055 18.6969C17.1228 17.682 18.7847 15.4484 18.9806 12.8067C18.1577 13.2556 17.12 13.6236 15.9371 13.8797C15.7882 15.7494 15.3827 17.4188 14.8055 18.6969ZM9.1945 5.86661C7.24725 6.7194 5.76275 8.4328 5.22208 10.5257C5.4537 10.7455 5.84813 11.0158 6.44832 11.2825C6.89715 11.482 7.42053 11.6615 8.00537 11.8115C8.05853 9.48756 8.50349 7.39663 9.1945 5.86661ZM10.1006 14.1925C10.2573 15.6492 10.5852 16.9019 10.9992 17.8334C11.2932 18.495 11.5916 18.9066 11.8218 19.1257C11.9037 19.2036 11.9629 19.2451 12 19.2666C12.0371 19.2451 12.0963 19.2036 12.1782 19.1257C12.4084 18.9066 12.7068 18.495 13.0008 17.8334C13.4148 16.9019 13.7427 15.6492 13.8994 14.1925C13.2871 14.251 12.6516 14.2817 12 14.2817C11.3484 14.2817 10.7129 14.251 10.1006 14.1925ZM8.06286 13.8797C8.21176 15.7494 8.61729 17.4188 9.1945 18.6969C6.8772 17.682 5.21525 15.4484 5.01939 12.8067C5.84231 13.2556 6.88001 13.6235 8.06286 13.8797ZM13.9997 12.1713C13.369 12.2426 12.6993 12.2817 12 12.2817C11.3008 12.2817 10.631 12.2426 10.0003 12.1713C10.0135 9.94582 10.4229 8.02678 10.9992 6.73005C11.2932 6.06847 11.5916 5.6569 11.8218 5.43779C11.9037 5.35986 11.9629 5.31833 12 5.2969C12.0371 5.31833 12.0963 5.35986 12.1782 5.43779C12.4084 5.6569 12.7068 6.06847 13.0008 6.73005C13.5771 8.02678 13.9865 9.94582 13.9997 12.1713ZM15.9946 11.8115C15.9415 9.48756 15.4965 7.39663 14.8055 5.8666C16.7528 6.7194 18.2373 8.43281 18.7779 10.5258C18.5463 10.7455 18.1519 11.0158 17.5517 11.2825C17.1029 11.482 16.5795 11.6615 15.9946 11.8115Z" fill="currentColor"/>
	</symbol>

	<symbol id="stack" width="24" height="25" viewBox="0 0 24 25">
		<path d="M4 4.28174V16.2817H2V2.28174H16V4.28174H4Z" fill="currentColor"/>
		<path fill-rule="evenodd" clip-rule="evenodd" d="M22 8.28174V22.2817H8V8.28174H22ZM10 10.2817H20V20.2817H10V10.2817Z" fill="currentColor"/>
		<path d="M7 7.28174H19V5.28174H5V19.2817H7V7.28174Z" fill="currentColor"/>
	</symbol>

	<symbol id="website" width="24" height="25" viewBox="0 0 24 25">
		<path fill-rule="evenodd" clip-rule="evenodd" d="M10 7.28174C10.5523 7.28174 11 7.72945 11 8.28174V16.2817C11 16.834 10.5523 17.2817 10 17.2817H6C5.44772 17.2817 5 16.834 5 16.2817V8.28174C5 7.72945 5.44772 7.28174 6 7.28174H10ZM7 9.28174H9V15.2817H7V9.28174Z" fill="currentColor"/>
		<path d="M18 7.28174C18.5523 7.28174 19 7.72945 19 8.28174C19 8.83402 18.5523 9.28174 18 9.28174H14C13.4477 9.28174 13 8.83402 13 8.28174C13 7.72945 13.4477 7.28174 14 7.28174H18Z" fill="currentColor"/>
		<path d="M18 11.2817C18.5523 11.2817 19 11.7295 19 12.2817C19 12.834 18.5523 13.2817 18 13.2817H14C13.4477 13.2817 13 12.834 13 12.2817C13 11.7295 13.4477 11.2817 14 11.2817H18Z" fill="currentColor"/>
		<path d="M19 16.2817C19 15.7295 18.5523 15.2817 18 15.2817H14C13.4477 15.2817 13 15.7295 13 16.2817C13 16.834 13.4477 17.2817 14 17.2817H18C18.5523 17.2817 19 16.834 19 16.2817Z" fill="currentColor"/>
		<path fill-rule="evenodd" clip-rule="evenodd" d="M20 3.28174C21.6569 3.28174 23 4.62488 23 6.28174V18.2817C23 19.9386 21.6569 21.2817 20 21.2817H4C2.34315 21.2817 1 19.9386 1 18.2817V6.28174C1 4.62488 2.34315 3.28174 4 3.28174H20ZM4 5.28174H20C20.5523 5.28174 21 5.72945 21 6.28174V18.2817C21 18.834 20.5523 19.2817 20 19.2817H4C3.44772 19.2817 3 18.834 3 18.2817V6.28174C3 5.72945 3.44772 5.28174 4 5.28174Z" fill="currentColor"/>
	</symbol>

	<symbol id="log-out" width="24" height="24" viewBox="0 0 24 24">
		<path d="M8.51416 20H4.51416C3.40959 20 2.51416 19.1046 2.51416 18V6C2.51416 4.89543 3.40959 4 4.51416 4H8.51416V6H4.51416V18H8.51416V20Z" fill="currentColor"/>
		<path d="M13.8417 17.385L15.2619 15.9768L11.3427 12.0242L20.4856 12.0242C21.0379 12.0242 21.4856 11.5765 21.4856 11.0242C21.4856 10.4719 21.0379 10.0242 20.4856 10.0242L11.3234 10.0242L15.3039 6.0774L13.8957 4.6572L7.50478 10.9941L13.8417 17.385Z" fill="currentColor"/>
	</symbol>

	<symbol id="eye" width="24" height="24" viewBox="0 0 24 24">
		<path fill-rule="evenodd" clip-rule="evenodd" d="M15.9999 12C15.9999 14.2091 14.209 16 11.9999 16C9.79074 16 7.99988 14.2091 7.99988 12C7.99988 9.79086 9.79074 8 11.9999 8C14.209 8 15.9999 9.79086 15.9999 12ZM13.9999 12C13.9999 13.1046 13.1044 14 11.9999 14C10.8953 14 9.99988 13.1046 9.99988 12C9.99988 10.8954 10.8953 10 11.9999 10C13.1044 10 13.9999 10.8954 13.9999 12Z" fill="currentColor"/>
		<path fill-rule="evenodd" clip-rule="evenodd" d="M11.9999 3C17.5914 3 22.2897 6.82432 23.6218 12C22.2897 17.1757 17.5914 21 11.9999 21C6.40836 21 1.71006 17.1757 0.37793 12C1.71006 6.82432 6.40836 3 11.9999 3ZM11.9999 19C7.52431 19 3.7312 16.0581 2.45711 12C3.7312 7.94186 7.52431 5 11.9999 5C16.4754 5 20.2686 7.94186 21.5426 12C20.2686 16.0581 16.4754 19 11.9999 19Z" fill="currentColor"/>
	</symbol>

	<symbol id="eye-hidden" width="24" height="24" viewBox="0 0 24 24">
		<path d="M21.707 21.2929C21.3165 21.6835 20.6833 21.6835 20.2928 21.2929L1.90799 2.90816C1.51747 2.51763 1.51747 1.88447 1.908 1.49394C2.29852 1.10342 2.93168 1.10342 3.32221 1.49394L21.707 19.8787C22.0975 20.2692 22.0975 20.9024 21.707 21.2929Z" fill="currentColor"/>
		<path d="M20.6897 17.2758C22.0785 15.8179 23.1042 14.011 23.6218 12C22.2897 6.82436 17.5914 3.00004 11.9999 3.00004C10.3506 3.00004 8.77902 3.33276 7.34862 3.93475L8.90284 5.48898C9.87815 5.17159 10.9191 5.00004 11.9999 5.00004C16.4754 5.00004 20.2686 7.9419 21.5426 12C21.0843 13.4599 20.3 14.7753 19.2752 15.8613L20.6897 17.2758Z" fill="currentColor"/>
		<path d="M19.1922 18.6067L17.7605 17.1751C16.1316 18.3248 14.1441 19 11.9999 19C7.52431 19 3.7312 16.0582 2.45711 12C3.20715 9.61105 4.83019 7.60891 6.95152 6.36608L5.49791 4.91247C2.99966 6.52605 1.13918 9.0424 0.37793 12C1.71006 17.1757 6.40836 21 11.9999 21C14.6979 21 17.1879 20.1097 19.1922 18.6067Z" fill="currentColor"/>
		<path d="M9.47936 8.89392C8.57666 9.62732 7.99988 10.7463 7.99988 12C7.99988 14.2092 9.79074 16 11.9999 16C13.2536 16 14.3726 15.4233 15.106 14.5206L13.6764 13.091C13.3196 13.6383 12.702 14 11.9999 14C10.8953 14 9.99988 13.1046 9.99988 12C9.99988 11.298 10.3616 10.6804 10.9089 10.3235L9.47936 8.89392Z" fill="currentColor"/>
		<path d="M15.9626 12.5487C15.9872 12.3693 15.9999 12.1862 15.9999 12C15.9999 9.7909 14.209 8.00004 11.9999 8.00004C11.8138 8.00004 11.6306 8.01275 11.4512 8.03736L15.9626 12.5487Z" fill="currentColor"/>
	</symbol>

	<symbol id="bitcoin" width="24" height="24" viewBox="0 0 24 24">
		<path fill-rule="evenodd" clip-rule="evenodd" d="M24 12C24 18.6274 18.6274 24 12 24C5.37256 24 0 18.6274 0 12C0 5.37256 5.37256 0 12 0C18.6274 0 24 5.37256 24 12ZM17.1459 10.2887C17.3848 8.69198 16.1689 7.83359 14.5064 7.26098L15.0457 5.09798L13.729 4.76987L13.2039 6.87587C12.8578 6.78959 12.5022 6.70825 12.1489 6.62764L12.6778 4.5078L11.3617 4.17969L10.8221 6.34191C10.5355 6.27664 10.2542 6.21214 9.98124 6.1443L9.98274 6.13753L8.16677 5.68414L7.8165 7.09037C7.8165 7.09037 8.79348 7.31425 8.77287 7.32809C9.30619 7.4612 9.40258 7.81409 9.38642 8.09382L8.7721 10.5579C8.80887 10.5673 8.85648 10.5808 8.90898 10.6018C8.8651 10.5909 8.81821 10.5789 8.76982 10.5673L7.90873 14.0192C7.84345 14.1812 7.67806 14.4242 7.30529 14.3319C7.3184 14.351 6.34819 14.093 6.34819 14.093L5.69448 15.6002L7.40806 16.0273C7.72684 16.1072 8.03927 16.1908 8.34677 16.2695L7.80184 18.4572L9.1171 18.7853L9.65676 16.6208C10.0055 16.7153 10.3552 16.8061 10.7059 16.893L10.168 19.0474L11.4848 19.3755L12.0297 17.1919C14.2751 17.6168 15.9636 17.4454 16.6742 15.4148C17.2469 13.7798 16.6457 12.8367 15.4643 12.2217C16.3247 12.0234 16.9728 11.4575 17.1456 10.2886L17.1459 10.2887ZM14.1386 14.5087C13.7317 16.1437 10.9785 15.2598 10.0859 15.0382L10.809 12.1399C11.7016 12.3626 14.5639 12.8036 14.1386 14.5087ZM14.5428 10.2669C14.1716 11.7541 11.88 10.9985 11.1367 10.8133L11.7923 8.18457C12.5356 8.3698 14.9295 8.71552 14.5428 10.2669Z" fill="currentColor"/>
	</symbol>

	<symbol id="chevron-up" width="24" height="24" viewBox="0 0 24 24">
		<path d="M17.6577 16.2426L19.0719 14.8284L12.0008 7.75732L4.92969 14.8284L6.3439 16.2426L12.0008 10.5857L17.6577 16.2426Z" fill="currentColor"/>
	</symbol>

	<symbol id="chevron-down" width="24" height="24" viewBox="0 0 24 24">
		<path d="M6.3439 7.75732L4.92969 9.17154L12.0007 16.2426L19.0718 9.17157L17.6576 7.75735L12.0008 13.4142L6.3439 7.75732Z" fill="currentColor"/>
	</symbol>

</svg>