<svg xmlns="http://www.w3.org/2000/svg">

	<symbol id="eye" width="24" height="24" viewBox="0 0 24 24" fill="none">
		<path fill-rule="evenodd" clip-rule="evenodd" d="M15.9999 12C15.9999 14.2091 14.209 16 11.9999 16C9.79074 16 7.99988 14.2091 7.99988 12C7.99988 9.79086 9.79074 8 11.9999 8C14.209 8 15.9999 9.79086 15.9999 12ZM13.9999 12C13.9999 13.1046 13.1044 14 11.9999 14C10.8953 14 9.99988 13.1046 9.99988 12C9.99988 10.8954 10.8953 10 11.9999 10C13.1044 10 13.9999 10.8954 13.9999 12Z" fill="currentColor"/>
		<path fill-rule="evenodd" clip-rule="evenodd" d="M11.9999 3C17.5914 3 22.2897 6.82432 23.6218 12C22.2897 17.1757 17.5914 21 11.9999 21C6.40836 21 1.71006 17.1757 0.37793 12C1.71006 6.82432 6.40836 3 11.9999 3ZM11.9999 19C7.52431 19 3.7312 16.0581 2.45711 12C3.7312 7.94186 7.52431 5 11.9999 5C16.4754 5 20.2686 7.94186 21.5426 12C20.2686 16.0581 16.4754 19 11.9999 19Z" fill="currentColor"/>
	</symbol>

	<symbol id="eye-hidden" width="24" height="24" viewBox="0 0 24 24">
		<path d="M21.707 21.2929C21.3165 21.6835 20.6833 21.6835 20.2928 21.2929L1.90799 2.90816C1.51747 2.51763 1.51747 1.88447 1.908 1.49394C2.29852 1.10342 2.93168 1.10342 3.32221 1.49394L21.707 19.8787C22.0975 20.2692 22.0975 20.9024 21.707 21.2929Z" fill="currentColor"/>
		<path d="M20.6897 17.2758C22.0785 15.8179 23.1042 14.011 23.6218 12C22.2897 6.82436 17.5914 3.00004 11.9999 3.00004C10.3506 3.00004 8.77902 3.33276 7.34862 3.93475L8.90284 5.48898C9.87815 5.17159 10.9191 5.00004 11.9999 5.00004C16.4754 5.00004 20.2686 7.9419 21.5426 12C21.0843 13.4599 20.3 14.7753 19.2752 15.8613L20.6897 17.2758Z" fill="currentColor"/>
		<path d="M19.1922 18.6067L17.7605 17.1751C16.1316 18.3248 14.1441 19 11.9999 19C7.52431 19 3.7312 16.0582 2.45711 12C3.20715 9.61105 4.83019 7.60891 6.95152 6.36608L5.49791 4.91247C2.99966 6.52605 1.13918 9.0424 0.37793 12C1.71006 17.1757 6.40836 21 11.9999 21C14.6979 21 17.1879 20.1097 19.1922 18.6067Z" fill="currentColor"/>
		<path d="M9.47936 8.89392C8.57666 9.62732 7.99988 10.7463 7.99988 12C7.99988 14.2092 9.79074 16 11.9999 16C13.2536 16 14.3726 15.4233 15.106 14.5206L13.6764 13.091C13.3196 13.6383 12.702 14 11.9999 14C10.8953 14 9.99988 13.1046 9.99988 12C9.99988 11.298 10.3616 10.6804 10.9089 10.3235L9.47936 8.89392Z" fill="currentColor"/>
		<path d="M15.9626 12.5487C15.9872 12.3693 15.9999 12.1862 15.9999 12C15.9999 9.7909 14.209 8.00004 11.9999 8.00004C11.8138 8.00004 11.6306 8.01275 11.4512 8.03736L15.9626 12.5487Z" fill="currentColor"/>
	</symbol>
	
</svg>
