<svg width="16" height="16" viewBox="0 0 16 16" fill="none" xmlns="http://www.w3.org/2000/svg">
<path d="M0.928879 0.928636C1.3194 0.538112 1.95257 0.538112 2.34309 0.928636L15.071 13.6566C15.4615 14.0471 15.4615 14.6802 15.071 15.0708C14.6805 15.4613 14.0473 15.4613 13.6568 15.0708L0.92888 2.34285C0.538355 1.95233 0.538355 1.31916 0.928879 0.928636Z" fill="#1D1D23"/>
<path d="M0.92888 15.0708C0.538356 14.6802 0.538356 14.0471 0.92888 13.6566L13.6568 0.928635C14.0473 0.538111 14.6805 0.538111 15.071 0.928635C15.4615 1.31916 15.4615 1.95232 15.071 2.34285L2.34309 15.0708C1.95257 15.4613 1.3194 15.4613 0.92888 15.0708Z" fill="#1D1D23"/>
</svg>
