<svg width="200" height="38" viewBox="0 0 200 38" fill="none" xmlns="http://www.w3.org/2000/svg">
<path d="M13.0918 25.1528C21.7049 25.1528 27.0696 20.7725 27.0696 13.0946C27.0696 5.41665 21.7049 1.33161 13.0918 1.33161H0V36.6697H7.48105V25.1528H13.0918ZM13.0426 7.63144C17.2261 7.63144 19.6378 9.64935 19.6378 13.1438C19.6378 16.6382 17.2261 18.853 13.0426 18.853H7.48105V7.63144H13.0426Z" fill="white"/>
<path d="M38.9387 36.6697V1.33161H32.0974V36.6697H38.9387Z" fill="white"/>
<path d="M61.1184 36.6697H67.369V10.3876H60.577V25.5958C60.577 29.1395 58.3623 31.1082 55.9014 31.1082C53.2436 31.1082 51.4226 29.484 51.4226 25.7927V10.3876H44.6306V27.1215C44.6306 33.9628 48.4696 37.1619 53.7358 37.1619C57.0334 37.1619 59.6911 35.4885 61.1184 33.1753V36.6697Z" fill="white"/>
<path d="M79.8822 23.9224C79.8822 18.1148 83.8196 16.6874 89.6272 17.1796V10.2892C85.2469 9.84622 81.2603 12.1102 79.3408 15.457V10.3876H73.0902V36.6697H79.8822V23.9224Z" fill="white"/>
<path d="M101.207 4.28465C101.207 1.873 99.3365 0.150391 96.6296 0.150391C93.9226 0.150391 92.0524 1.873 92.0524 4.28465C92.0524 6.59788 93.9226 8.32048 96.6296 8.32048C99.3365 8.32048 101.207 6.59788 101.207 4.28465ZM100.075 36.6697V10.3876H93.2828V36.6697H100.075Z" fill="white"/>
<path d="M132.198 23.5287C132.198 15.7523 127.62 9.89544 120.533 9.89544C117.432 9.89544 114.725 11.2735 112.806 13.8328V1.33161H106.014V36.6697H112.265V32.88C114.332 35.6362 117.186 37.1619 120.533 37.1619C127.62 37.1619 132.198 31.2066 132.198 23.5287ZM112.855 23.4302C112.904 18.4593 115.71 15.9492 119.007 15.9492C122.354 15.9492 125.16 18.5085 125.16 23.5287C125.16 28.4504 122.354 31.0589 119.007 31.0589C115.661 31.0589 112.806 28.4012 112.855 23.4302Z" fill="white"/>
<path d="M152.584 36.6697H158.835V10.3876H152.043V25.5958C152.043 29.1395 149.828 31.1082 147.367 31.1082C144.709 31.1082 142.888 29.484 142.888 25.7927V10.3876H136.096V27.1215C136.096 33.9628 139.935 37.1619 145.201 37.1619C148.499 37.1619 151.157 35.4885 152.584 33.1753V36.6697Z" fill="white"/>
<path d="M186.654 28.2535C186.654 24.4146 184.095 22.1014 178.927 21.117L173.907 20.1819C171.545 19.7881 170.462 19.0499 170.462 17.6718C170.462 16.0476 172.086 14.8664 174.645 14.8664C177.5 14.8664 179.469 16.4414 179.715 19.0499H186.211C185.768 13.3899 181.24 9.84622 174.596 9.84622C168.444 9.84622 163.916 13.2914 163.916 18.164C163.916 22.3475 166.82 24.8575 171.446 25.6942L176.22 26.5801C178.681 27.0723 179.813 27.8106 179.813 29.2379C179.813 31.0097 178.091 32.1417 174.891 32.1417C171.594 32.1417 169.428 30.4683 169.33 27.7121H162.833C163.325 33.6182 168.001 37.1619 175.039 37.1619C182.323 37.1619 186.654 33.6182 186.654 28.2535Z" fill="white"/>
<path d="M200 32.2894C200 29.5332 198.13 27.6137 195.423 27.6137C192.716 27.6137 190.796 29.5332 190.796 32.2894C190.796 34.9963 192.716 36.9158 195.423 36.9158C198.13 36.9158 200 34.9963 200 32.2894Z" fill="white"/>
</svg>
