<svg width="200" height="38" viewBox="0 0 200 38" fill="none" xmlns="http://www.w3.org/2000/svg">
<path d="M13.0918 25.1758C21.7049 25.1758 27.0696 20.7954 27.0696 13.1175C27.0696 5.4396 21.7049 1.35456 13.0918 1.35456H0V36.6927H7.48105V25.1758H13.0918ZM13.0426 7.65439C17.2261 7.65439 19.6378 9.6723 19.6378 13.1667C19.6378 16.6612 17.2261 18.876 13.0426 18.876H7.48105V7.65439H13.0426Z" fill="#1D1D23"/>
<path d="M38.9387 36.6927V1.35456H32.0974V36.6927H38.9387Z" fill="#1D1D23"/>
<path d="M61.1184 36.6927H67.369V10.4106H60.577V25.6187C60.577 29.1624 58.3623 31.1311 55.9014 31.1311C53.2436 31.1311 51.4226 29.5069 51.4226 25.8156V10.4106H44.6306V27.1445C44.6306 33.9857 48.4696 37.1848 53.7358 37.1848C57.0334 37.1848 59.6911 35.5115 61.1184 33.1982V36.6927Z" fill="#1D1D23"/>
<path d="M79.8822 23.9454C79.8822 18.1377 83.8196 16.7104 89.6272 17.2026V10.3121C85.2469 9.86917 81.2603 12.1332 79.3408 15.48V10.4106H73.0902V36.6927H79.8822V23.9454Z" fill="#1D1D23"/>
<path d="M101.207 4.3076C101.207 1.89595 99.3365 0.17334 96.6296 0.17334C93.9226 0.17334 92.0524 1.89595 92.0524 4.3076C92.0524 6.62082 93.9226 8.34343 96.6296 8.34343C99.3365 8.34343 101.207 6.62082 101.207 4.3076ZM100.075 36.6927V10.4106H93.2828V36.6927H100.075Z" fill="#1D1D23"/>
<path d="M132.198 23.5516C132.198 15.7753 127.62 9.91839 120.533 9.91839C117.432 9.91839 114.725 11.2965 112.806 13.8558V1.35456H106.014V36.6927H112.265V32.9029C114.332 35.6591 117.186 37.1848 120.533 37.1848C127.62 37.1848 132.198 31.2295 132.198 23.5516ZM112.855 23.4532C112.904 18.4822 115.71 15.9721 119.007 15.9721C122.354 15.9721 125.16 18.5314 125.16 23.5516C125.16 28.4734 122.354 31.0819 119.007 31.0819C115.661 31.0819 112.806 28.4241 112.855 23.4532Z" fill="#1D1D23"/>
<path d="M152.584 36.6927H158.835V10.4106H152.043V25.6187C152.043 29.1624 149.828 31.1311 147.367 31.1311C144.709 31.1311 142.888 29.5069 142.888 25.8156V10.4106H136.096V27.1445C136.096 33.9857 139.935 37.1848 145.201 37.1848C148.499 37.1848 151.157 35.5115 152.584 33.1982V36.6927Z" fill="#1D1D23"/>
<path d="M186.654 28.2765C186.654 24.4375 184.095 22.1243 178.927 21.14L173.907 20.2048C171.545 19.8111 170.462 19.0728 170.462 17.6947C170.462 16.0706 172.086 14.8893 174.645 14.8893C177.5 14.8893 179.469 16.4643 179.715 19.0728H186.211C185.768 13.4128 181.24 9.86917 174.596 9.86917C168.444 9.86917 163.916 13.3144 163.916 18.1869C163.916 22.3704 166.82 24.8805 171.446 25.7172L176.22 26.6031C178.681 27.0953 179.813 27.8335 179.813 29.2608C179.813 31.0327 178.091 32.1647 174.891 32.1647C171.594 32.1647 169.428 30.4913 169.33 27.7351H162.833C163.325 33.6412 168.001 37.1848 175.039 37.1848C182.323 37.1848 186.654 33.6412 186.654 28.2765Z" fill="#1D1D23"/>
<path d="M200 32.3123C200 29.5561 198.13 27.6367 195.423 27.6367C192.716 27.6367 190.796 29.5561 190.796 32.3123C190.796 35.0193 192.716 36.9388 195.423 36.9388C198.13 36.9388 200 35.0193 200 32.3123Z" fill="#1D1D23"/>
</svg>
