<svg width="180" height="180" viewBox="0 0 180 180" fill="none" xmlns="http://www.w3.org/2000/svg">
<g clip-path="url(#clip0_2995_24324)">
<circle cx="90" cy="90" r="78.75" fill="#5257F7"/>
<path d="M89.5663 100.863C105.859 100.863 116.008 92.5766 116.008 78.0525C116.008 63.5284 105.859 55.8008 89.5663 55.8008H64.8008V122.649H78.9525V100.863H89.5663ZM89.4732 67.718C97.387 67.718 101.949 71.5353 101.949 78.1456C101.949 84.756 97.387 88.9456 89.4732 88.9456H78.9525V67.718H89.4732Z" fill="white"/>
<path d="M115.588 114.363C115.588 109.149 112.05 105.518 106.929 105.518C101.808 105.518 98.1774 109.149 98.1774 114.363C98.1774 119.484 101.808 123.115 106.929 123.115C112.05 123.115 115.588 119.484 115.588 114.363Z" fill="white"/>
</g>
<defs>
<clipPath id="clip0_2995_24324">
<rect width="180" height="180" fill="white"/>
</clipPath>
</defs>
</svg>
