<svg width="200" height="38" viewBox="0 0 200 38" fill="none" xmlns="http://www.w3.org/2000/svg">
<path d="M13.0918 25.1643C21.7049 25.1643 27.0696 20.784 27.0696 13.106C27.0696 5.42813 21.7049 1.34308 13.0918 1.34308H0V36.6812H7.48105V25.1643H13.0918ZM13.0426 7.64291C17.2261 7.64291 19.6378 9.66083 19.6378 13.1553C19.6378 16.6497 17.2261 18.8645 13.0426 18.8645H7.48105V7.64291H13.0426Z" fill="#5257F7"/>
<path d="M38.9387 36.6812V1.34308H32.0974V36.6812H38.9387Z" fill="#5257F7"/>
<path d="M61.1184 36.6812H67.369V10.3991H60.577V25.6073C60.577 29.1509 58.3623 31.1196 55.9014 31.1196C53.2436 31.1196 51.4226 29.4955 51.4226 25.8041V10.3991H44.6306V27.133C44.6306 33.9742 48.4696 37.1734 53.7358 37.1734C57.0334 37.1734 59.6911 35.5 61.1184 33.1868V36.6812Z" fill="#5257F7"/>
<path d="M79.8822 23.9339C79.8822 18.1262 83.8196 16.6989 89.6272 17.1911V10.3007C85.2469 9.8577 81.2603 12.1217 79.3408 15.4685V10.3991H73.0902V36.6812H79.8822V23.9339Z" fill="#5257F7"/>
<path d="M101.207 4.29613C101.207 1.88448 99.3365 0.161865 96.6296 0.161865C93.9226 0.161865 92.0524 1.88448 92.0524 4.29613C92.0524 6.60935 93.9226 8.33196 96.6296 8.33196C99.3365 8.33196 101.207 6.60935 101.207 4.29613ZM100.075 36.6812V10.3991H93.2828V36.6812H100.075Z" fill="#5257F7"/>
<path d="M132.198 23.5401C132.198 15.7638 127.62 9.90691 120.533 9.90691C117.432 9.90691 114.725 11.285 112.806 13.8443V1.34308H106.014V36.6812H112.265V32.8915C114.332 35.6476 117.186 37.1734 120.533 37.1734C127.62 37.1734 132.198 31.2181 132.198 23.5401ZM112.855 23.4417C112.904 18.4707 115.71 15.9607 119.007 15.9607C122.354 15.9607 125.16 18.52 125.16 23.5401C125.16 28.4619 122.354 31.0704 119.007 31.0704C115.661 31.0704 112.806 28.4127 112.855 23.4417Z" fill="#5257F7"/>
<path d="M152.584 36.6812H158.835V10.3991H152.043V25.6073C152.043 29.1509 149.828 31.1196 147.367 31.1196C144.709 31.1196 142.888 29.4955 142.888 25.8041V10.3991H136.096V27.133C136.096 33.9742 139.935 37.1734 145.201 37.1734C148.499 37.1734 151.157 35.5 152.584 33.1868V36.6812Z" fill="#5257F7"/>
<path d="M186.654 28.265C186.654 24.4261 184.095 22.1128 178.927 21.1285L173.907 20.1934C171.545 19.7996 170.462 19.0614 170.462 17.6833C170.462 16.0591 172.086 14.8779 174.645 14.8779C177.5 14.8779 179.469 16.4528 179.715 19.0614H186.211C185.768 13.4014 181.24 9.8577 174.596 9.8577C168.444 9.8577 163.916 13.3029 163.916 18.1754C163.916 22.3589 166.82 24.869 171.446 25.7057L176.22 26.5916C178.681 27.0838 179.813 27.8221 179.813 29.2494C179.813 31.0212 178.091 32.1532 174.891 32.1532C171.594 32.1532 169.428 30.4798 169.33 27.7236H162.833C163.325 33.6297 168.001 37.1734 175.039 37.1734C182.323 37.1734 186.654 33.6297 186.654 28.265Z" fill="#5257F7"/>
<path d="M200 32.3008C200 29.5447 198.13 27.6252 195.423 27.6252C192.716 27.6252 190.796 29.5447 190.796 32.3008C190.796 35.0078 192.716 36.9273 195.423 36.9273C198.13 36.9273 200 35.0078 200 32.3008Z" fill="#5257F7"/>
</svg>
