<svg xmlns="http://www.w3.org/2000/svg">

	<symbol id="twitter" width="24" height="24" viewBox="0 0 24 24">
		<path d="M0.0470009 4.56997C0.945519 4.96557 1.8974 5.2267 2.872 5.34496C1.84589 4.72822 1.07759 3.76101 0.709 2.62197C1.66 3.17697 2.714 3.58097 3.836 3.80597C4.57624 3.01439 5.55713 2.48939 6.62636 2.31247C7.69558 2.13555 8.7933 2.31662 9.74906 2.82756C10.7048 3.3385 11.4651 4.15072 11.9119 5.13809C12.3588 6.12546 12.467 7.23273 12.22 8.28797C16.31 8.09497 19.933 6.12996 22.36 3.16197C22.8012 3.91178 23.0313 4.76699 23.026 5.63697C23.026 7.34697 22.156 8.84996 20.838 9.73296C21.6191 9.7081 22.383 9.4969 23.066 9.11696V9.17697C23.0664 10.3134 22.6737 11.4149 21.9545 12.2947C21.2353 13.1745 20.2338 13.7784 19.12 14.004C19.8417 14.1973 20.5976 14.2264 21.332 14.089C21.0159 15.067 20.4023 15.9219 19.577 16.5345C18.7516 17.147 17.7556 17.4867 16.728 17.506C18.4685 18.8719 20.6175 19.6133 22.83 19.611C23.22 19.611 23.609 19.588 24 19.544C21.7443 20.9883 19.1215 21.755 16.443 21.753C7.39 21.753 2.445 14.257 2.445 7.76797C2.445 7.55797 2.445 7.34797 2.46 7.13797C1.49401 6.44283 0.66077 5.57978 0 4.58997L0.0470009 4.56997Z" fill="currentColor"/>
	</symbol>

	<symbol id="youtube" width="24" height="24" viewBox="0 0 24 24">
		<path fill-rule="evenodd" clip-rule="evenodd" d="M19 7H5C4.44772 7 4 7.44771 4 8V16C4 16.5523 4.44772 17 5 17H19C19.5523 17 20 16.5523 20 16V8C20 7.44772 19.5523 7 19 7ZM22 8C22 6.34315 20.6569 5 19 5H5C3.34315 5 2 6.34315 2 8V16C2 17.6569 3.34315 19 5 19H19C20.6569 19 22 17.6569 22 16V8ZM14 9L10 12L14 15V9Z" fill="currentColor"/>
	</symbol>

	<symbol id="instagram" width="24" height="24" viewBox="0 0 24 24">
		<path fill-rule="evenodd" clip-rule="evenodd" d="M12 7C9.23858 7 7 9.23858 7 12C7 14.7614 9.23858 17 12 17C14.7614 17 17 14.7614 17 12C17 9.23858 14.7614 7 12 7ZM9 12C9 13.6569 10.3431 15 12 15C13.6569 15 15 13.6569 15 12C15 10.3431 13.6569 9 12 9C10.3431 9 9 10.3431 9 12Z" fill="currentColor"/>
		<path d="M18 5C17.4477 5 17 5.44772 17 6C17 6.55228 17.4477 7 18 7C18.5523 7 19 6.55228 19 6C19 5.44772 18.5523 5 18 5Z" fill="currentColor"/>
		<path fill-rule="evenodd" clip-rule="evenodd" d="M5 1C2.79086 1 1 2.79086 1 5V19C1 21.2091 2.79086 23 5 23H19C21.2091 23 23 21.2091 23 19V5C23 2.79086 21.2091 1 19 1H5ZM19 3H5C3.89543 3 3 3.89543 3 5V19C3 20.1046 3.89543 21 5 21H19C20.1046 21 21 20.1046 21 19V5C21 3.89543 20.1046 3 19 3Z" fill="currentColor"/>
	</symbol>

	<symbol id="substack" width="24" height="24" viewBox="0 0 24 24">
		<path d="M2.67759 8.55517H22V5.9555H2.67667V8.55517H2.67759ZM22 10.911V23L12.3383 17.6008L2.67667 23V10.911H22ZM2.67667 1H22V3.59967H2.67667V1Z" fill="currentColor"/>
	</symbol>



</svg>
